{
  "accessors": [
    {
      "bufferView": 2,
      "componentType": 5126,
      "count": 721,
      "max": [
        1.3039034605026245,
        0.19703590869903564,
        1.8323302268981934
      ],
      "min": [
        0.6929330229759216,
        -0.38336604833602905,
        1.3205223083496094
      ],
      "type": "VEC3"
    },
    {
      "bufferView": 2,
      "byteOffset": 8652,
      "componentType": 5126,
      "count": 721,
      "max": [
        0.9896115064620972,
        0.9896115064620972,
        1.0
      ],
      "min": [
        -0.9896115064620972,
        -0.9896115660667419,
        -1.0
      ],
      "type": "VEC3"
    },
    {
      "bufferView": 3,
      "componentType": 5126,
      "count": 721,
      "max": [
        0.9848077893257141,
        0.9848079085350037,
        1.0,
        1.0
      ],
      "min": [
        -0.9848077893257141,
        -0.9848101139068604,
        -1.0,
        -1.0
      ],
      "type": "VEC4"
    },
    {
      "bufferView": 1,
      "componentType": 5126,
      "count": 721,
      "max": [
        0.9924651980400085,
        0.9204460978507996
      ],
      "min": [
        0.0106377974152565,
        0.009936410002410412
      ],
      "type": "VEC2"
    },
    {
      "bufferView": 0,
      "componentType": 5125,
      "count": 2136,
      "type": "SCALAR"
    },
    {
      "bufferView": 2,
      "byteOffset": 17304,
      "componentType": 5126,
      "count": 4183,
      "max": [
        2.002487897872925,
        2.005265712738037,
        4.151688575744629
      ],
      "min": [
        -2.002487897872925,
        -2.005265712738037,
        -0.007309828884899616
      ],
      "type": "VEC3"
    },
    {
      "bufferView": 2,
      "byteOffset": 67500,
      "componentType": 5126,
      "count": 4183,
      "max": [
        0.9999992847442627,
        1.0,
        1.0
      ],
      "min": [
        -0.9998601078987122,
        -0.9998655915260315,
        -1.0
      ],
      "type": "VEC3"
    },
    {
      "bufferView": 3,
      "byteOffset": 11536,
      "componentType": 5126,
      "count": 4183,
      "max": [
        0.9995469450950623,
        0.9997019171714783,
        1.0,
        1.0
      ],
      "min": [
        -0.9990580677986145,
        -0.9999921321868896,
        -1.0,
        -1.0
      ],
      "type": "VEC4"
    },
    {
      "bufferView": 1,
      "byteOffset": 5768,
      "componentType": 5126,
      "count": 4183,
      "max": [
        0.9967858791351318,
        0.9937177896499634
      ],
      "min": [
        0.006305153481662273,
        0.0
      ],
      "type": "VEC2"
    },
    {
      "bufferView": 0,
      "byteOffset": 8544,
      "componentType": 5125,
      "count": 17706,
      "type": "SCALAR"
    },
    {
      "bufferView": 2,
      "byteOffset": 117696,
      "componentType": 5126,
      "count": 1491,
      "max": [
        0.8341125249862671,
        0.5128529071807861,
        2.528054714202881
      ],
      "min": [
        -0.4981691837310791,
        -0.5234894752502441,
        1.4968030452728271
      ],
      "type": "VEC3"
    },
    {
      "bufferView": 2,
      "byteOffset": 135588,
      "componentType": 5126,
      "count": 1491,
      "max": [
        0.9994614124298096,
        0.999972403049469,
        0.9965932965278625
      ],
      "min": [
        -0.996408224105835,
        -0.9973763227462769,
        -0.9981412887573242
      ],
      "type": "VEC3"
    },
    {
      "bufferView": 3,
      "byteOffset": 78464,
      "componentType": 5126,
      "count": 1491,
      "max": [
        0.953121542930603,
        0.9972399473190308,
        0.9997140765190125,
        1.0
      ],
      "min": [
        -0.9092178344726563,
        -0.9917175769805908,
        -0.9998957514762878,
        1.0
      ],
      "type": "VEC4"
    },
    {
      "bufferView": 1,
      "byteOffset": 39232,
      "componentType": 5126,
      "count": 1491,
      "max": [
        1.6143220663070679,
        10.642383575439453
      ],
      "min": [
        -35.00041198730469,
        -0.001998722553253174
      ],
      "type": "VEC2"
    },
    {
      "bufferView": 0,
      "byteOffset": 79368,
      "componentType": 5125,
      "count": 7134,
      "type": "SCALAR"
    },
    {
      "bufferView": 2,
      "byteOffset": 153480,
      "componentType": 5126,
      "count": 208,
      "max": [
        2.002487897872925,
        2.005265712738037,
        3.982905387878418
      ],
      "min": [
        -2.002487897872925,
        -2.005265951156616,
        2.812933921813965
      ],
      "type": "VEC3"
    },
    {
      "bufferView": 2,
      "byteOffset": 155976,
      "componentType": 5126,
      "count": 208,
      "max": [
        0.9569731950759888,
        0.9571687579154968,
        0.816801905632019
      ],
      "min": [
        -0.9546904563903809,
        -0.9548107385635376,
        -0.539517343044281
      ],
      "type": "VEC3"
    },
    {
      "bufferView": 3,
      "byteOffset": 102320,
      "componentType": 5126,
      "count": 208,
      "max": [
        0.7017938494682312,
        0.6253207921981812,
        0.6616924405097961,
        1.0
      ],
      "min": [
        -0.8005183339118958,
        -0.8175626397132874,
        -0.6714340448379517,
        -1.0
      ],
      "type": "VEC4"
    },
    {
      "bufferView": 1,
      "byteOffset": 51160,
      "componentType": 5126,
      "count": 208,
      "max": [
        -0.0024802950210869312,
        0.7941765785217285
      ],
      "min": [
        -0.9914511442184448,
        -0.004285145550966263
      ],
      "type": "VEC2"
    },
    {
      "bufferView": 0,
      "byteOffset": 107904,
      "componentType": 5125,
      "count": 468,
      "type": "SCALAR"
    }
  ],
  "asset": {
    "extras": {
      "author": "FlukierJupiter (https://sketchfab.com/FlukierJupiter)",
      "license": "CC-BY-4.0 (http://creativecommons.org/licenses/by/4.0/)",
      "source": "https://sketchfab.com/3d-models/well-d8442bc92f224f0ebfa8446a1bca836d",
      "title": "Well"
    },
    "generator": "Sketchfab-12.68.0",
    "version": "2.0"
  },
  "bufferViews": [
    {
      "buffer": 0,
      "byteLength": 109776,
      "name": "floatBufferViews",
      "target": 34963
    },
    {
      "buffer": 0,
      "byteLength": 52824,
      "byteOffset": 109776,
      "byteStride": 8,
      "name": "floatBufferViews",
      "target": 34962
    },
    {
      "buffer": 0,
      "byteLength": 158472,
      "byteOffset": 162600,
      "byteStride": 12,
      "name": "floatBufferViews",
      "target": 34962
    },
    {
      "buffer": 0,
      "byteLength": 105648,
      "byteOffset": 321072,
      "byteStride": 16,
      "name": "floatBufferViews",
      "target": 34962
    }
  ],
  "buffers": [
    {
      "byteLength": 426720,
      "uri": "scene.bin"
    }
  ],
  "images": [
    {
      "uri": "textures/Bucket_baseColor.png"
    },
    {
      "uri": "textures/Bucket_metallicRoughness.png"
    },
    {
      "uri": "textures/Bucket_normal.png"
    },
    {
      "uri": "textures/Well_baseColor.png"
    },
    {
      "uri": "textures/Well_metallicRoughness.png"
    },
    {
      "uri": "textures/Well_normal.png"
    },
    {
      "uri": "textures/rope_baseColor.png"
    },
    {
      "uri": "textures/rope_normal.png"
    },
    {
      "uri": "textures/Roof_baseColor.png"
    },
    {
      "uri": "textures/Roof_metallicRoughness.png"
    },
    {
      "uri": "textures/Roof_normal.png"
    }
  ],
  "materials": [
    {
      "name": "Bucket",
      "normalTexture": {
        "index": 2
      },
      "occlusionTexture": {
        "index": 1
      },
      "pbrMetallicRoughness": {
        "baseColorTexture": {
          "index": 0
        },
        "metallicRoughnessTexture": {
          "index": 1
        }
      }
    },
    {
      "doubleSided": true,
      "name": "Well",
      "normalTexture": {
        "index": 5
      },
      "occlusionTexture": {
        "index": 4
      },
      "pbrMetallicRoughness": {
        "baseColorTexture": {
          "index": 3
        },
        "metallicRoughnessTexture": {
          "index": 4
        }
      }
    },
    {
      "name": "rope",
      "normalTexture": {
        "index": 7
      },
      "pbrMetallicRoughness": {
        "baseColorTexture": {
          "index": 6
        },
        "metallicFactor": 0.0
      }
    },
    {
      "name": "Roof",
      "normalTexture": {
        "index": 10
      },
      "pbrMetallicRoughness": {
        "baseColorTexture": {
          "index": 8
        },
        "metallicFactor": 0.0,
        "metallicRoughnessTexture": {
          "index": 9
        }
      }
    }
  ],
  "meshes": [
    {
      "name": "Well_LP_Bucket_0",
      "primitives": [
        {
          "attributes": {
            "NORMAL": 1,
            "POSITION": 0,
            "TANGENT": 2,
            "TEXCOORD_0": 3
          },
          "indices": 4,
          "material": 0,
          "mode": 4
        }
      ]
    },
    {
      "name": "Well_LP_Well_0",
      "primitives": [
        {
          "attributes": {
            "NORMAL": 6,
            "POSITION": 5,
            "TANGENT": 7,
            "TEXCOORD_0": 8
          },
          "indices": 9,
          "material": 1,
          "mode": 4
        }
      ]
    },
    {
      "name": "Well_LP_rope_0",
      "primitives": [
        {
          "attributes": {
            "NORMAL": 11,
            "POSITION": 10,
            "TANGENT": 12,
            "TEXCOORD_0": 13
          },
          "indices": 14,
          "material": 2,
          "mode": 4
        }
      ]
    },
    {
      "name": "Well_LP_Roof_0",
      "primitives": [
        {
          "attributes": {
            "NORMAL": 16,
            "POSITION": 15,
            "TANGENT": 17,
            "TEXCOORD_0": 18
          },
          "indices": 19,
          "material": 3,
          "mode": 4
        }
      ]
    }
  ],
  "nodes": [
    {
      "children": [
        1
      ],
      "matrix": [
        1.0,
        0.0,
        0.0,
        0.0,
        0.0,
        -0.004967870656401141,
        0.9999876618385315,
        0.0,
        0.0,
        -0.9999876618385315,
        -0.004967870656401141,
        0.0,
        0.0,
        -299.1585388183594,
        -0.7847996354103752,
        1.0
      ],
      "name": "Sketchfab_model"
    },
    {
      "children": [
        2
      ],
      "matrix": [
        1.0,
        0.0,
        0.0,
        0.0,
        0.0,
        -1.0,
        0.0,
        0.0,
        0.0,
        0.0,
        -1.0,
        0.0,
        0.0,
        0.0,
        0.0,
        1.0
      ],
      "name": "c328a80e2aa648aebba720be66ca532b.fbx"
    },
    {
      "children": [
        3
      ],
      "name": "RootNode"
    },
    {
      "children": [
        4,
        5,
        6,
        7
      ],
      "matrix": [
        49.11334799087779,
        41.21099249251942,
        0.0,
        0.0,
        -41.21099249251942,
        49.11334799087779,
        0.0,
        0.0,
        0.0,
        0.0,
        64.11292266845703,
        0.0,
        0.24141579866409302,
        -0.018550023436546326,
        -6.790473937988281,
        1.0
      ],
      "name": "Well_LP"
    },
    {
      "mesh": 0,
      "name": "Well_LP_Bucket_0"
    },
    {
      "mesh": 1,
      "name": "Well_LP_Well_0"
    },
    {
      "mesh": 2,
      "name": "Well_LP_rope_0"
    },
    {
      "mesh": 3,
      "name": "Well_LP_Roof_0"
    }
  ],
  "samplers": [
    {
      "magFilter": 9729,
      "minFilter": 9987,
      "wrapS": 10497,
      "wrapT": 10497
    }
  ],
  "scene": 0,
  "scenes": [
    {
      "name": "Sketchfab_Scene",
      "nodes": [
        0
      ]
    }
  ],
  "textures": [
    {
      "sampler": 0,
      "source": 0
    },
    {
      "sampler": 0,
      "source": 1
    },
    {
      "sampler": 0,
      "source": 2
    },
    {
      "sampler": 0,
      "source": 3
    },
    {
      "sampler": 0,
      "source": 4
    },
    {
      "sampler": 0,
      "source": 5
    },
    {
      "sampler": 0,
      "source": 6
    },
    {
      "sampler": 0,
      "source": 7
    },
    {
      "sampler": 0,
      "source": 8
    },
    {
      "sampler": 0,
      "source": 9
    },
    {
      "sampler": 0,
      "source": 10
    }
  ]
}
