{
  "accessors": [
    {
      "bufferView": 2,
      "componentType": 5126,
      "count": 527,
      "max": [
        12.861506462097168,
        0.6042919754981995,
        14.932737350463867
      ],
      "min": [
        -13.794173240661621,
        -0.6169099807739258,
        -6.794215202331543
      ],
      "type": "VEC3"
    },
    {
      "bufferView": 2,
      "byteOffset": 6324,
      "componentType": 5126,
      "count": 527,
      "max": [
        0.9999979734420776,
        0.9999312162399292,
        0.8971505761146545
      ],
      "min": [
        -0.9999979734420776,
        -0.9999312162399292,
        -0.9994569420814514
      ],
      "type": "VEC3"
    },
    {
      "bufferView": 1,
      "componentType": 5126,
      "count": 527,
      "max": [
        0.8958330154418945,
        1.0
      ],
      "min": [
        0.0,
        0.0
      ],
      "type": "VEC2"
    },
    {
      "bufferView": 0,
      "componentType": 5125,
      "count": 2202,
      "type": "SCALAR"
    },
    {
      "bufferView": 2,
      "byteOffset": 12648,
      "componentType": 5126,
      "count": 28,
      "max": [
        4.309423923492432,
        0.39607998728752136,
        14.594518661499023
      ],
      "min": [
        -5.163424015045166,
        -0.39607998728752136,
        -6.555620193481445
      ],
      "type": "VEC3"
    },
    {
      "bufferView": 2,
      "byteOffset": 12984,
      "componentType": 5126,
      "count": 28,
      "max": [
        0.5773502588272095,
        0.5773502588272095,
        0.5773502588272095
      ],
      "min": [
        -0.5773502588272095,
        -0.5773502588272095,
        -0.5773502588272095
      ],
      "type": "VEC3"
    },
    {
      "bufferView": 1,
      "byteOffset": 4216,
      "componentType": 5126,
      "count": 28,
      "max": [
        0.875,
        1.0
      ],
      "min": [
        0.125,
        0.0
      ],
      "type": "VEC2"
    },
    {
      "bufferView": 0,
      "byteOffset": 8808,
      "componentType": 5125,
      "count": 72,
      "type": "SCALAR"
    },
    {
      "bufferView": 2,
      "byteOffset": 13320,
      "componentType": 5126,
      "count": 1627,
      "max": [
        14.912519454956055,
        -0.048027001321315765,
        14.56919002532959
      ],
      "min": [
        -16.045257568359375,
        -28.623279571533203,
        -6.6201701164245605
      ],
      "type": "VEC3"
    },
    {
      "bufferView": 2,
      "byteOffset": 32844,
      "componentType": 5126,
      "count": 1627,
      "max": [
        0.9991211295127869,
        0.8589279651641846,
        0.8072285652160645
      ],
      "min": [
        -0.9991211295127869,
        -0.6930003762245178,
        -0.7534378170967102
      ],
      "type": "VEC3"
    },
    {
      "bufferView": 1,
      "byteOffset": 4440,
      "componentType": 5126,
      "count": 1627,
      "max": [
        1.0092350244522095,
        1.166538953781128
      ],
      "min": [
        0.0024759999942034483,
        -0.013547999784350395
      ],
      "type": "VEC2"
    },
    {
      "bufferView": 0,
      "byteOffset": 9096,
      "componentType": 5125,
      "count": 7788,
      "type": "SCALAR"
    },
    {
      "bufferView": 2,
      "byteOffset": 52368,
      "componentType": 5126,
      "count": 24,
      "max": [
        12.211297035217285,
        0.0,
        14.319785118103027
      ],
      "min": [
        -13.055987358093262,
        0.0,
        -6.297407150268555
      ],
      "type": "VEC3"
    },
    {
      "bufferView": 2,
      "byteOffset": 52656,
      "componentType": 5126,
      "count": 24,
      "max": [
        0.0,
        -1.0,
        -0.0
      ],
      "min": [
        0.0,
        -1.0,
        -0.0
      ],
      "type": "VEC3"
    },
    {
      "bufferView": 1,
      "byteOffset": 17456,
      "componentType": 5126,
      "count": 24,
      "max": [
        0.9911810159683228,
        0.9924330115318298
      ],
      "min": [
        0.011063000187277794,
        0.0035810000263154507
      ],
      "type": "VEC2"
    },
    {
      "bufferView": 0,
      "byteOffset": 40248,
      "componentType": 5125,
      "count": 36,
      "type": "SCALAR"
    },
    {
      "bufferView": 2,
      "byteOffset": 52944,
      "componentType": 5126,
      "count": 120,
      "max": [
        12.211297035217285,
        0.5600829720497131,
        14.319785118103027
      ],
      "min": [
        -13.055987358093262,
        0.10898900032043457,
        -6.297407150268555
      ],
      "type": "VEC3"
    },
    {
      "bufferView": 2,
      "byteOffset": 54384,
      "componentType": 5126,
      "count": 120,
      "max": [
        1.0,
        -0.0,
        1.0
      ],
      "min": [
        -1.0,
        -1.0,
        -1.0
      ],
      "type": "VEC3"
    },
    {
      "bufferView": 1,
      "byteOffset": 17648,
      "componentType": 5126,
      "count": 120,
      "max": [
        0.9911810159683228,
        0.9924330115318298
      ],
      "min": [
        0.011063000187277794,
        0.0035810000263154507
      ],
      "type": "VEC2"
    },
    {
      "bufferView": 0,
      "byteOffset": 40392,
      "componentType": 5125,
      "count": 180,
      "type": "SCALAR"
    }
  ],
  "asset": {
    "extras": {
      "author": "heartsinge (https://sketchfab.com/heartsinge)",
      "license": "CC-BY-4.0 (http://creativecommons.org/licenses/by/4.0/)",
      "source": "https://sketchfab.com/3d-models/jama-jam-november-glass-window-56c6bae4195f4ea0b406aca5e5b72c4a",
      "title": "Jama Jam November: Glass Window"
    },
    "generator": "Sketchfab-15.46.0",
    "version": "2.0"
  },
  "bufferViews": [
    {
      "buffer": 0,
      "byteLength": 41112,
      "name": "floatBufferViews",
      "target": 34963
    },
    {
      "buffer": 0,
      "byteLength": 18608,
      "byteOffset": 41112,
      "byteStride": 8,
      "name": "floatBufferViews",
      "target": 34962
    },
    {
      "buffer": 0,
      "byteLength": 55824,
      "byteOffset": 59720,
      "byteStride": 12,
      "name": "floatBufferViews",
      "target": 34962
    }
  ],
  "buffers": [
    {
      "byteLength": 115544,
      "uri": "scene.bin"
    }
  ],
  "extensionsUsed": [
    "KHR_materials_specular",
    "KHR_materials_emissive_strength"
  ],
  "images": [
    {
      "uri": "textures/Material.004_baseColor.png"
    },
    {
      "uri": "textures/Material.004_metallicRoughness.png"
    },
    {
      "uri": "textures/Material.004_specularf0.png"
    },
    {
      "uri": "textures/base_color_baseColor.png"
    },
    {
      "uri": "textures/base_color_metallicRoughness.png"
    },
    {
      "uri": "textures/base_color_emissive.png"
    },
    {
      "uri": "textures/base_color_specularf0.png"
    }
  ],
  "materials": [
    {
      "doubleSided": true,
      "extensions": {
        "KHR_materials_specular": {
          "specularColorFactor": [
            1.0,
            1.0,
            1.0
          ],
          "specularFactor": 0.0
        }
      },
      "name": "Material",
      "pbrMetallicRoughness": {
        "baseColorFactor": [
          0.0,
          0.0,
          0.0,
          1.0
        ],
        "metallicFactor": 0.0
      }
    },
    {
      "doubleSided": true,
      "extensions": {
        "KHR_materials_specular": {
          "specularColorFactor": [
            1.0,
            1.0,
            1.0
          ],
          "specularFactor": 1.0
        }
      },
      "name": "Material.001",
      "pbrMetallicRoughness": {
        "baseColorFactor": [
          0.0,
          0.0,
          0.0,
          1.0
        ],
        "metallicFactor": 0.9867104788901039,
        "roughnessFactor": 0.6
      }
    },
    {
      "alphaCutoff": 1.0,
      "alphaMode": "MASK",
      "doubleSided": true,
      "extensions": {
        "KHR_materials_specular": {
          "specularColorFactor": [
            1.0,
            1.0,
            1.0
          ],
          "specularFactor": 1.0,
          "specularTexture": {
            "index": 2
          }
        }
      },
      "name": "Material.004",
      "pbrMetallicRoughness": {
        "baseColorFactor": [
          0.17169138796253852,
          0.15820560310739268,
          0.07484458845946405,
          1.0
        ],
        "baseColorTexture": {
          "index": 0
        },
        "metallicRoughnessTexture": {
          "index": 1
        },
        "roughnessFactor": 0.27597958959258606
      }
    },
    {
      "alphaCutoff": 1.0,
      "alphaMode": "MASK",
      "emissiveFactor": [
        1.0,
        1.0,
        1.0
      ],
      "emissiveTexture": {
        "index": 5
      },
      "extensions": {
        "KHR_materials_emissive_strength": {
          "emissiveStrength": 1.1
        },
        "KHR_materials_specular": {
          "specularColorFactor": [
            1.0,
            1.0,
            1.0
          ],
          "specularFactor": 1.0,
          "specularTexture": {
            "index": 6
          }
        }
      },
      "name": "base_color",
      "occlusionTexture": {
        "index": 4
      },
      "pbrMetallicRoughness": {
        "baseColorTexture": {
          "index": 3
        },
        "metallicFactor": 0.736238553127539,
        "metallicRoughnessTexture": {
          "index": 4
        },
        "roughnessFactor": 0.516311984165287
      }
    },
    {
      "extensions": {
        "KHR_materials_specular": {
          "specularColorFactor": [
            1.0,
            1.0,
            1.0
          ],
          "specularFactor": 0.0
        }
      },
      "name": "base_color.002",
      "pbrMetallicRoughness": {
        "baseColorFactor": [
          0.11126267932502007,
          0.013399392796133768,
          0.002592078985590338,
          1.0
        ],
        "metallicFactor": 0.0,
        "roughnessFactor": 0.0
      }
    }
  ],
  "meshes": [
    {
      "name": "Object_0",
      "primitives": [
        {
          "attributes": {
            "NORMAL": 1,
            "POSITION": 0,
            "TEXCOORD_0": 2
          },
          "indices": 3,
          "material": 0,
          "mode": 4
        }
      ]
    },
    {
      "name": "Object_1",
      "primitives": [
        {
          "attributes": {
            "NORMAL": 5,
            "POSITION": 4,
            "TEXCOORD_0": 6
          },
          "indices": 7,
          "material": 1,
          "mode": 4
        }
      ]
    },
    {
      "name": "Object_2",
      "primitives": [
        {
          "attributes": {
            "NORMAL": 9,
            "POSITION": 8,
            "TEXCOORD_0": 10
          },
          "indices": 11,
          "material": 2,
          "mode": 4
        }
      ]
    },
    {
      "name": "Object_3",
      "primitives": [
        {
          "attributes": {
            "NORMAL": 13,
            "POSITION": 12,
            "TEXCOORD_0": 14
          },
          "indices": 15,
          "material": 3,
          "mode": 4
        }
      ]
    },
    {
      "name": "Object_4",
      "primitives": [
        {
          "attributes": {
            "NORMAL": 17,
            "POSITION": 16,
            "TEXCOORD_0": 18
          },
          "indices": 19,
          "material": 4,
          "mode": 4
        }
      ]
    }
  ],
  "nodes": [
    {
      "children": [
        1
      ],
      "matrix": [
        1.0,
        0.0,
        0.0,
        0.0,
        0.0,
        2.220446049250313e-16,
        -1.0,
        0.0,
        0.0,
        1.0,
        2.220446049250313e-16,
        0.0,
        0.0,
        0.0,
        0.0,
        1.0
      ],
      "name": "Sketchfab_model"
    },
    {
      "children": [
        2,
        3,
        4,
        5,
        6
      ],
      "name": "f54a251f61324c358beb259c267cc13c.obj.cleaner.materialmerger.gles"
    },
    {
      "mesh": 0,
      "name": "Object_2"
    },
    {
      "mesh": 1,
      "name": "Object_3"
    },
    {
      "mesh": 2,
      "name": "Object_4"
    },
    {
      "mesh": 3,
      "name": "Object_5"
    },
    {
      "mesh": 4,
      "name": "Object_6"
    }
  ],
  "samplers": [
    {
      "magFilter": 9729,
      "minFilter": 9987,
      "wrapS": 10497,
      "wrapT": 10497
    }
  ],
  "scene": 0,
  "scenes": [
    {
      "name": "Sketchfab_Scene",
      "nodes": [
        0
      ]
    }
  ],
  "textures": [
    {
      "sampler": 0,
      "source": 0
    },
    {
      "sampler": 0,
      "source": 1
    },
    {
      "sampler": 0,
      "source": 2
    },
    {
      "sampler": 0,
      "source": 3
    },
    {
      "sampler": 0,
      "source": 4
    },
    {
      "sampler": 0,
      "source": 5
    },
    {
      "sampler": 0,
      "source": 6
    }
  ]
}
