{
  "accessors": [
    {
      "bufferView": 2,
      "componentType": 5126,
      "count": 180,
      "max": [
        0.4105996787548065,
        0.5772663354873657,
        0.053166043013334274
      ],
      "min": [
        -0.4105996787548065,
        -0.5772663354873657,
        -2.0482266751398583e-15
      ],
      "type": "VEC3"
    },
    {
      "bufferView": 2,
      "byteOffset": 2160,
      "componentType": 5126,
      "count": 180,
      "max": [
        0.9855538010597229,
        0.9855496287345886,
        1.0
      ],
      "min": [
        -0.9855538010597229,
        -0.9855496287345886,
        -0.9965577125549316
      ],
      "type": "VEC3"
    },
    {
      "bufferView": 3,
      "componentType": 5126,
      "count": 180,
      "max": [
        1.0,
        0.6031261086463928,
        0.9855538010597229,
        1.0
      ],
      "min": [
        -0.9982654452323914,
        -0.998253345489502,
        -0.9855538010597229,
        1.0
      ],
      "type": "VEC4"
    },
    {
      "bufferView": 1,
      "componentType": 5126,
      "count": 180,
      "max": [
        0.9949126839637756,
        0.995479941368103
      ],
      "min": [
        0.005385488271713257,
        0.00566212460398674
      ],
      "type": "VEC2"
    },
    {
      "bufferView": 0,
      "componentType": 5125,
      "count": 462,
      "type": "SCALAR"
    }
  ],
  "asset": {
    "extras": {
      "author": "Anskar (https://sketchfab.com/Anskar)",
      "license": "CC-BY-4.0 (http://creativecommons.org/licenses/by/4.0/)",
      "source": "https://sketchfab.com/3d-models/old-portrait-of-witch-d794819d83594c4eb069ca31d4f214b4",
      "title": "Old Portrait of Witch"
    },
    "generator": "Sketchfab-15.8.0",
    "version": "2.0"
  },
  "bufferViews": [
    {
      "buffer": 0,
      "byteLength": 1848,
      "name": "floatBufferViews",
      "target": 34963
    },
    {
      "buffer": 0,
      "byteLength": 1440,
      "byteOffset": 1848,
      "byteStride": 8,
      "name": "floatBufferViews",
      "target": 34962
    },
    {
      "buffer": 0,
      "byteLength": 4320,
      "byteOffset": 3288,
      "byteStride": 12,
      "name": "floatBufferViews",
      "target": 34962
    },
    {
      "buffer": 0,
      "byteLength": 2880,
      "byteOffset": 7608,
      "byteStride": 16,
      "name": "floatBufferViews",
      "target": 34962
    }
  ],
  "buffers": [
    {
      "byteLength": 10488,
      "uri": "scene.bin"
    }
  ],
  "images": [
    {
      "uri": "textures/OldPortraitWitch_01_baseColor.png"
    },
    {
      "uri": "textures/OldPortraitWitch_01_metallicRoughness.png"
    },
    {
      "uri": "textures/OldPortraitWitch_01_normal.png"
    }
  ],
  "materials": [
    {
      "doubleSided": true,
      "name": "OldPortraitWitch_01",
      "normalTexture": {
        "index": 2
      },
      "occlusionTexture": {
        "index": 1
      },
      "pbrMetallicRoughness": {
        "baseColorTexture": {
          "index": 0
        },
        "metallicRoughnessTexture": {
          "index": 1
        }
      }
    }
  ],
  "meshes": [
    {
      "name": "Witch_01_Linum_low_OldPortraitWitch_01_0",
      "primitives": [
        {
          "attributes": {
            "NORMAL": 1,
            "POSITION": 0,
            "TANGENT": 2,
            "TEXCOORD_0": 3
          },
          "indices": 4,
          "material": 0,
          "mode": 4
        }
      ]
    }
  ],
  "nodes": [
    {
      "children": [
        1
      ],
      "matrix": [
        1.0,
        0.0,
        0.0,
        0.0,
        0.0,
        2.220446049250313e-16,
        -1.0,
        0.0,
        0.0,
        1.0,
        2.220446049250313e-16,
        0.0,
        0.0,
        0.0,
        0.0,
        1.0
      ],
      "name": "Sketchfab_model"
    },
    {
      "children": [
        2
      ],
      "matrix": [
        0.009999999776482582,
        0.0,
        0.0,
        0.0,
        0.0,
        0.0,
        0.009999999776482582,
        0.0,
        0.0,
        -0.009999999776482582,
        0.0,
        0.0,
        0.0,
        0.0,
        0.0,
        1.0
      ],
      "name": "d55e245a58454bfbab17edb2e7ca8ef8.fbx"
    },
    {
      "children": [
        3
      ],
      "name": "RootNode"
    },
    {
      "children": [
        4
      ],
      "matrix": [
        49.89215087890625,
        0.0,
        0.0,
        0.0,
        0.0,
        49.8921508789062,
        2.180855179528384e-06,
        0.0,
        0.0,
        -2.180855179528384e-06,
        49.8921508789062,
        0.0,
        0.0,
        0.0,
        0.0,
        1.0
      ],
      "name": "Witch_01_Linum_low"
    },
    {
      "mesh": 0,
      "name": "Witch_01_Linum_low_OldPortraitWitch_01_0"
    }
  ],
  "samplers": [
    {
      "magFilter": 9729,
      "minFilter": 9987,
      "wrapS": 10497,
      "wrapT": 10497
    }
  ],
  "scene": 0,
  "scenes": [
    {
      "name": "Sketchfab_Scene",
      "nodes": [
        0
      ]
    }
  ],
  "textures": [
    {
      "sampler": 0,
      "source": 0
    },
    {
      "sampler": 0,
      "source": 1
    },
    {
      "sampler": 0,
      "source": 2
    }
  ]
}
