{
  "accessors": [
    {
      "bufferView": 2,
      "componentType": 5126,
      "count": 938,
      "max": [
        3.1106033325195313,
        7.648810386657715,
        2.3736891746520996
      ],
      "min": [
        -1.1910103559494019,
        -0.023489773273468018,
        -1.5727075338363647
      ],
      "type": "VEC3"
    },
    {
      "bufferView": 2,
      "byteOffset": 11256,
      "componentType": 5126,
      "count": 938,
      "max": [
        0.9987674951553345,
        0.9962778687477112,
        0.9974638223648071
      ],
      "min": [
        -0.998883843421936,
        -0.9999999403953552,
        -0.9953567385673523
      ],
      "type": "VEC3"
    },
    {
      "bufferView": 3,
      "componentType": 5126,
      "count": 938,
      "max": [
        0.9986457228660583,
        0.982574999332428,
        0.9995917081832886,
        1.0
      ],
      "min": [
        -0.9978153705596924,
        -0.9999517798423767,
        -0.9975020885467529,
        -1.0
      ],
      "type": "VEC4"
    },
    {
      "bufferView": 1,
      "componentType": 5126,
      "count": 938,
      "max": [
        0.9934750199317932,
        0.9923350214958191
      ],
      "min": [
        0.0031950001139193773,
        0.0031950001139193773
      ],
      "type": "VEC2"
    },
    {
      "bufferView": 0,
      "componentType": 5125,
      "count": 4398,
      "type": "SCALAR"
    }
  ],
  "asset": {
    "extras": {
      "author": "fly4xy (https://sketchfab.com/4xy)",
      "license": "CC-BY-4.0 (http://creativecommons.org/licenses/by/4.0/)",
      "source": "https://sketchfab.com/3d-models/dummy-f0cdcbaf4e904832b7489f6106418f26",
      "title": "Dummy"
    },
    "generator": "Sketchfab-16.53.0",
    "version": "2.0"
  },
  "bufferViews": [
    {
      "buffer": 0,
      "byteLength": 17592,
      "name": "floatBufferViews",
      "target": 34963
    },
    {
      "buffer": 0,
      "byteLength": 7504,
      "byteOffset": 17592,
      "byteStride": 8,
      "name": "floatBufferViews",
      "target": 34962
    },
    {
      "buffer": 0,
      "byteLength": 22512,
      "byteOffset": 25096,
      "byteStride": 12,
      "name": "floatBufferViews",
      "target": 34962
    },
    {
      "buffer": 0,
      "byteLength": 15008,
      "byteOffset": 47608,
      "byteStride": 16,
      "name": "floatBufferViews",
      "target": 34962
    }
  ],
  "buffers": [
    {
      "byteLength": 62616,
      "uri": "scene.bin"
    }
  ],
  "images": [
    {
      "uri": "textures/Dummy_baseColor.jpeg"
    },
    {
      "uri": "textures/Dummy_metallicRoughness.png"
    },
    {
      "uri": "textures/Dummy_normal.jpeg"
    }
  ],
  "materials": [
    {
      "name": "Dummy",
      "normalTexture": {
        "index": 2
      },
      "occlusionTexture": {
        "index": 1
      },
      "pbrMetallicRoughness": {
        "baseColorTexture": {
          "index": 0
        },
        "metallicRoughnessTexture": {
          "index": 1
        }
      }
    }
  ],
  "meshes": [
    {
      "name": "Dummy_Dummy_0",
      "primitives": [
        {
          "attributes": {
            "NORMAL": 1,
            "POSITION": 0,
            "TANGENT": 2,
            "TEXCOORD_0": 3
          },
          "indices": 4,
          "material": 0,
          "mode": 4
        }
      ]
    }
  ],
  "nodes": [
    {
      "children": [
        1
      ],
      "matrix": [
        1.0,
        2.8327693431939985e-16,
        1.60812262295773e-16,
        0.0,
        -1.6081226229577292e-16,
        -2.2204460492503136e-16,
        1.0,
        0.0,
        2.832769343193999e-16,
        -1.0,
        -2.220446049250313e-16,
        0.0,
        0.0,
        0.0,
        0.0,
        1.0
      ],
      "name": "Sketchfab_model"
    },
    {
      "children": [
        2
      ],
      "matrix": [
        1.0,
        0.0,
        0.0,
        0.0,
        0.0,
        -1.0,
        0.0,
        0.0,
        0.0,
        0.0,
        -1.0,
        0.0,
        0.0,
        0.0,
        0.0,
        1.0
      ],
      "name": "7bbe3adbd0dd48868a887c9084f16005.fbx"
    },
    {
      "children": [
        3
      ],
      "name": "RootNode"
    },
    {
      "children": [
        4
      ],
      "matrix": [
        1.0,
        0.0,
        0.0,
        0.0,
        0.0,
        2.220446049250313e-16,
        1.0,
        0.0,
        0.0,
        -1.0,
        2.220446049250313e-16,
        0.0,
        0.0,
        0.0,
        0.0,
        1.0
      ],
      "name": "Dummy"
    },
    {
      "mesh": 0,
      "name": "Dummy_Dummy_0"
    }
  ],
  "samplers": [
    {
      "magFilter": 9729,
      "minFilter": 9987,
      "wrapS": 10497,
      "wrapT": 10497
    }
  ],
  "scene": 0,
  "scenes": [
    {
      "name": "Sketchfab_Scene",
      "nodes": [
        0
      ]
    }
  ],
  "textures": [
    {
      "sampler": 0,
      "source": 0
    },
    {
      "sampler": 0,
      "source": 1
    },
    {
      "sampler": 0,
      "source": 2
    }
  ]
}
