{
  "accessors": [
    {
      "bufferView": 2,
      "componentType": 5126,
      "count": 7119,
      "max": [
        136.05596923828125,
        939.2568359375,
        99.97149658203125
      ],
      "min": [
        -136.05596923828125,
        -16.482173919677734,
        -118.42359924316406
      ],
      "type": "VEC3"
    },
    {
      "bufferView": 2,
      "byteOffset": 85428,
      "componentType": 5126,
      "count": 7119,
      "max": [
        1.0,
        1.0,
        1.0
      ],
      "min": [
        -1.0,
        -1.0,
        -1.0
      ],
      "type": "VEC3"
    },
    {
      "bufferView": 3,
      "componentType": 5126,
      "count": 7119,
      "max": [
        1.0,
        1.0,
        1.0,
        1.0
      ],
      "min": [
        -1.0,
        -1.0,
        -1.0,
        -1.0
      ],
      "type": "VEC4"
    },
    {
      "bufferView": 1,
      "componentType": 5126,
      "count": 7119,
      "max": [
        0.9912712574005127,
        0.9814790487289429
      ],
      "min": [
        0.00979626178741455,
        0.016732215881347656
      ],
      "type": "VEC2"
    },
    {
      "bufferView": 1,
      "byteOffset": 56952,
      "componentType": 5126,
      "count": 7119,
      "max": [
        0.9912712574005127,
        0.9814790487289429
      ],
      "min": [
        0.00979626178741455,
        0.016732215881347656
      ],
      "type": "VEC2"
    },
    {
      "bufferView": 1,
      "byteOffset": 113904,
      "componentType": 5126,
      "count": 7119,
      "max": [
        0.9912712574005127,
        0.9814790487289429
      ],
      "min": [
        0.00979626178741455,
        0.016732215881347656
      ],
      "type": "VEC2"
    },
    {
      "bufferView": 1,
      "byteOffset": 170856,
      "componentType": 5126,
      "count": 7119,
      "max": [
        0.9912712574005127,
        0.9814790487289429
      ],
      "min": [
        0.00979626178741455,
        0.016732215881347656
      ],
      "type": "VEC2"
    },
    {
      "bufferView": 0,
      "componentType": 5125,
      "count": 22146,
      "type": "SCALAR"
    }
  ],
  "asset": {
    "extras": {
      "author": "Arkikon (https://sketchfab.com/ragnar)",
      "license": "CC-BY-4.0 (http://creativecommons.org/licenses/by/4.0/)",
      "source": "https://sketchfab.com/3d-models/old-stove-af6ed173a96445088a6c5a6f0fd7220b",
      "title": "Old Stove"
    },
    "generator": "Sketchfab-12.68.0",
    "version": "2.0"
  },
  "bufferViews": [
    {
      "buffer": 0,
      "byteLength": 88584,
      "name": "floatBufferViews",
      "target": 34963
    },
    {
      "buffer": 0,
      "byteLength": 227808,
      "byteOffset": 88584,
      "byteStride": 8,
      "name": "floatBufferViews",
      "target": 34962
    },
    {
      "buffer": 0,
      "byteLength": 170856,
      "byteOffset": 316392,
      "byteStride": 12,
      "name": "floatBufferViews",
      "target": 34962
    },
    {
      "buffer": 0,
      "byteLength": 113904,
      "byteOffset": 487248,
      "byteStride": 16,
      "name": "floatBufferViews",
      "target": 34962
    }
  ],
  "buffers": [
    {
      "byteLength": 601152,
      "uri": "scene.bin"
    }
  ],
  "images": [
    {
      "uri": "textures/StoveMAT_baseColor.jpeg"
    },
    {
      "uri": "textures/StoveMAT_metallicRoughness.png"
    },
    {
      "uri": "textures/StoveMAT_emissive.jpeg"
    },
    {
      "uri": "textures/StoveMAT_normal.png"
    }
  ],
  "materials": [
    {
      "doubleSided": true,
      "emissiveFactor": [
        1.0,
        1.0,
        1.0
      ],
      "emissiveTexture": {
        "index": 2
      },
      "name": "StoveMAT",
      "normalTexture": {
        "index": 3
      },
      "pbrMetallicRoughness": {
        "baseColorTexture": {
          "index": 0
        },
        "metallicRoughnessTexture": {
          "index": 1
        },
        "roughnessFactor": 0.7678118672819803
      }
    }
  ],
  "meshes": [
    {
      "name": "Stove_StoveMAT_0",
      "primitives": [
        {
          "attributes": {
            "NORMAL": 1,
            "POSITION": 0,
            "TANGENT": 2,
            "TEXCOORD_0": 3,
            "TEXCOORD_1": 4,
            "TEXCOORD_2": 5,
            "TEXCOORD_3": 6
          },
          "indices": 7,
          "material": 0,
          "mode": 4
        }
      ]
    }
  ],
  "nodes": [
    {
      "children": [
        1
      ],
      "matrix": [
        1.0,
        0.0,
        0.0,
        0.0,
        0.0,
        2.220446049250313e-16,
        -1.0,
        0.0,
        0.0,
        1.0,
        2.220446049250313e-16,
        0.0,
        0.0,
        0.0,
        0.0,
        1.0
      ],
      "name": "Sketchfab_model"
    },
    {
      "children": [
        2
      ],
      "matrix": [
        0.009999999776482582,
        0.0,
        0.0,
        0.0,
        0.0,
        0.0,
        0.009999999776482582,
        0.0,
        0.0,
        -0.009999999776482582,
        0.0,
        0.0,
        0.0,
        0.0,
        0.0,
        1.0
      ],
      "name": "Stove_fbx.fbx"
    },
    {
      "children": [
        3
      ],
      "name": "RootNode"
    },
    {
      "children": [
        4
      ],
      "name": "Stove"
    },
    {
      "mesh": 0,
      "name": "Stove_StoveMAT_0"
    }
  ],
  "samplers": [
    {
      "magFilter": 9729,
      "minFilter": 9987,
      "wrapS": 10497,
      "wrapT": 10497
    }
  ],
  "scene": 0,
  "scenes": [
    {
      "name": "Sketchfab_Scene",
      "nodes": [
        0
      ]
    }
  ],
  "textures": [
    {
      "sampler": 0,
      "source": 0
    },
    {
      "sampler": 0,
      "source": 1
    },
    {
      "sampler": 0,
      "source": 2
    },
    {
      "sampler": 0,
      "source": 3
    }
  ]
}
