{
  "accessors": [
    {
      "bufferView": 2,
      "componentType": 5126,
      "count": 29568,
      "max": [
        1.8766908645629883,
        19.36628532409668,
        15.023453712463379
      ],
      "min": [
        0.0,
        0.0,
        -0.022352218627929688
      ],
      "type": "VEC3"
    },
    {
      "bufferView": 2,
      "byteOffset": 354816,
      "componentType": 5126,
      "count": 29568,
      "max": [
        0.9831218719482422,
        1.0,
        1.0
      ],
      "min": [
        -1.0,
        -1.0,
        -1.0
      ],
      "type": "VEC3"
    },
    {
      "bufferView": 3,
      "componentType": 5126,
      "count": 29568,
      "max": [
        1.0,
        1.0,
        1.0,
        1.0
      ],
      "min": [
        -1.0,
        -0.9938071370124817,
        -0.9928619265556335,
        1.0
      ],
      "type": "VEC4"
    },
    {
      "bufferView": 1,
      "componentType": 5126,
      "count": 29568,
      "max": [
        0.994331419467926,
        0.999978244304657
      ],
      "min": [
        2.1715921320719644e-05,
        2.1672240109182894e-05
      ],
      "type": "VEC2"
    },
    {
      "bufferView": 0,
      "componentType": 5125,
      "count": 63756,
      "type": "SCALAR"
    },
    {
      "bufferView": 2,
      "byteOffset": 709632,
      "componentType": 5126,
      "count": 4078,
      "max": [
        0.5076914429664612,
        2.7478747367858887,
        3.2882795333862305
      ],
      "min": [
        -0.061525702476501465,
        -0.06206846237182617,
        0.0
      ],
      "type": "VEC3"
    },
    {
      "bufferView": 2,
      "byteOffset": 758568,
      "componentType": 5126,
      "count": 4078,
      "max": [
        1.0,
        1.0,
        1.0
      ],
      "min": [
        -1.0,
        -1.0,
        -1.0
      ],
      "type": "VEC3"
    },
    {
      "bufferView": 3,
      "byteOffset": 473088,
      "componentType": 5126,
      "count": 4078,
      "max": [
        1.0,
        1.0,
        1.0,
        1.0
      ],
      "min": [
        -1.0,
        -1.0,
        -1.0,
        -1.0
      ],
      "type": "VEC4"
    },
    {
      "bufferView": 1,
      "byteOffset": 236544,
      "componentType": 5126,
      "count": 4078,
      "max": [
        0.9759156703948975,
        1.0000001192092896
      ],
      "min": [
        -7.340140051326216e-09,
        -5.872112041060973e-08
      ],
      "type": "VEC2"
    },
    {
      "bufferView": 0,
      "byteOffset": 255024,
      "componentType": 5125,
      "count": 6618,
      "type": "SCALAR"
    }
  ],
  "asset": {
    "extras": {
      "author": "kEam (https://sketchfab.com/keam.wf)",
      "license": "CC-BY-4.0 (http://creativecommons.org/licenses/by/4.0/)",
      "source": "https://sketchfab.com/3d-models/wooden-book-shelf-low-poly-game-ready-4520493dab504eb2ac0d4d64848d0878",
      "title": "Wooden Book Shelf | Low-Poly | Game-ready"
    },
    "generator": "Sketchfab-16.65.0",
    "version": "2.0"
  },
  "bufferViews": [
    {
      "buffer": 0,
      "byteLength": 281496,
      "name": "floatBufferViews",
      "target": 34963
    },
    {
      "buffer": 0,
      "byteLength": 269168,
      "byteOffset": 281496,
      "byteStride": 8,
      "name": "floatBufferViews",
      "target": 34962
    },
    {
      "buffer": 0,
      "byteLength": 807504,
      "byteOffset": 550664,
      "byteStride": 12,
      "name": "floatBufferViews",
      "target": 34962
    },
    {
      "buffer": 0,
      "byteLength": 538336,
      "byteOffset": 1358168,
      "byteStride": 16,
      "name": "floatBufferViews",
      "target": 34962
    }
  ],
  "buffers": [
    {
      "byteLength": 1896504,
      "uri": "scene.bin"
    }
  ],
  "images": [
    {
      "uri": "textures/Books_baseColor.png"
    },
    {
      "uri": "textures/Books_metallicRoughness.png"
    },
    {
      "uri": "textures/Books_normal.png"
    },
    {
      "uri": "textures/Shelf_baseColor.png"
    },
    {
      "uri": "textures/Shelf_metallicRoughness.png"
    },
    {
      "uri": "textures/Shelf_normal.png"
    }
  ],
  "materials": [
    {
      "doubleSided": true,
      "name": "Books",
      "normalTexture": {
        "index": 2
      },
      "occlusionTexture": {
        "index": 1
      },
      "pbrMetallicRoughness": {
        "baseColorTexture": {
          "index": 0
        },
        "metallicRoughnessTexture": {
          "index": 1
        }
      }
    },
    {
      "doubleSided": true,
      "name": "Shelf",
      "normalTexture": {
        "index": 5
      },
      "occlusionTexture": {
        "index": 4
      },
      "pbrMetallicRoughness": {
        "baseColorTexture": {
          "index": 3
        },
        "metallicFactor": 0.0,
        "metallicRoughnessTexture": {
          "index": 4
        }
      }
    }
  ],
  "meshes": [
    {
      "name": "book_Books_0",
      "primitives": [
        {
          "attributes": {
            "NORMAL": 1,
            "POSITION": 0,
            "TANGENT": 2,
            "TEXCOORD_0": 3
          },
          "indices": 4,
          "material": 0,
          "mode": 4
        }
      ]
    },
    {
      "name": "shelf_Shelf_0",
      "primitives": [
        {
          "attributes": {
            "NORMAL": 6,
            "POSITION": 5,
            "TANGENT": 7,
            "TEXCOORD_0": 8
          },
          "indices": 9,
          "material": 1,
          "mode": 4
        }
      ]
    }
  ],
  "nodes": [
    {
      "children": [
        1
      ],
      "matrix": [
        1.0,
        0.0,
        0.0,
        0.0,
        0.0,
        2.220446049250313e-16,
        -1.0,
        0.0,
        0.0,
        1.0,
        2.220446049250313e-16,
        0.0,
        0.0,
        0.0,
        0.0,
        1.0
      ],
      "name": "Sketchfab_model"
    },
    {
      "children": [
        2
      ],
      "matrix": [
        0.009999999776482582,
        0.0,
        0.0,
        0.0,
        0.0,
        0.0,
        0.009999999776482582,
        0.0,
        0.0,
        -0.009999999776482582,
        0.0,
        0.0,
        0.0,
        0.0,
        0.0,
        1.0
      ],
      "name": "e42d238557fa435691678dfc49b721aa.fbx"
    },
    {
      "children": [
        3,
        5
      ],
      "name": "RootNode"
    },
    {
      "children": [
        4
      ],
      "matrix": [
        13.175189971923828,
        0.0,
        0.0,
        0.0,
        0.0,
        -2.1465109013422743e-06,
        -13.175189971923654,
        0.0,
        0.0,
        13.175189971923654,
        -2.1465109013422743e-06,
        0.0,
        7.854987621307373,
        46.96443557739258,
        -6.174369812011719,
        1.0
      ],
      "name": "book"
    },
    {
      "mesh": 0,
      "name": "book_Books_0"
    },
    {
      "children": [
        6
      ],
      "matrix": [
        100.0,
        0.0,
        0.0,
        0.0,
        0.0,
        -1.629206793918314e-05,
        -99.99999999999868,
        0.0,
        0.0,
        99.99999999999868,
        -1.629206793918314e-05,
        0.0,
        0.0,
        0.0,
        0.0,
        1.0
      ],
      "name": "shelf"
    },
    {
      "mesh": 1,
      "name": "shelf_Shelf_0"
    }
  ],
  "samplers": [
    {
      "magFilter": 9729,
      "minFilter": 9987,
      "wrapS": 10497,
      "wrapT": 10497
    }
  ],
  "scene": 0,
  "scenes": [
    {
      "name": "Sketchfab_Scene",
      "nodes": [
        0
      ]
    }
  ],
  "textures": [
    {
      "sampler": 0,
      "source": 0
    },
    {
      "sampler": 0,
      "source": 1
    },
    {
      "sampler": 0,
      "source": 2
    },
    {
      "sampler": 0,
      "source": 3
    },
    {
      "sampler": 0,
      "source": 4
    },
    {
      "sampler": 0,
      "source": 5
    }
  ]
}
