{
  "accessors": [
    {
      "bufferView": 2,
      "componentType": 5126,
      "count": 4794,
      "max": [
        5.6884613037109375,
        23.52888298034668,
        36.837772369384766
      ],
      "min": [
        -5.688462257385254,
        -5.258456230163574,
        13.325185775756836
      ],
      "type": "VEC3"
    },
    {
      "bufferView": 2,
      "byteOffset": 57528,
      "componentType": 5126,
      "count": 4794,
      "max": [
        1.0,
        1.0,
        1.0
      ],
      "min": [
        -1.0,
        -1.0,
        -1.0
      ],
      "type": "VEC3"
    },
    {
      "bufferView": 3,
      "componentType": 5126,
      "count": 4794,
      "max": [
        1.0,
        1.0,
        1.0,
        1.0
      ],
      "min": [
        -0.9999998211860657,
        -1.0,
        -1.0,
        -1.0
      ],
      "type": "VEC4"
    },
    {
      "bufferView": 1,
      "componentType": 5126,
      "count": 4794,
      "max": [
        0.9989400506019592,
        0.9747818112373352
      ],
      "min": [
        0.0,
        -2.280524402133166e-15
      ],
      "type": "VEC2"
    },
    {
      "bufferView": 0,
      "componentType": 5125,
      "count": 14160,
      "type": "SCALAR"
    },
    {
      "bufferView": 2,
      "byteOffset": 115056,
      "componentType": 5126,
      "count": 1398,
      "max": [
        7.848282337188721,
        24.47637367248535,
        36.53779602050781
      ],
      "min": [
        -7.848282814025879,
        -0.3007288873195648,
        12.383886337280273
      ],
      "type": "VEC3"
    },
    {
      "bufferView": 2,
      "byteOffset": 131832,
      "componentType": 5126,
      "count": 1398,
      "max": [
        1.0,
        1.0,
        1.0
      ],
      "min": [
        -1.0,
        -1.0,
        -1.0
      ],
      "type": "VEC3"
    },
    {
      "bufferView": 3,
      "byteOffset": 76704,
      "componentType": 5126,
      "count": 1398,
      "max": [
        1.0,
        1.0,
        1.0,
        1.0
      ],
      "min": [
        -0.9960953593254089,
        -1.0,
        -1.0,
        1.0
      ],
      "type": "VEC4"
    },
    {
      "bufferView": 1,
      "byteOffset": 38352,
      "componentType": 5126,
      "count": 1398,
      "max": [
        0.9939887523651123,
        0.9788804054260254
      ],
      "min": [
        0.0,
        8.158217679010704e-05
      ],
      "type": "VEC2"
    },
    {
      "bufferView": 0,
      "byteOffset": 56640,
      "componentType": 5125,
      "count": 4320,
      "type": "SCALAR"
    },
    {
      "bufferView": 2,
      "byteOffset": 148608,
      "componentType": 5126,
      "count": 42,
      "max": [
        2.684342384338379,
        21.9659366607666,
        36.67525100708008
      ],
      "min": [
        -2.6843438148498535,
        0.05406928062438965,
        14.864341735839844
      ],
      "type": "VEC3"
    },
    {
      "bufferView": 2,
      "byteOffset": 149112,
      "componentType": 5126,
      "count": 42,
      "max": [
        0.0,
        0.7073619961738586,
        0.7071073651313782
      ],
      "min": [
        -0.001642951974645257,
        -0.7071079611778259,
        -0.7068726420402527
      ],
      "type": "VEC3"
    },
    {
      "bufferView": 3,
      "byteOffset": 99072,
      "componentType": 5126,
      "count": 42,
      "max": [
        0.9999987483024597,
        0.7071073651313782,
        0.7071079015731812,
        1.0
      ],
      "min": [
        -6.089578619139502e-06,
        0.0011364241363480687,
        -0.0011617345735430717,
        1.0
      ],
      "type": "VEC4"
    },
    {
      "bufferView": 1,
      "byteOffset": 49536,
      "componentType": 5126,
      "count": 42,
      "max": [
        0.5345683693885803,
        0.4824484884738922
      ],
      "min": [
        0.08427095413208008,
        8.367021655431017e-05
      ],
      "type": "VEC2"
    },
    {
      "bufferView": 0,
      "byteOffset": 73920,
      "componentType": 5125,
      "count": 120,
      "type": "SCALAR"
    },
    {
      "bufferView": 2,
      "byteOffset": 149616,
      "componentType": 5126,
      "count": 314,
      "max": [
        3.5149600505828857,
        13.597688674926758,
        25.85795021057129
      ],
      "min": [
        -3.5149600505828857,
        5.46105432510376,
        24.85795021057129
      ],
      "type": "VEC3"
    },
    {
      "bufferView": 2,
      "byteOffset": 153384,
      "componentType": 5126,
      "count": 314,
      "max": [
        1.0,
        1.0,
        1.0
      ],
      "min": [
        -1.0,
        -1.0,
        -1.0
      ],
      "type": "VEC3"
    },
    {
      "bufferView": 3,
      "byteOffset": 99744,
      "componentType": 5126,
      "count": 314,
      "max": [
        1.0,
        1.0,
        1.0,
        1.0
      ],
      "min": [
        -2.49598224033587e-11,
        -1.0,
        -1.0,
        1.0
      ],
      "type": "VEC4"
    },
    {
      "bufferView": 1,
      "byteOffset": 49872,
      "componentType": 5126,
      "count": 314,
      "max": [
        1.0,
        0.9920610189437866
      ],
      "min": [
        0.08427095413208008,
        8.447027357760817e-05
      ],
      "type": "VEC2"
    },
    {
      "bufferView": 0,
      "byteOffset": 74400,
      "componentType": 5125,
      "count": 888,
      "type": "SCALAR"
    }
  ],
  "asset": {
    "extras": {
      "author": "Reu (https://sketchfab.com/Speareu)",
      "license": "CC-BY-4.0 (http://creativecommons.org/licenses/by/4.0/)",
      "source": "https://sketchfab.com/3d-models/the-telescope-of-dreams-1ce1d30921b54665a712dc0b97e99524",
      "title": "The telescope of dreams"
    },
    "generator": "Sketchfab-15.30.0",
    "version": "2.0"
  },
  "bufferViews": [
    {
      "buffer": 0,
      "byteLength": 77952,
      "name": "floatBufferViews",
      "target": 34963
    },
    {
      "buffer": 0,
      "byteLength": 52384,
      "byteOffset": 77952,
      "byteStride": 8,
      "name": "floatBufferViews",
      "target": 34962
    },
    {
      "buffer": 0,
      "byteLength": 157152,
      "byteOffset": 130336,
      "byteStride": 12,
      "name": "floatBufferViews",
      "target": 34962
    },
    {
      "buffer": 0,
      "byteLength": 104768,
      "byteOffset": 287488,
      "byteStride": 16,
      "name": "floatBufferViews",
      "target": 34962
    }
  ],
  "buffers": [
    {
      "byteLength": 392256,
      "uri": "scene.bin"
    }
  ],
  "extensionsUsed": [
    "KHR_materials_transmission"
  ],
  "images": [
    {
      "uri": "textures/Gold_baseColor.png"
    },
    {
      "uri": "textures/Gold_metallicRoughness.png"
    },
    {
      "uri": "textures/Gold_normal.png"
    },
    {
      "uri": "textures/Wood_baseColor.png"
    },
    {
      "uri": "textures/Wood_metallicRoughness.png"
    },
    {
      "uri": "textures/Wood_normal.png"
    },
    {
      "uri": "textures/glass_baseColor.png"
    },
    {
      "uri": "textures/glass_metallicRoughness.png"
    },
    {
      "uri": "textures/glass_normal.png"
    },
    {
      "uri": "textures/lambert1_baseColor.png"
    },
    {
      "uri": "textures/lambert1_metallicRoughness.png"
    },
    {
      "uri": "textures/lambert1_normal.png"
    }
  ],
  "materials": [
    {
      "doubleSided": true,
      "name": "Gold",
      "normalTexture": {
        "index": 2
      },
      "pbrMetallicRoughness": {
        "baseColorTexture": {
          "index": 0
        },
        "metallicRoughnessTexture": {
          "index": 1
        }
      }
    },
    {
      "doubleSided": true,
      "name": "Wood",
      "normalTexture": {
        "index": 5
      },
      "pbrMetallicRoughness": {
        "baseColorTexture": {
          "index": 3
        },
        "metallicRoughnessTexture": {
          "index": 4
        }
      }
    },
    {
      "alphaMode": "BLEND",
      "doubleSided": true,
      "extensions": {
        "KHR_materials_transmission": {
          "transmissionFactor": 0.06285428679401694
        }
      },
      "name": "glass",
      "normalTexture": {
        "index": 8
      },
      "pbrMetallicRoughness": {
        "baseColorFactor": [
          1.0,
          1.0,
          1.0,
          0.937145713205983
        ],
        "baseColorTexture": {
          "index": 6
        },
        "metallicRoughnessTexture": {
          "index": 7
        }
      }
    },
    {
      "doubleSided": true,
      "name": "lambert1",
      "normalTexture": {
        "index": 11
      },
      "pbrMetallicRoughness": {
        "baseColorTexture": {
          "index": 9
        },
        "metallicRoughnessTexture": {
          "index": 10
        }
      }
    }
  ],
  "meshes": [
    {
      "name": "pCube19_Gold_0",
      "primitives": [
        {
          "attributes": {
            "NORMAL": 1,
            "POSITION": 0,
            "TANGENT": 2,
            "TEXCOORD_0": 3
          },
          "indices": 4,
          "material": 0,
          "mode": 4
        }
      ]
    },
    {
      "name": "pCube19_Wood_0",
      "primitives": [
        {
          "attributes": {
            "NORMAL": 6,
            "POSITION": 5,
            "TANGENT": 7,
            "TEXCOORD_0": 8
          },
          "indices": 9,
          "material": 1,
          "mode": 4
        }
      ]
    },
    {
      "name": "pCube19_glass_0",
      "primitives": [
        {
          "attributes": {
            "NORMAL": 11,
            "POSITION": 10,
            "TANGENT": 12,
            "TEXCOORD_0": 13
          },
          "indices": 14,
          "material": 2,
          "mode": 4
        }
      ]
    },
    {
      "name": "pCube19_lambert1_0",
      "primitives": [
        {
          "attributes": {
            "NORMAL": 16,
            "POSITION": 15,
            "TANGENT": 17,
            "TEXCOORD_0": 18
          },
          "indices": 19,
          "material": 3,
          "mode": 4
        }
      ]
    }
  ],
  "nodes": [
    {
      "children": [
        1
      ],
      "matrix": [
        1.0,
        0.0,
        0.0,
        0.0,
        0.0,
        2.220446049250313e-16,
        -1.0,
        0.0,
        0.0,
        1.0,
        2.220446049250313e-16,
        0.0,
        0.0,
        0.0,
        0.0,
        1.0
      ],
      "name": "Sketchfab_model"
    },
    {
      "children": [
        2
      ],
      "matrix": [
        0.009999999776482582,
        0.0,
        0.0,
        0.0,
        0.0,
        0.0,
        0.009999999776482582,
        0.0,
        0.0,
        -0.009999999776482582,
        0.0,
        0.0,
        0.0,
        0.0,
        0.0,
        1.0
      ],
      "name": "ed0a2a52b42144c9a891560a9177c82d.fbx"
    },
    {
      "children": [
        3
      ],
      "name": "RootNode"
    },
    {
      "children": [
        4,
        5,
        6,
        7
      ],
      "name": "pCube19"
    },
    {
      "mesh": 0,
      "name": "pCube19_Gold_0"
    },
    {
      "mesh": 1,
      "name": "pCube19_Wood_0"
    },
    {
      "mesh": 2,
      "name": "pCube19_glass_0"
    },
    {
      "mesh": 3,
      "name": "pCube19_lambert1_0"
    }
  ],
  "samplers": [
    {
      "magFilter": 9729,
      "minFilter": 9987,
      "wrapS": 10497,
      "wrapT": 10497
    }
  ],
  "scene": 0,
  "scenes": [
    {
      "name": "Sketchfab_Scene",
      "nodes": [
        0
      ]
    }
  ],
  "textures": [
    {
      "sampler": 0,
      "source": 0
    },
    {
      "sampler": 0,
      "source": 1
    },
    {
      "sampler": 0,
      "source": 2
    },
    {
      "sampler": 0,
      "source": 3
    },
    {
      "sampler": 0,
      "source": 4
    },
    {
      "sampler": 0,
      "source": 5
    },
    {
      "sampler": 0,
      "source": 6
    },
    {
      "sampler": 0,
      "source": 7
    },
    {
      "sampler": 0,
      "source": 8
    },
    {
      "sampler": 0,
      "source": 9
    },
    {
      "sampler": 0,
      "source": 10
    },
    {
      "sampler": 0,
      "source": 11
    }
  ]
}
