{
  "accessors": [
    {
      "bufferView": 2,
      "componentType": 5126,
      "count": 65532,
      "max": [
        192.63412475585938,
        233.73947143554688,
        597.554931640625
      ],
      "min": [
        -130.96163940429688,
        -105.32780456542969,
        52.49822998046875
      ],
      "type": "VEC3"
    },
    {
      "bufferView": 2,
      "byteOffset": 786384,
      "componentType": 5126,
      "count": 65532,
      "max": [
        0.999995768070221,
        0.9997459053993225,
        0.9998824596405029
      ],
      "min": [
        -0.996324896812439,
        -0.9999956488609314,
        -0.9999833703041077
      ],
      "type": "VEC3"
    },
    {
      "bufferView": 1,
      "componentType": 5126,
      "count": 65532,
      "max": [
        0.9631180167198181,
        0.9978029727935791
      ],
      "min": [
        0.002196999965235591,
        0.005537999793887138
      ],
      "type": "VEC2"
    },
    {
      "bufferView": 0,
      "componentType": 5125,
      "count": 366816,
      "type": "SCALAR"
    },
    {
      "bufferView": 2,
      "byteOffset": 1572768,
      "componentType": 5126,
      "count": 65532,
      "max": [
        220.05677795410156,
        553.83935546875,
        414.2768859863281
      ],
      "min": [
        -171.06134033203125,
        -104.87315368652344,
        -739.361083984375
      ],
      "type": "VEC3"
    },
    {
      "bufferView": 2,
      "byteOffset": 2359152,
      "componentType": 5126,
      "count": 65532,
      "max": [
        0.9998335838317871,
        0.9999544620513916,
        0.9981335401535034
      ],
      "min": [
        -0.999883234500885,
        -0.999990701675415,
        -0.9994661211967468
      ],
      "type": "VEC3"
    },
    {
      "bufferView": 1,
      "byteOffset": 524256,
      "componentType": 5126,
      "count": 65532,
      "max": [
        0.8561829924583435,
        0.8938959836959839
      ],
      "min": [
        0.002196999965235591,
        0.006686999928206205
      ],
      "type": "VEC2"
    },
    {
      "bufferView": 0,
      "byteOffset": 1467264,
      "componentType": 5125,
      "count": 360084,
      "type": "SCALAR"
    },
    {
      "bufferView": 2,
      "byteOffset": 3145536,
      "componentType": 5126,
      "count": 65532,
      "max": [
        333.6826477050781,
        495.38116455078125,
        513.9273681640625
      ],
      "min": [
        -281.69287109375,
        -108.52183532714844,
        -774.038330078125
      ],
      "type": "VEC3"
    },
    {
      "bufferView": 2,
      "byteOffset": 3931920,
      "componentType": 5126,
      "count": 65532,
      "max": [
        0.9999883770942688,
        0.9999933242797852,
        0.9998639225959778
      ],
      "min": [
        -0.999941885471344,
        -0.999994695186615,
        -0.9997699856758118
      ],
      "type": "VEC3"
    },
    {
      "bufferView": 1,
      "byteOffset": 1048512,
      "componentType": 5126,
      "count": 65532,
      "max": [
        0.6364949941635132,
        0.9978029727935791
      ],
      "min": [
        0.03510800004005432,
        0.1791590005159378
      ],
      "type": "VEC2"
    },
    {
      "bufferView": 0,
      "byteOffset": 2907600,
      "componentType": 5125,
      "count": 343905,
      "type": "SCALAR"
    },
    {
      "bufferView": 2,
      "byteOffset": 4718304,
      "componentType": 5126,
      "count": 65532,
      "max": [
        257.0305480957031,
        405.11712646484375,
        465.56134033203125
      ],
      "min": [
        -226.98321533203125,
        -109.93058776855469,
        -772.7244262695313
      ],
      "type": "VEC3"
    },
    {
      "bufferView": 2,
      "byteOffset": 5504688,
      "componentType": 5126,
      "count": 65532,
      "max": [
        0.9999987483024597,
        0.9999933242797852,
        0.9999956488609314
      ],
      "min": [
        -0.999941885471344,
        -0.9999828338623047,
        -0.9999817609786987
      ],
      "type": "VEC3"
    },
    {
      "bufferView": 1,
      "byteOffset": 1572768,
      "componentType": 5126,
      "count": 65532,
      "max": [
        0.5982040166854858,
        0.9922249913215637
      ],
      "min": [
        0.09655000269412994,
        0.20749899744987488
      ],
      "type": "VEC2"
    },
    {
      "bufferView": 0,
      "byteOffset": 4283220,
      "componentType": 5125,
      "count": 346890,
      "type": "SCALAR"
    },
    {
      "bufferView": 2,
      "byteOffset": 6291072,
      "componentType": 5126,
      "count": 65532,
      "max": [
        333.2409362792969,
        590.4310302734375,
        511.91375732421875
      ],
      "min": [
        -276.152587890625,
        -109.82377624511719,
        -774.038330078125
      ],
      "type": "VEC3"
    },
    {
      "bufferView": 2,
      "byteOffset": 7077456,
      "componentType": 5126,
      "count": 65532,
      "max": [
        0.9999788999557495,
        0.9999858140945435,
        0.9999909400939941
      ],
      "min": [
        -0.9992689490318298,
        -0.9999887943267822,
        -0.9999817609786987
      ],
      "type": "VEC3"
    },
    {
      "bufferView": 1,
      "byteOffset": 2097024,
      "componentType": 5126,
      "count": 65532,
      "max": [
        0.7226250171661377,
        0.9978029727935791
      ],
      "min": [
        0.004449000116437674,
        0.18019999563694
      ],
      "type": "VEC2"
    },
    {
      "bufferView": 0,
      "byteOffset": 5670780,
      "componentType": 5125,
      "count": 301623,
      "type": "SCALAR"
    },
    {
      "bufferView": 2,
      "byteOffset": 7863840,
      "componentType": 5126,
      "count": 65532,
      "max": [
        165.97860717773438,
        587.637939453125,
        566.5123291015625
      ],
      "min": [
        -359.9525146484375,
        -47.022056579589844,
        -755.2607421875
      ],
      "type": "VEC3"
    },
    {
      "bufferView": 2,
      "byteOffset": 8650224,
      "componentType": 5126,
      "count": 65532,
      "max": [
        0.7903285026550293,
        0.9999802708625793,
        0.9998109936714172
      ],
      "min": [
        -0.999998927116394,
        -0.994887113571167,
        -0.8761085271835327
      ],
      "type": "VEC3"
    },
    {
      "bufferView": 1,
      "byteOffset": 2621280,
      "componentType": 5126,
      "count": 65532,
      "max": [
        0.8911849856376648,
        0.995606005191803
      ],
      "min": [
        0.43950098752975464,
        0.214370995759964
      ],
      "type": "VEC2"
    },
    {
      "bufferView": 0,
      "byteOffset": 6877272,
      "componentType": 5125,
      "count": 373710,
      "type": "SCALAR"
    },
    {
      "bufferView": 2,
      "byteOffset": 9436608,
      "componentType": 5126,
      "count": 9372,
      "max": [
        156.06259155273438,
        590.2445678710938,
        566.3165283203125
      ],
      "min": [
        -213.70278930664063,
        -69.44046020507813,
        -735.3922729492188
      ],
      "type": "VEC3"
    },
    {
      "bufferView": 2,
      "byteOffset": 9549072,
      "componentType": 5126,
      "count": 9372,
      "max": [
        0.9552324414253235,
        0.9999802708625793,
        0.9935837984085083
      ],
      "min": [
        -0.9999005794525146,
        -0.9999521374702454,
        -0.9214178919792175
      ],
      "type": "VEC3"
    },
    {
      "bufferView": 1,
      "byteOffset": 3145536,
      "componentType": 5126,
      "count": 9372,
      "max": [
        0.8823649883270264,
        0.9882410168647766
      ],
      "min": [
        0.32566800713539124,
        0.036003001034259796
      ],
      "type": "VEC2"
    },
    {
      "bufferView": 0,
      "byteOffset": 8372112,
      "componentType": 5125,
      "count": 26199,
      "type": "SCALAR"
    }
  ],
  "asset": {
    "extras": {
      "author": "Global Digital Heritage and GDH-Afrika (https://sketchfab.com/GlobalDigitalHeritage)",
      "license": "CC-BY-NC-4.0 (http://creativecommons.org/licenses/by-nc/4.0/)",
      "source": "https://sketchfab.com/3d-models/female-statue-b888312d06924e5b9aef6192d7c8d4a4",
      "title": "Female Statue"
    },
    "generator": "Sketchfab-16.59.0",
    "version": "2.0"
  },
  "bufferViews": [
    {
      "buffer": 0,
      "byteLength": 8476908,
      "name": "floatBufferViews",
      "target": 34963
    },
    {
      "buffer": 0,
      "byteLength": 3220512,
      "byteOffset": 8476908,
      "byteStride": 8,
      "name": "floatBufferViews",
      "target": 34962
    },
    {
      "buffer": 0,
      "byteLength": 9661536,
      "byteOffset": 11697420,
      "byteStride": 12,
      "name": "floatBufferViews",
      "target": 34962
    }
  ],
  "buffers": [
    {
      "byteLength": 21358956,
      "uri": "scene.bin"
    }
  ],
  "images": [
    {
      "uri": "textures/material_0_baseColor.jpeg"
    }
  ],
  "materials": [
    {
      "doubleSided": true,
      "name": "material_0",
      "pbrMetallicRoughness": {
        "baseColorTexture": {
          "index": 0
        },
        "metallicFactor": 0.0,
        "roughnessFactor": 0.6826894429953365
      }
    }
  ],
  "meshes": [
    {
      "name": "Object_0",
      "primitives": [
        {
          "attributes": {
            "NORMAL": 1,
            "POSITION": 0,
            "TEXCOORD_0": 2
          },
          "indices": 3,
          "material": 0,
          "mode": 4
        }
      ]
    },
    {
      "name": "Object_1",
      "primitives": [
        {
          "attributes": {
            "NORMAL": 5,
            "POSITION": 4,
            "TEXCOORD_0": 6
          },
          "indices": 7,
          "material": 0,
          "mode": 4
        }
      ]
    },
    {
      "name": "Object_2",
      "primitives": [
        {
          "attributes": {
            "NORMAL": 9,
            "POSITION": 8,
            "TEXCOORD_0": 10
          },
          "indices": 11,
          "material": 0,
          "mode": 4
        }
      ]
    },
    {
      "name": "Object_3",
      "primitives": [
        {
          "attributes": {
            "NORMAL": 13,
            "POSITION": 12,
            "TEXCOORD_0": 14
          },
          "indices": 15,
          "material": 0,
          "mode": 4
        }
      ]
    },
    {
      "name": "Object_4",
      "primitives": [
        {
          "attributes": {
            "NORMAL": 17,
            "POSITION": 16,
            "TEXCOORD_0": 18
          },
          "indices": 19,
          "material": 0,
          "mode": 4
        }
      ]
    },
    {
      "name": "Object_5",
      "primitives": [
        {
          "attributes": {
            "NORMAL": 21,
            "POSITION": 20,
            "TEXCOORD_0": 22
          },
          "indices": 23,
          "material": 0,
          "mode": 4
        }
      ]
    },
    {
      "name": "Object_6",
      "primitives": [
        {
          "attributes": {
            "NORMAL": 25,
            "POSITION": 24,
            "TEXCOORD_0": 26
          },
          "indices": 27,
          "material": 0,
          "mode": 4
        }
      ]
    }
  ],
  "nodes": [
    {
      "children": [
        1
      ],
      "matrix": [
        0.0011504320915821792,
        0.00015538860992366277,
        0.0010790842427722824,
        0.0,
        0.00109021482876355,
        -0.00016397139079047673,
        -0.0011386866928357053,
        0.0,
        -2.1995582286617433e-20,
        0.001568767109163871,
        -0.00022590315977681595,
        0.0,
        0.0,
        0.0,
        0.0,
        1.0
      ],
      "name": "Sketchfab_model"
    },
    {
      "children": [
        2,
        3,
        4,
        5,
        6,
        7,
        8
      ],
      "name": "Female_Statue.obj.cleaner.materialmerger.gles"
    },
    {
      "mesh": 0,
      "name": "Object_2"
    },
    {
      "mesh": 1,
      "name": "Object_3"
    },
    {
      "mesh": 2,
      "name": "Object_4"
    },
    {
      "mesh": 3,
      "name": "Object_5"
    },
    {
      "mesh": 4,
      "name": "Object_6"
    },
    {
      "mesh": 5,
      "name": "Object_7"
    },
    {
      "mesh": 6,
      "name": "Object_8"
    }
  ],
  "samplers": [
    {
      "magFilter": 9729,
      "minFilter": 9987,
      "wrapS": 10497,
      "wrapT": 10497
    }
  ],
  "scene": 0,
  "scenes": [
    {
      "name": "Sketchfab_Scene",
      "nodes": [
        0
      ]
    }
  ],
  "textures": [
    {
      "sampler": 0,
      "source": 0
    }
  ]
}
