{
  "accessors": [
    {
      "bufferView": 2,
      "componentType": 5126,
      "count": 18821,
      "max": [
        1.444588303565979,
        2.645228624343872,
        7.471575736999512
      ],
      "min": [
        -1.4947830438613892,
        -4.613311767578125,
        -7.748603820800781e-07
      ],
      "type": "VEC3"
    },
    {
      "bufferView": 2,
      "byteOffset": 225852,
      "componentType": 5126,
      "count": 18821,
      "max": [
        1.0,
        1.0,
        1.0
      ],
      "min": [
        -1.0,
        -1.0,
        -1.0
      ],
      "type": "VEC3"
    },
    {
      "bufferView": 3,
      "componentType": 5126,
      "count": 18821,
      "max": [
        1.0,
        1.0,
        1.0,
        1.0
      ],
      "min": [
        -1.0,
        -1.0,
        -0.9982795715332031,
        -1.0
      ],
      "type": "VEC4"
    },
    {
      "bufferView": 1,
      "componentType": 5126,
      "count": 18821,
      "max": [
        1.0,
        0.9994671940803528
      ],
      "min": [
        0.0,
        0.0
      ],
      "type": "VEC2"
    },
    {
      "bufferView": 1,
      "byteOffset": 150568,
      "componentType": 5126,
      "count": 18821,
      "max": [
        1.0,
        0.9994671940803528
      ],
      "min": [
        0.0,
        0.0
      ],
      "type": "VEC2"
    },
    {
      "bufferView": 1,
      "byteOffset": 301136,
      "componentType": 5126,
      "count": 18821,
      "max": [
        1.0,
        0.9994671940803528
      ],
      "min": [
        0.0,
        0.0
      ],
      "type": "VEC2"
    },
    {
      "bufferView": 0,
      "componentType": 5125,
      "count": 62748,
      "type": "SCALAR"
    }
  ],
  "asset": {
    "extras": {
      "author": "conkin (https://sketchfab.com/conkin)",
      "license": "CC-BY-4.0 (http://creativecommons.org/licenses/by/4.0/)",
      "source": "https://sketchfab.com/3d-models/antique-gold-scale-410ce0760f284afda9d43b6b5d43e91a",
      "title": "Antique Gold Scale"
    },
    "generator": "Sketchfab-15.13.0",
    "version": "2.0"
  },
  "bufferViews": [
    {
      "buffer": 0,
      "byteLength": 250992,
      "name": "floatBufferViews",
      "target": 34963
    },
    {
      "buffer": 0,
      "byteLength": 451704,
      "byteOffset": 250992,
      "byteStride": 8,
      "name": "floatBufferViews",
      "target": 34962
    },
    {
      "buffer": 0,
      "byteLength": 451704,
      "byteOffset": 702696,
      "byteStride": 12,
      "name": "floatBufferViews",
      "target": 34962
    },
    {
      "buffer": 0,
      "byteLength": 301136,
      "byteOffset": 1154400,
      "byteStride": 16,
      "name": "floatBufferViews",
      "target": 34962
    }
  ],
  "buffers": [
    {
      "byteLength": 1455536,
      "uri": "scene.bin"
    }
  ],
  "images": [
    {
      "uri": "textures/swirly_scale_baseColor.png"
    },
    {
      "uri": "textures/swirly_scale_metallicRoughness.png"
    },
    {
      "uri": "textures/swirly_scale_normal.png"
    }
  ],
  "materials": [
    {
      "doubleSided": true,
      "name": "swirly_scale",
      "normalTexture": {
        "index": 2
      },
      "pbrMetallicRoughness": {
        "baseColorTexture": {
          "index": 0
        },
        "metallicRoughnessTexture": {
          "index": 1
        }
      }
    }
  ],
  "meshes": [
    {
      "name": "swirly_scale.001_swirly_scale_0",
      "primitives": [
        {
          "attributes": {
            "NORMAL": 1,
            "POSITION": 0,
            "TANGENT": 2,
            "TEXCOORD_0": 3,
            "TEXCOORD_1": 4,
            "TEXCOORD_2": 5
          },
          "indices": 6,
          "material": 0,
          "mode": 4
        }
      ]
    }
  ],
  "nodes": [
    {
      "children": [
        1
      ],
      "matrix": [
        1.0,
        0.0,
        0.0,
        0.0,
        0.0,
        2.220446049250313e-16,
        -1.0,
        0.0,
        0.0,
        1.0,
        2.220446049250313e-16,
        0.0,
        0.0,
        0.0,
        0.0,
        1.0
      ],
      "name": "Sketchfab_model"
    },
    {
      "children": [
        2
      ],
      "matrix": [
        0.009999999776482582,
        0.0,
        0.0,
        0.0,
        0.0,
        0.0,
        0.009999999776482582,
        0.0,
        0.0,
        -0.009999999776482582,
        0.0,
        0.0,
        0.0,
        0.0,
        0.0,
        1.0
      ],
      "name": "swirlyscale1.fbx"
    },
    {
      "children": [
        3
      ],
      "name": "RootNode"
    },
    {
      "children": [
        4
      ],
      "matrix": [
        -8.173168428339483,
        1.050603717277601e-15,
        -0.42505378415340384,
        0.0,
        -0.42505378415340345,
        -3.577433528864184e-07,
        8.173168428339475,
        0.0,
        -1.8579690666559633e-08,
        8.184213638305655,
        3.57260553115978e-07,
        0.0,
        0.0,
        0.0,
        0.0,
        1.0
      ],
      "name": "swirly_scale.001"
    },
    {
      "mesh": 0,
      "name": "swirly_scale.001_swirly_scale_0"
    }
  ],
  "samplers": [
    {
      "magFilter": 9729,
      "minFilter": 9987,
      "wrapS": 10497,
      "wrapT": 10497
    }
  ],
  "scene": 0,
  "scenes": [
    {
      "name": "Sketchfab_Scene",
      "nodes": [
        0
      ]
    }
  ],
  "textures": [
    {
      "sampler": 0,
      "source": 0
    },
    {
      "sampler": 0,
      "source": 1
    },
    {
      "sampler": 0,
      "source": 2
    }
  ]
}
