{
  "accessors": [
    {
      "bufferView": 2,
      "componentType": 5126,
      "count": 42480,
      "max": [
        1.724608302116394,
        0.39505934715270996,
        0.3035678267478943
      ],
      "min": [
        -1.8903141021728516,
        -0.3645976781845093,
        -1.2368948459625244
      ],
      "type": "VEC3"
    },
    {
      "bufferView": 2,
      "byteOffset": 509760,
      "componentType": 5126,
      "count": 42480,
      "max": [
        0.9999932050704956,
        0.9999994039535522,
        0.9999997615814209
      ],
      "min": [
        -0.9999823570251465,
        -0.9997352361679077,
        -0.9999982118606567
      ],
      "type": "VEC3"
    },
    {
      "bufferView": 1,
      "componentType": 5126,
      "count": 42480,
      "max": [
        0.9992220997810364,
        0.999995231628418
      ],
      "min": [
        1.629422877158504e-05,
        7.331371307373047e-06
      ],
      "type": "VEC2"
    },
    {
      "bufferView": 1,
      "byteOffset": 339840,
      "componentType": 5126,
      "count": 42480,
      "max": [
        0.9992220997810364,
        0.999995231628418
      ],
      "min": [
        1.629422877158504e-05,
        7.331371307373047e-06
      ],
      "type": "VEC2"
    },
    {
      "bufferView": 1,
      "byteOffset": 679680,
      "componentType": 5126,
      "count": 42480,
      "max": [
        0.9992220997810364,
        0.999995231628418
      ],
      "min": [
        1.629422877158504e-05,
        7.331371307373047e-06
      ],
      "type": "VEC2"
    },
    {
      "bufferView": 0,
      "componentType": 5125,
      "count": 197643,
      "type": "SCALAR"
    }
  ],
  "asset": {
    "extras": {
      "author": "alexdelker (https://sketchfab.com/alexdelker)",
      "license": "CC-BY-4.0 (http://creativecommons.org/licenses/by/4.0/)",
      "source": "https://sketchfab.com/3d-models/281-raised-garden-bed-pt2-55846b9342494da29da4df52b4085ecd",
      "title": "281: Raised Garden Bed Pt.2"
    },
    "generator": "Sketchfab-12.66.0",
    "version": "2.0"
  },
  "bufferViews": [
    {
      "buffer": 0,
      "byteLength": 790572,
      "name": "floatBufferViews",
      "target": 34963
    },
    {
      "buffer": 0,
      "byteLength": 1019520,
      "byteOffset": 790572,
      "byteStride": 8,
      "name": "floatBufferViews",
      "target": 34962
    },
    {
      "buffer": 0,
      "byteLength": 1019520,
      "byteOffset": 1810092,
      "byteStride": 12,
      "name": "floatBufferViews",
      "target": 34962
    }
  ],
  "buffers": [
    {
      "byteLength": 2829612,
      "uri": "scene.bin"
    }
  ],
  "extensionsUsed": [
    "KHR_materials_unlit"
  ],
  "images": [
    {
      "uri": "textures/Material_0_baseColor.jpeg"
    }
  ],
  "materials": [
    {
      "extensions": {
        "KHR_materials_unlit": {}
      },
      "name": "Material_0",
      "pbrMetallicRoughness": {
        "baseColorTexture": {
          "index": 0
        },
        "metallicFactor": 0.0
      }
    }
  ],
  "meshes": [
    {
      "name": "Object_0",
      "primitives": [
        {
          "attributes": {
            "NORMAL": 1,
            "POSITION": 0,
            "TEXCOORD_0": 2,
            "TEXCOORD_1": 3,
            "TEXCOORD_2": 4
          },
          "indices": 5,
          "material": 0,
          "mode": 4
        }
      ]
    }
  ],
  "nodes": [
    {
      "children": [
        1
      ],
      "matrix": [
        1.0,
        0.0,
        0.0,
        0.0,
        0.0,
        2.220446049250313e-16,
        -1.0,
        0.0,
        0.0,
        1.0,
        2.220446049250313e-16,
        0.0,
        0.0,
        0.0,
        0.0,
        1.0
      ],
      "name": "Sketchfab_model"
    },
    {
      "children": [
        2
      ],
      "name": "root"
    },
    {
      "children": [
        3
      ],
      "matrix": [
        1.0,
        0.0,
        0.0,
        0.0,
        0.0,
        2.220446049250313e-16,
        1.0,
        0.0,
        0.0,
        -1.0,
        2.220446049250313e-16,
        0.0,
        0.0,
        0.0,
        0.0,
        1.0
      ],
      "name": "GLTF_SceneRootNode"
    },
    {
      "children": [
        4
      ],
      "matrix": [
        0.9993828708935129,
        -0.015763829904607514,
        0.03139074754412315,
        0.0,
        0.015090457447324365,
        0.9996533623651476,
        0.021573901040038704,
        0.0,
        -0.03171995363601222,
        -0.02108688641771213,
        0.9992743305832167,
        0.0,
        0.0,
        0.014826678670942783,
        0.0,
        1.0
      ],
      "name": "Mesh_0_0"
    },
    {
      "mesh": 0,
      "name": "Object_4"
    }
  ],
  "samplers": [
    {
      "magFilter": 9729,
      "minFilter": 9987,
      "wrapS": 10497,
      "wrapT": 10497
    }
  ],
  "scene": 0,
  "scenes": [
    {
      "name": "Sketchfab_Scene",
      "nodes": [
        0
      ]
    }
  ],
  "textures": [
    {
      "sampler": 0,
      "source": 0
    }
  ]
}
