{
  "accessors": [
    {
      "bufferView": 2,
      "componentType": 5126,
      "count": 467,
      "max": [
        2.5722925662994385,
        -3.5762786865234375e-07,
        1.1729421615600586
      ],
      "min": [
        -2.599043130874634,
        -4.760017395019531,
        -2.40374356508255e-06
      ],
      "type": "VEC3"
    },
    {
      "bufferView": 2,
      "byteOffset": 5604,
      "componentType": 5126,
      "count": 467,
      "max": [
        0.9999994039535522,
        0.9827774167060852,
        0.9999994039535522
      ],
      "min": [
        -0.9999994039535522,
        -1.0,
        -0.9999994039535522
      ],
      "type": "VEC3"
    },
    {
      "bufferView": 3,
      "componentType": 5126,
      "count": 467,
      "max": [
        0.999584972858429,
        1.0,
        0.9984095096588135,
        1.0
      ],
      "min": [
        -1.0,
        -0.9999163150787354,
        -0.9816513657569885,
        -1.0
      ],
      "type": "VEC4"
    },
    {
      "bufferView": 1,
      "componentType": 5126,
      "count": 467,
      "max": [
        0.9644795656204224,
        0.9311394691467285
      ],
      "min": [
        0.12414595484733582,
        0.23194193840026855
      ],
      "type": "VEC2"
    },
    {
      "bufferView": 0,
      "componentType": 5125,
      "count": 1830,
      "type": "SCALAR"
    },
    {
      "bufferView": 2,
      "byteOffset": 11208,
      "componentType": 5126,
      "count": 467,
      "max": [
        2.5722925662994385,
        -3.5762786865234375e-07,
        1.1729421615600586
      ],
      "min": [
        -2.599043130874634,
        -4.760017395019531,
        -2.40374356508255e-06
      ],
      "type": "VEC3"
    },
    {
      "bufferView": 2,
      "byteOffset": 16812,
      "componentType": 5126,
      "count": 467,
      "max": [
        0.9999994039535522,
        0.9827774167060852,
        0.9999994039535522
      ],
      "min": [
        -0.9999994039535522,
        -1.0,
        -0.9999994039535522
      ],
      "type": "VEC3"
    },
    {
      "bufferView": 3,
      "byteOffset": 7472,
      "componentType": 5126,
      "count": 467,
      "max": [
        0.999584972858429,
        1.0,
        0.9984095096588135,
        1.0
      ],
      "min": [
        -1.0,
        -0.9999163150787354,
        -0.9816513657569885,
        -1.0
      ],
      "type": "VEC4"
    },
    {
      "bufferView": 1,
      "byteOffset": 3736,
      "componentType": 5126,
      "count": 467,
      "max": [
        0.9644795656204224,
        0.9311394691467285
      ],
      "min": [
        0.12414595484733582,
        0.23194193840026855
      ],
      "type": "VEC2"
    },
    {
      "bufferView": 0,
      "byteOffset": 7320,
      "componentType": 5125,
      "count": 1830,
      "type": "SCALAR"
    },
    {
      "bufferView": 2,
      "byteOffset": 22416,
      "componentType": 5126,
      "count": 445,
      "max": [
        0.0001710951328277588,
        -0.002236202359199524,
        15.425904273986816
      ],
      "min": [
        -5.218148708343506,
        -0.7543981671333313,
        -0.00018117576837539673
      ],
      "type": "VEC3"
    },
    {
      "bufferView": 2,
      "byteOffset": 27756,
      "componentType": 5126,
      "count": 445,
      "max": [
        0.9999994039535522,
        0.9827774167060852,
        0.9999994039535522
      ],
      "min": [
        -0.9999994039535522,
        -1.0,
        -0.9999994039535522
      ],
      "type": "VEC3"
    },
    {
      "bufferView": 3,
      "byteOffset": 14944,
      "componentType": 5126,
      "count": 445,
      "max": [
        0.9995844960212708,
        0.9878695011138916,
        0.9984093308448792,
        -1.0
      ],
      "min": [
        -1.0,
        -0.9999163150787354,
        -0.9816495776176453,
        -1.0
      ],
      "type": "VEC4"
    },
    {
      "bufferView": 1,
      "byteOffset": 7472,
      "componentType": 5126,
      "count": 445,
      "max": [
        0.9644795656204224,
        0.8998045921325684
      ],
      "min": [
        0.3749047815799713,
        0.015573142096400261
      ],
      "type": "VEC2"
    },
    {
      "bufferView": 0,
      "byteOffset": 14640,
      "componentType": 5125,
      "count": 1752,
      "type": "SCALAR"
    },
    {
      "bufferView": 2,
      "byteOffset": 33096,
      "componentType": 5126,
      "count": 445,
      "max": [
        5.218148708343506,
        -0.002236202359199524,
        15.425904273986816
      ],
      "min": [
        -0.0001710951328277588,
        -0.7543981671333313,
        -0.00018117576837539673
      ],
      "type": "VEC3"
    },
    {
      "bufferView": 2,
      "byteOffset": 38436,
      "componentType": 5126,
      "count": 445,
      "max": [
        0.9999994039535522,
        0.9827774167060852,
        0.9999994039535522
      ],
      "min": [
        -0.9999994039535522,
        -1.0,
        -0.9999994039535522
      ],
      "type": "VEC3"
    },
    {
      "bufferView": 3,
      "byteOffset": 22064,
      "componentType": 5126,
      "count": 445,
      "max": [
        1.0,
        0.9878695011138916,
        0.9961844086647034,
        1.0
      ],
      "min": [
        -0.9995844960212708,
        -0.9999163150787354,
        -0.9870175719261169,
        1.0
      ],
      "type": "VEC4"
    },
    {
      "bufferView": 1,
      "byteOffset": 11032,
      "componentType": 5126,
      "count": 445,
      "max": [
        0.9644795656204224,
        0.8998045921325684
      ],
      "min": [
        0.3749047815799713,
        0.015573142096400261
      ],
      "type": "VEC2"
    },
    {
      "bufferView": 0,
      "byteOffset": 21648,
      "componentType": 5125,
      "count": 1752,
      "type": "SCALAR"
    },
    {
      "bufferView": 2,
      "byteOffset": 43776,
      "componentType": 5126,
      "count": 10903,
      "max": [
        8.953927040100098,
        4.014342308044434,
        22.625844955444336
      ],
      "min": [
        -8.953927040100098,
        -4.0022382736206055,
        -0.0020449161529541016
      ],
      "type": "VEC3"
    },
    {
      "bufferView": 2,
      "byteOffset": 174612,
      "componentType": 5126,
      "count": 10903,
      "max": [
        1.0,
        1.0,
        1.0
      ],
      "min": [
        -1.0,
        -1.0,
        -1.0
      ],
      "type": "VEC3"
    },
    {
      "bufferView": 3,
      "byteOffset": 29184,
      "componentType": 5126,
      "count": 10903,
      "max": [
        1.0,
        1.0,
        0.9999991059303284,
        1.0
      ],
      "min": [
        -1.0,
        -1.0,
        -1.0,
        1.0
      ],
      "type": "VEC4"
    },
    {
      "bufferView": 1,
      "byteOffset": 14592,
      "componentType": 5126,
      "count": 10903,
      "max": [
        0.9914401769638062,
        0.9782146215438843
      ],
      "min": [
        0.005932423286139965,
        0.015573142096400261
      ],
      "type": "VEC2"
    },
    {
      "bufferView": 0,
      "byteOffset": 28656,
      "componentType": 5125,
      "count": 46368,
      "type": "SCALAR"
    }
  ],
  "asset": {
    "extras": {
      "author": "JmCVoyager (https://sketchfab.com/JmCVoyager)",
      "license": "CC-BY-4.0 (http://creativecommons.org/licenses/by/4.0/)",
      "source": "https://sketchfab.com/3d-models/unseen-bedroom-closet-70b7b418af714050aa83e99deb2253b7",
      "title": "Unseen: Bedroom Closet"
    },
    "generator": "Sketchfab-12.68.0",
    "version": "2.0"
  },
  "bufferViews": [
    {
      "buffer": 0,
      "byteLength": 214128,
      "name": "floatBufferViews",
      "target": 34963
    },
    {
      "buffer": 0,
      "byteLength": 101816,
      "byteOffset": 214128,
      "byteStride": 8,
      "name": "floatBufferViews",
      "target": 34962
    },
    {
      "buffer": 0,
      "byteLength": 305448,
      "byteOffset": 315944,
      "byteStride": 12,
      "name": "floatBufferViews",
      "target": 34962
    },
    {
      "buffer": 0,
      "byteLength": 203632,
      "byteOffset": 621392,
      "byteStride": 16,
      "name": "floatBufferViews",
      "target": 34962
    }
  ],
  "buffers": [
    {
      "byteLength": 825024,
      "uri": "scene.bin"
    }
  ],
  "images": [
    {
      "uri": "textures/2ndfFlr_BedroomCloset_baseColor.png"
    },
    {
      "uri": "textures/2ndfFlr_BedroomCloset_metallicRoughness.png"
    },
    {
      "uri": "textures/2ndfFlr_BedroomCloset_normal.png"
    }
  ],
  "materials": [
    {
      "doubleSided": true,
      "name": "2ndfFlr_BedroomCloset",
      "normalTexture": {
        "index": 2
      },
      "occlusionTexture": {
        "index": 1
      },
      "pbrMetallicRoughness": {
        "baseColorTexture": {
          "index": 0
        },
        "metallicRoughnessTexture": {
          "index": 1
        }
      }
    }
  ],
  "meshes": [
    {
      "name": "2ndfFlr_BedroomCloset_Drawer_02_2ndfFlr_BedroomCloset_0",
      "primitives": [
        {
          "attributes": {
            "NORMAL": 1,
            "POSITION": 0,
            "TANGENT": 2,
            "TEXCOORD_0": 3
          },
          "indices": 4,
          "material": 0,
          "mode": 4
        }
      ]
    },
    {
      "name": "2ndfFlr_BedroomCloset_Drawer_2ndfFlr_BedroomCloset_0",
      "primitives": [
        {
          "attributes": {
            "NORMAL": 6,
            "POSITION": 5,
            "TANGENT": 7,
            "TEXCOORD_0": 8
          },
          "indices": 9,
          "material": 0,
          "mode": 4
        }
      ]
    },
    {
      "name": "2ndfFlr_BedroomCloset_Door_Right_2ndfFlr_BedroomCloset_0",
      "primitives": [
        {
          "attributes": {
            "NORMAL": 11,
            "POSITION": 10,
            "TANGENT": 12,
            "TEXCOORD_0": 13
          },
          "indices": 14,
          "material": 0,
          "mode": 4
        }
      ]
    },
    {
      "name": "2ndfFlr_BedroomCloset_Door_Left_2ndfFlr_BedroomCloset_0",
      "primitives": [
        {
          "attributes": {
            "NORMAL": 16,
            "POSITION": 15,
            "TANGENT": 17,
            "TEXCOORD_0": 18
          },
          "indices": 19,
          "material": 0,
          "mode": 4
        }
      ]
    },
    {
      "name": "2ndfFlr_BedroomCloset_Core_2ndfFlr_BedroomCloset_0",
      "primitives": [
        {
          "attributes": {
            "NORMAL": 21,
            "POSITION": 20,
            "TANGENT": 22,
            "TEXCOORD_0": 23
          },
          "indices": 24,
          "material": 0,
          "mode": 4
        }
      ]
    }
  ],
  "nodes": [
    {
      "children": [
        1
      ],
      "matrix": [
        1.0,
        0.0,
        0.0,
        0.0,
        0.0,
        2.220446049250313e-16,
        -1.0,
        0.0,
        0.0,
        1.0,
        2.220446049250313e-16,
        0.0,
        0.0,
        0.0,
        0.0,
        1.0
      ],
      "name": "Sketchfab_model"
    },
    {
      "children": [
        2
      ],
      "matrix": [
        1.0,
        0.0,
        0.0,
        0.0,
        0.0,
        0.0,
        1.0,
        0.0,
        0.0,
        -1.0,
        0.0,
        0.0,
        0.0,
        0.0,
        0.0,
        1.0
      ],
      "name": "8bdcc95babcb4532a3d8ca39b82ce762.fbx"
    },
    {
      "children": [
        3,
        5,
        7,
        9,
        11
      ],
      "name": "RootNode"
    },
    {
      "children": [
        4
      ],
      "matrix": [
        10.0,
        0.0,
        0.0,
        0.0,
        0.0,
        -1.6292067939183141e-06,
        -9.999999999999869,
        0.0,
        0.0,
        9.999999999999869,
        -1.6292067939183141e-06,
        0.0,
        33.17499542236328,
        26.488561630249023,
        -13.235054016113281,
        1.0
      ],
      "name": "2ndfFlr_BedroomCloset_Drawer_02"
    },
    {
      "mesh": 0,
      "name": "2ndfFlr_BedroomCloset_Drawer_02_2ndfFlr_BedroomCloset_0"
    },
    {
      "children": [
        6
      ],
      "matrix": [
        10.0,
        0.0,
        0.0,
        0.0,
        -0.0,
        -1.6292067939183141e-06,
        -9.999999999999869,
        0.0,
        0.0,
        9.999999999999869,
        -1.6292067939183141e-06,
        0.0,
        -32.29587173461914,
        26.533143997192383,
        -13.235054016113281,
        1.0
      ],
      "name": "2ndfFlr_BedroomCloset_Drawer"
    },
    {
      "mesh": 1,
      "name": "2ndfFlr_BedroomCloset_Drawer_2ndfFlr_BedroomCloset_0"
    },
    {
      "children": [
        8
      ],
      "matrix": [
        10.0,
        0.0,
        0.0,
        0.0,
        0.0,
        -1.6292067939183141e-06,
        -9.999999999999869,
        0.0,
        0.0,
        9.999999999999869,
        -1.6292067939183141e-06,
        0.0,
        60.0,
        50.0,
        22.751117706298828,
        1.0
      ],
      "name": "2ndfFlr_BedroomCloset_Door_Right"
    },
    {
      "mesh": 2,
      "name": "2ndfFlr_BedroomCloset_Door_Right_2ndfFlr_BedroomCloset_0"
    },
    {
      "children": [
        10
      ],
      "matrix": [
        10.0,
        0.0,
        0.0,
        0.0,
        -0.0,
        -1.6292067939183141e-06,
        -9.999999999999869,
        0.0,
        0.0,
        9.999999999999869,
        -1.6292067939183141e-06,
        0.0,
        -60.0,
        50.0,
        23.535686492919922,
        1.0
      ],
      "name": "2ndfFlr_BedroomCloset_Door_Left"
    },
    {
      "mesh": 3,
      "name": "2ndfFlr_BedroomCloset_Door_Left_2ndfFlr_BedroomCloset_0"
    },
    {
      "children": [
        12
      ],
      "matrix": [
        10.0,
        0.0,
        0.0,
        0.0,
        0.0,
        -1.6292067939183141e-06,
        -9.999999999999869,
        0.0,
        0.0,
        9.999999999999869,
        -1.6292067939183141e-06,
        0.0,
        0.0,
        0.0,
        0.0,
        1.0
      ],
      "name": "2ndfFlr_BedroomCloset_Core"
    },
    {
      "mesh": 4,
      "name": "2ndfFlr_BedroomCloset_Core_2ndfFlr_BedroomCloset_0"
    }
  ],
  "samplers": [
    {
      "magFilter": 9729,
      "minFilter": 9987,
      "wrapS": 10497,
      "wrapT": 10497
    }
  ],
  "scene": 0,
  "scenes": [
    {
      "name": "Sketchfab_Scene",
      "nodes": [
        0
      ]
    }
  ],
  "textures": [
    {
      "sampler": 0,
      "source": 0
    },
    {
      "sampler": 0,
      "source": 1
    },
    {
      "sampler": 0,
      "source": 2
    }
  ]
}
