{
  "accessors": [
    {
      "bufferView": 2,
      "componentType": 5126,
      "count": 5643,
      "max": [
        0.1686769425868988,
        0.5332080125808716,
        0.1509723663330078
      ],
      "min": [
        -0.08395443111658096,
        0.24933303892612457,
        -0.1509723663330078
      ],
      "type": "VEC3"
    },
    {
      "bufferView": 2,
      "byteOffset": 67716,
      "componentType": 5126,
      "count": 5643,
      "max": [
        1.0,
        1.0,
        1.0
      ],
      "min": [
        -1.0,
        -1.0,
        -1.0
      ],
      "type": "VEC3"
    },
    {
      "bufferView": 1,
      "componentType": 5126,
      "count": 5643,
      "max": [
        0.9959448575973511,
        0.9996790885925293
      ],
      "min": [
        0.00032087950967252254,
        0.0003208195557817817
      ],
      "type": "VEC2"
    },
    {
      "bufferView": 0,
      "componentType": 5125,
      "count": 30288,
      "type": "SCALAR"
    },
    {
      "bufferView": 2,
      "byteOffset": 135432,
      "componentType": 5126,
      "count": 4392,
      "max": [
        0.14051944017410278,
        0.2407984733581543,
        0.09033181518316269
      ],
      "min": [
        -0.055050328373909,
        0.012673965655267239,
        -0.09033181518316269
      ],
      "type": "VEC3"
    },
    {
      "bufferView": 2,
      "byteOffset": 188136,
      "componentType": 5126,
      "count": 4392,
      "max": [
        0.9999938607215881,
        0.9993277192115784,
        0.9998339414596558
      ],
      "min": [
        -0.9998148083686829,
        -0.9999905228614807,
        -0.9998152256011963
      ],
      "type": "VEC3"
    },
    {
      "bufferView": 3,
      "componentType": 5126,
      "count": 4392,
      "max": [
        0.9967264533042908,
        0.9994426965713501,
        0.9983174204826355,
        1.0
      ],
      "min": [
        -0.9993950724601746,
        -0.9999191761016846,
        -0.9999420642852783,
        -1.0
      ],
      "type": "VEC4"
    },
    {
      "bufferView": 1,
      "byteOffset": 45144,
      "componentType": 5126,
      "count": 4392,
      "max": [
        0.9950477480888367,
        0.9988449811935425
      ],
      "min": [
        0.008403483778238297,
        0.020677968859672546
      ],
      "type": "VEC2"
    },
    {
      "bufferView": 1,
      "byteOffset": 80280,
      "componentType": 5126,
      "count": 4392,
      "max": [
        1.0,
        1.0
      ],
      "min": [
        0.0,
        0.0
      ],
      "type": "VEC2"
    },
    {
      "bufferView": 1,
      "byteOffset": 115416,
      "componentType": 5126,
      "count": 4392,
      "max": [
        1.0,
        1.0
      ],
      "min": [
        0.0,
        0.0
      ],
      "type": "VEC2"
    },
    {
      "bufferView": 1,
      "byteOffset": 150552,
      "componentType": 5126,
      "count": 4392,
      "max": [
        1.0,
        1.0
      ],
      "min": [
        0.0,
        0.0
      ],
      "type": "VEC2"
    },
    {
      "bufferView": 1,
      "byteOffset": 185688,
      "componentType": 5126,
      "count": 4392,
      "max": [
        1.0,
        1.0
      ],
      "min": [
        0.0,
        0.0
      ],
      "type": "VEC2"
    },
    {
      "bufferView": 0,
      "byteOffset": 121152,
      "componentType": 5125,
      "count": 22140,
      "type": "SCALAR"
    },
    {
      "bufferView": 2,
      "byteOffset": 240840,
      "componentType": 5126,
      "count": 3722,
      "max": [
        0.19510263204574585,
        -0.009110688231885433,
        0.3758646547794342
      ],
      "min": [
        -0.543632984161377,
        -0.16205796599388123,
        -0.3758646547794342
      ],
      "type": "VEC3"
    },
    {
      "bufferView": 2,
      "byteOffset": 285504,
      "componentType": 5126,
      "count": 3722,
      "max": [
        0.992326557636261,
        0.9999911189079285,
        0.9957260489463806
      ],
      "min": [
        -0.9951173067092896,
        -0.9998877644538879,
        -0.9957259893417358
      ],
      "type": "VEC3"
    },
    {
      "bufferView": 3,
      "byteOffset": 70272,
      "componentType": 5126,
      "count": 3722,
      "max": [
        0.9947792887687683,
        0.9999982118606567,
        0.997200071811676,
        1.0
      ],
      "min": [
        -0.9934984445571899,
        -0.9996788501739502,
        -0.9971998929977417,
        -1.0
      ],
      "type": "VEC4"
    },
    {
      "bufferView": 1,
      "byteOffset": 220824,
      "componentType": 5126,
      "count": 3722,
      "max": [
        0.9960209727287292,
        0.9919533729553223
      ],
      "min": [
        0.0056558698415756226,
        0.00879371166229248
      ],
      "type": "VEC2"
    },
    {
      "bufferView": 1,
      "byteOffset": 250600,
      "componentType": 5126,
      "count": 3722,
      "max": [
        0.9960209727287292,
        0.9919533729553223
      ],
      "min": [
        0.0056558698415756226,
        0.00879371166229248
      ],
      "type": "VEC2"
    },
    {
      "bufferView": 1,
      "byteOffset": 280376,
      "componentType": 5126,
      "count": 3722,
      "max": [
        0.9960209727287292,
        0.9919533729553223
      ],
      "min": [
        0.0056558698415756226,
        0.00879371166229248
      ],
      "type": "VEC2"
    },
    {
      "bufferView": 1,
      "byteOffset": 310152,
      "componentType": 5126,
      "count": 3722,
      "max": [
        0.9960209727287292,
        0.9919533729553223
      ],
      "min": [
        0.0056558698415756226,
        0.00879371166229248
      ],
      "type": "VEC2"
    },
    {
      "bufferView": 0,
      "byteOffset": 209712,
      "componentType": 5125,
      "count": 20100,
      "type": "SCALAR"
    }
  ],
  "asset": {
    "extras": {
      "author": "silicat (https://sketchfab.com/silicat)",
      "license": "CC-BY-4.0 (http://creativecommons.org/licenses/by/4.0/)",
      "source": "https://sketchfab.com/3d-models/hoefnagel-creature-9a92596a121f412299dfbc61b1bb01aa",
      "title": "Hoefnagel creature"
    },
    "generator": "Sketchfab-16.16.0",
    "version": "2.0"
  },
  "bufferViews": [
    {
      "buffer": 0,
      "byteLength": 290112,
      "name": "floatBufferViews",
      "target": 34963
    },
    {
      "buffer": 0,
      "byteLength": 339928,
      "byteOffset": 290112,
      "byteStride": 8,
      "name": "floatBufferViews",
      "target": 34962
    },
    {
      "buffer": 0,
      "byteLength": 330168,
      "byteOffset": 630040,
      "byteStride": 12,
      "name": "floatBufferViews",
      "target": 34962
    },
    {
      "buffer": 0,
      "byteLength": 129824,
      "byteOffset": 960208,
      "byteStride": 16,
      "name": "floatBufferViews",
      "target": 34962
    }
  ],
  "buffers": [
    {
      "byteLength": 1090032,
      "uri": "scene.bin"
    }
  ],
  "extensionsUsed": [
    "KHR_materials_specular"
  ],
  "images": [
    {
      "uri": "textures/Golden_Material_baseColor.png"
    },
    {
      "uri": "textures/Golden_Material_metallicRoughness.png"
    },
    {
      "uri": "textures/Skull_Material_baseColor.png"
    },
    {
      "uri": "textures/Skull_Material_metallicRoughness.png"
    },
    {
      "uri": "textures/Skull_Material_normal.png"
    },
    {
      "uri": "textures/Wings_Material_baseColor.png"
    },
    {
      "uri": "textures/Wings_Material_metallicRoughness.png"
    },
    {
      "uri": "textures/Wings_Material_normal.png"
    }
  ],
  "materials": [
    {
      "doubleSided": true,
      "name": "Golden_Material",
      "pbrMetallicRoughness": {
        "baseColorTexture": {
          "index": 0
        },
        "metallicRoughnessTexture": {
          "index": 1
        }
      }
    },
    {
      "doubleSided": true,
      "extensions": {
        "KHR_materials_specular": {
          "specularColorFactor": [
            1.0,
            1.0,
            1.0
          ],
          "specularFactor": 0.16914337262742132
        }
      },
      "name": "Skull_Material",
      "normalTexture": {
        "index": 4
      },
      "pbrMetallicRoughness": {
        "baseColorTexture": {
          "index": 2
        },
        "metallicFactor": 0.0,
        "metallicRoughnessTexture": {
          "index": 3,
          "texCoord": 1
        }
      }
    },
    {
      "doubleSided": true,
      "extensions": {
        "KHR_materials_specular": {
          "specularColorFactor": [
            1.0,
            1.0,
            1.0
          ],
          "specularFactor": 1.0
        }
      },
      "name": "Wings_Material",
      "normalTexture": {
        "index": 7
      },
      "pbrMetallicRoughness": {
        "baseColorTexture": {
          "index": 5
        },
        "metallicFactor": 0.0,
        "metallicRoughnessTexture": {
          "index": 6
        },
        "roughnessFactor": 0.6689544196706123
      }
    }
  ],
  "meshes": [
    {
      "name": "Object_0",
      "primitives": [
        {
          "attributes": {
            "NORMAL": 1,
            "POSITION": 0,
            "TEXCOORD_0": 2
          },
          "indices": 3,
          "material": 0,
          "mode": 4
        }
      ]
    },
    {
      "name": "Object_1",
      "primitives": [
        {
          "attributes": {
            "NORMAL": 5,
            "POSITION": 4,
            "TANGENT": 6,
            "TEXCOORD_0": 7,
            "TEXCOORD_1": 8,
            "TEXCOORD_2": 9,
            "TEXCOORD_3": 10,
            "TEXCOORD_4": 11
          },
          "indices": 12,
          "material": 1,
          "mode": 4
        }
      ]
    },
    {
      "name": "Object_2",
      "primitives": [
        {
          "attributes": {
            "NORMAL": 14,
            "POSITION": 13,
            "TANGENT": 15,
            "TEXCOORD_0": 16,
            "TEXCOORD_1": 17,
            "TEXCOORD_2": 18,
            "TEXCOORD_3": 19
          },
          "indices": 20,
          "material": 2,
          "mode": 4
        }
      ]
    }
  ],
  "nodes": [
    {
      "children": [
        1
      ],
      "matrix": [
        1.0,
        0.0,
        0.0,
        0.0,
        0.0,
        2.220446049250313e-16,
        -1.0,
        0.0,
        0.0,
        1.0,
        2.220446049250313e-16,
        0.0,
        0.0,
        0.0,
        0.0,
        1.0
      ],
      "name": "Sketchfab_model"
    },
    {
      "children": [
        2
      ],
      "name": "root"
    },
    {
      "children": [
        3,
        5,
        7
      ],
      "matrix": [
        1.0,
        0.0,
        0.0,
        0.0,
        0.0,
        2.220446049250313e-16,
        1.0,
        0.0,
        0.0,
        -1.0,
        2.220446049250313e-16,
        0.0,
        0.0,
        0.0,
        0.0,
        1.0
      ],
      "name": "GLTF_SceneRootNode"
    },
    {
      "children": [
        4
      ],
      "name": "Plane_6"
    },
    {
      "mesh": 0,
      "name": "Object_4"
    },
    {
      "children": [
        6
      ],
      "name": "sr_7"
    },
    {
      "mesh": 1,
      "name": "Object_6"
    },
    {
      "children": [
        8
      ],
      "matrix": [
        8.429369480200677e-08,
        -0.9999999999999966,
        -0.0,
        0.0,
        0.9999999999999966,
        8.429369480200677e-08,
        0.0,
        0.0,
        0.0,
        -0.0,
        1.0,
        0.0,
        0.07762564718723297,
        0.0,
        0.0,
        1.0
      ],
      "name": "wr_8"
    },
    {
      "mesh": 2,
      "name": "Object_8"
    }
  ],
  "samplers": [
    {
      "magFilter": 9729,
      "minFilter": 9987,
      "wrapS": 10497,
      "wrapT": 10497
    }
  ],
  "scene": 0,
  "scenes": [
    {
      "name": "Sketchfab_Scene",
      "nodes": [
        0
      ]
    }
  ],
  "textures": [
    {
      "sampler": 0,
      "source": 0
    },
    {
      "sampler": 0,
      "source": 1
    },
    {
      "sampler": 0,
      "source": 2
    },
    {
      "sampler": 0,
      "source": 3
    },
    {
      "sampler": 0,
      "source": 4
    },
    {
      "sampler": 0,
      "source": 5
    },
    {
      "sampler": 0,
      "source": 6
    },
    {
      "sampler": 0,
      "source": 7
    }
  ]
}
