{
  "accessors": [
    {
      "bufferView": 2,
      "componentType": 5126,
      "count": 2755,
      "max": [
        285.0990295410156,
        741.3895874023438,
        372.31903076171875
      ],
      "min": [
        -343.2656555175781,
        -0.03051000088453293,
        -279.1941833496094
      ],
      "type": "VEC3"
    },
    {
      "bufferView": 2,
      "byteOffset": 33060,
      "componentType": 5126,
      "count": 2755,
      "max": [
        0.9971283078193665,
        0.9997617602348328,
        0.9996365308761597
      ],
      "min": [
        -0.9999729990959167,
        -0.9991506934165955,
        -0.9995720386505127
      ],
      "type": "VEC3"
    },
    {
      "bufferView": 3,
      "componentType": 5126,
      "count": 2755,
      "max": [
        0.999851644039154,
        0.9994418621063232,
        0.9999921917915344,
        1.0
      ],
      "min": [
        -0.9997137784957886,
        -0.999528706073761,
        -0.9999945163726807,
        -1.0
      ],
      "type": "VEC4"
    },
    {
      "bufferView": 1,
      "componentType": 5126,
      "count": 2755,
      "max": [
        0.9995099902153015,
        11.413640022277832
      ],
      "min": [
        0.0004900000058114529,
        0.0004900000058114529
      ],
      "type": "VEC2"
    },
    {
      "bufferView": 0,
      "componentType": 5125,
      "count": 11694,
      "type": "SCALAR"
    },
    {
      "bufferView": 2,
      "byteOffset": 66120,
      "componentType": 5126,
      "count": 4596,
      "max": [
        371.3706970214844,
        753.1827392578125,
        446.52435302734375
      ],
      "min": [
        -458.3798828125,
        -19.757259368896484,
        -363.8647766113281
      ],
      "type": "VEC3"
    },
    {
      "bufferView": 2,
      "byteOffset": 121272,
      "componentType": 5126,
      "count": 4596,
      "max": [
        0.9334654808044434,
        0.9999278783798218,
        0.8568723797798157
      ],
      "min": [
        -0.995728075504303,
        -0.08488745242357254,
        -0.9960324764251709
      ],
      "type": "VEC3"
    },
    {
      "bufferView": 3,
      "byteOffset": 44080,
      "componentType": 5126,
      "count": 4596,
      "max": [
        0.9993023872375488,
        0.4426654279232025,
        0.999832034111023,
        1.0
      ],
      "min": [
        -0.9997076988220215,
        -0.9997484683990479,
        -0.9996322989463806,
        -1.0
      ],
      "type": "VEC4"
    },
    {
      "bufferView": 1,
      "byteOffset": 22040,
      "componentType": 5126,
      "count": 4596,
      "max": [
        1.004289984703064,
        0.9980199933052063
      ],
      "min": [
        -0.03392000123858452,
        -0.01971999928355217
      ],
      "type": "VEC2"
    },
    {
      "bufferView": 0,
      "byteOffset": 46776,
      "componentType": 5125,
      "count": 15552,
      "type": "SCALAR"
    }
  ],
  "asset": {
    "extras": {
      "author": "evolveduk (https://sketchfab.com/evolveduk)",
      "license": "CC-BY-4.0 (http://creativecommons.org/licenses/by/4.0/)",
      "source": "https://sketchfab.com/3d-models/willow-422de2372f3d46dfb314a0cd5da512fe",
      "title": "Willow"
    },
    "generator": "Sketchfab-16.15.0",
    "version": "2.0"
  },
  "bufferViews": [
    {
      "buffer": 0,
      "byteLength": 108984,
      "name": "floatBufferViews",
      "target": 34963
    },
    {
      "buffer": 0,
      "byteLength": 58808,
      "byteOffset": 108984,
      "byteStride": 8,
      "name": "floatBufferViews",
      "target": 34962
    },
    {
      "buffer": 0,
      "byteLength": 176424,
      "byteOffset": 167792,
      "byteStride": 12,
      "name": "floatBufferViews",
      "target": 34962
    },
    {
      "buffer": 0,
      "byteLength": 117616,
      "byteOffset": 344216,
      "byteStride": 16,
      "name": "floatBufferViews",
      "target": 34962
    }
  ],
  "buffers": [
    {
      "byteLength": 461832,
      "uri": "scene.bin"
    }
  ],
  "images": [
    {
      "uri": "textures/bark10_0Mat_baseColor.png"
    },
    {
      "uri": "textures/bark10_0Mat_metallicRoughness.png"
    },
    {
      "uri": "textures/bark10_0Mat_normal.png"
    },
    {
      "uri": "textures/willow_branch_1Mat_baseColor.png"
    },
    {
      "uri": "textures/willow_branch_1Mat_normal.png"
    }
  ],
  "materials": [
    {
      "doubleSided": true,
      "name": "bark10_0Mat",
      "normalTexture": {
        "index": 2
      },
      "pbrMetallicRoughness": {
        "baseColorTexture": {
          "index": 0
        },
        "metallicFactor": 0.0,
        "metallicRoughnessTexture": {
          "index": 1
        }
      }
    },
    {
      "alphaCutoff": 0.24582953917163994,
      "alphaMode": "MASK",
      "doubleSided": true,
      "name": "willow_branch_1Mat",
      "normalTexture": {
        "index": 4
      },
      "pbrMetallicRoughness": {
        "baseColorTexture": {
          "index": 3
        },
        "metallicFactor": 0.0,
        "roughnessFactor": 0.9577051494623774
      }
    }
  ],
  "meshes": [
    {
      "name": "bark10_0_bark10_0Mat_0",
      "primitives": [
        {
          "attributes": {
            "NORMAL": 1,
            "POSITION": 0,
            "TANGENT": 2,
            "TEXCOORD_0": 3
          },
          "indices": 4,
          "material": 0,
          "mode": 4
        }
      ]
    },
    {
      "name": "willow branch_1_willow branch_1Mat_0",
      "primitives": [
        {
          "attributes": {
            "NORMAL": 6,
            "POSITION": 5,
            "TANGENT": 7,
            "TEXCOORD_0": 8
          },
          "indices": 9,
          "material": 1,
          "mode": 4
        }
      ]
    }
  ],
  "nodes": [
    {
      "children": [
        1
      ],
      "matrix": [
        1.0,
        0.0,
        0.0,
        0.0,
        0.0,
        2.220446049250313e-16,
        -1.0,
        0.0,
        0.0,
        1.0,
        2.220446049250313e-16,
        0.0,
        0.0,
        0.0,
        0.0,
        1.0
      ],
      "name": "Sketchfab_model"
    },
    {
      "children": [
        2
      ],
      "matrix": [
        0.009999999776482582,
        0.0,
        0.0,
        0.0,
        0.0,
        0.0,
        0.009999999776482582,
        0.0,
        0.0,
        -0.009999999776482582,
        0.0,
        0.0,
        0.0,
        0.0,
        0.0,
        1.0
      ],
      "name": "willow.fbx"
    },
    {
      "children": [
        3
      ],
      "name": "RootNode"
    },
    {
      "children": [
        4,
        5
      ],
      "name": "bark10_0"
    },
    {
      "mesh": 0,
      "name": "bark10_0_bark10_0Mat_0"
    },
    {
      "children": [
        6
      ],
      "name": "willow branch_1"
    },
    {
      "mesh": 1,
      "name": "willow branch_1_willow branch_1Mat_0"
    }
  ],
  "samplers": [
    {
      "magFilter": 9729,
      "minFilter": 9987,
      "wrapS": 10497,
      "wrapT": 10497
    }
  ],
  "scene": 0,
  "scenes": [
    {
      "name": "Sketchfab_Scene",
      "nodes": [
        0
      ]
    }
  ],
  "textures": [
    {
      "sampler": 0,
      "source": 0
    },
    {
      "sampler": 0,
      "source": 1
    },
    {
      "sampler": 0,
      "source": 2
    },
    {
      "sampler": 0,
      "source": 3
    },
    {
      "sampler": 0,
      "source": 4
    }
  ]
}
