{
  "accessors": [
    {
      "bufferView": 2,
      "componentType": 5126,
      "count": 1146,
      "max": [
        107.96477508544922,
        32.89886474609375,
        95.03974151611328
      ],
      "min": [
        -107.97210693359375,
        -33.670501708984375,
        -2.0295767784118652
      ],
      "type": "VEC3"
    },
    {
      "bufferView": 2,
      "byteOffset": 13752,
      "componentType": 5126,
      "count": 1146,
      "max": [
        1.0,
        1.0,
        1.0
      ],
      "min": [
        -1.0,
        -1.0,
        -1.0
      ],
      "type": "VEC3"
    },
    {
      "bufferView": 3,
      "componentType": 5126,
      "count": 1146,
      "max": [
        1.0,
        1.0,
        1.0,
        1.0
      ],
      "min": [
        -1.0,
        -1.0,
        -1.0,
        -1.0
      ],
      "type": "VEC4"
    },
    {
      "bufferView": 1,
      "componentType": 5126,
      "count": 1146,
      "max": [
        0.998046875,
        0.9798431396484375
      ],
      "min": [
        0.001953125,
        0.001953125
      ],
      "type": "VEC2"
    },
    {
      "bufferView": 1,
      "byteOffset": 9168,
      "componentType": 5126,
      "count": 1146,
      "max": [
        0.98193359375,
        0.9921875
      ],
      "min": [
        0.0078125,
        0.01123046875
      ],
      "type": "VEC2"
    },
    {
      "bufferView": 1,
      "byteOffset": 18336,
      "componentType": 5126,
      "count": 1146,
      "max": [
        0.998046875,
        0.9798431396484375
      ],
      "min": [
        0.001953125,
        0.001953125
      ],
      "type": "VEC2"
    },
    {
      "bufferView": 0,
      "componentType": 5125,
      "count": 2142,
      "type": "SCALAR"
    }
  ],
  "asset": {
    "extras": {
      "author": "TheMadraver (https://sketchfab.com/TheMadraver)",
      "license": "CC-BY-4.0 (http://creativecommons.org/licenses/by/4.0/)",
      "source": "https://sketchfab.com/3d-models/wooden-park-bench-e53ad46c604c44e59a98bad27041cb19",
      "title": "Wooden Park Bench"
    },
    "generator": "Sketchfab-14.81.0",
    "version": "2.0"
  },
  "bufferViews": [
    {
      "buffer": 0,
      "byteLength": 8568,
      "name": "floatBufferViews",
      "target": 34963
    },
    {
      "buffer": 0,
      "byteLength": 27504,
      "byteOffset": 8568,
      "byteStride": 8,
      "name": "floatBufferViews",
      "target": 34962
    },
    {
      "buffer": 0,
      "byteLength": 27504,
      "byteOffset": 36072,
      "byteStride": 12,
      "name": "floatBufferViews",
      "target": 34962
    },
    {
      "buffer": 0,
      "byteLength": 18336,
      "byteOffset": 63576,
      "byteStride": 16,
      "name": "floatBufferViews",
      "target": 34962
    }
  ],
  "buffers": [
    {
      "byteLength": 81912,
      "uri": "scene.bin"
    }
  ],
  "images": [
    {
      "uri": "textures/Bench_Mat_baseColor.png"
    },
    {
      "uri": "textures/Bench_Mat_metallicRoughness.png"
    },
    {
      "uri": "textures/Bench_Mat_normal.png"
    }
  ],
  "materials": [
    {
      "doubleSided": true,
      "name": "Bench_Mat",
      "normalTexture": {
        "index": 2
      },
      "occlusionTexture": {
        "index": 1
      },
      "pbrMetallicRoughness": {
        "baseColorTexture": {
          "index": 0
        },
        "metallicFactor": 0.28495324938133143,
        "metallicRoughnessTexture": {
          "index": 1,
          "texCoord": 1
        },
        "roughnessFactor": 0.6994307030269045
      }
    }
  ],
  "meshes": [
    {
      "name": "Bench_Bench Mat_0",
      "primitives": [
        {
          "attributes": {
            "NORMAL": 1,
            "POSITION": 0,
            "TANGENT": 2,
            "TEXCOORD_0": 3,
            "TEXCOORD_1": 4,
            "TEXCOORD_2": 5
          },
          "indices": 6,
          "material": 0,
          "mode": 4
        }
      ]
    }
  ],
  "nodes": [
    {
      "children": [
        1
      ],
      "matrix": [
        -0.9999867677688599,
        -1.619535438596325e-16,
        0.00513987522572279,
        0.0,
        -0.00513987522572279,
        -6.123526753990438e-17,
        -0.9999867677688599,
        0.0,
        1.6226615464506552e-16,
        -1.0,
        6.040205181760217e-17,
        0.0,
        0.0,
        0.0,
        0.0,
        1.0
      ],
      "name": "Sketchfab_model"
    },
    {
      "children": [
        2
      ],
      "matrix": [
        0.02539999969303608,
        0.0,
        0.0,
        0.0,
        0.0,
        -0.02539999969303608,
        0.0,
        0.0,
        0.0,
        0.0,
        -0.02539999969303608,
        0.0,
        0.0,
        0.0,
        0.0,
        1.0
      ],
      "name": "4ebb420a5e774324b45c3c4244fbaf15.fbx"
    },
    {
      "children": [
        3
      ],
      "name": "RootNode"
    },
    {
      "children": [
        4
      ],
      "matrix": [
        -0.48511800169944225,
        7.325078032335399e-08,
        0.0,
        0.0,
        -7.325078032335399e-08,
        -0.48511800169944225,
        0.0,
        0.0,
        0.0,
        0.0,
        0.48511800169944763,
        0.0,
        -127.08761596679688,
        -3.27880859375,
        0.0,
        1.0
      ],
      "name": "Bench"
    },
    {
      "mesh": 0,
      "name": "Bench_Bench Mat_0"
    }
  ],
  "samplers": [
    {
      "magFilter": 9729,
      "minFilter": 9987,
      "wrapS": 10497,
      "wrapT": 10497
    }
  ],
  "scene": 0,
  "scenes": [
    {
      "name": "Sketchfab_Scene",
      "nodes": [
        0
      ]
    }
  ],
  "textures": [
    {
      "sampler": 0,
      "source": 0
    },
    {
      "sampler": 0,
      "source": 1
    },
    {
      "sampler": 0,
      "source": 2
    }
  ]
}
