{
  "accessors": [
    {
      "bufferView": 2,
      "componentType": 5126,
      "count": 13327,
      "max": [
        0.3440864086151123,
        0.3671490550041199,
        2.2721478939056396
      ],
      "min": [
        -0.3440864086151123,
        -0.2913127839565277,
        -0.0013669622130692005
      ],
      "type": "VEC3"
    },
    {
      "bufferView": 2,
      "byteOffset": 159924,
      "componentType": 5126,
      "count": 13327,
      "max": [
        1.0,
        1.0,
        1.0
      ],
      "min": [
        -1.0,
        -1.0,
        -1.0
      ],
      "type": "VEC3"
    },
    {
      "bufferView": 1,
      "componentType": 5126,
      "count": 13327,
      "max": [
        1.9965362548828125,
        0.9974827170372009
      ],
      "min": [
        0.0025154203176498413,
        0.002516143023967743
      ],
      "type": "VEC2"
    },
    {
      "bufferView": 1,
      "byteOffset": 106616,
      "componentType": 5126,
      "count": 13327,
      "max": [
        1.9965362548828125,
        0.9974827170372009
      ],
      "min": [
        0.0025154203176498413,
        0.002516143023967743
      ],
      "type": "VEC2"
    },
    {
      "bufferView": 1,
      "byteOffset": 213232,
      "componentType": 5126,
      "count": 13327,
      "max": [
        1.9965362548828125,
        0.9974827170372009
      ],
      "min": [
        0.0025154203176498413,
        0.002516143023967743
      ],
      "type": "VEC2"
    },
    {
      "bufferView": 0,
      "componentType": 5125,
      "count": 59976,
      "type": "SCALAR"
    }
  ],
  "asset": {
    "extras": {
      "author": "VistaPrime (https://sketchfab.com/VistaPrime)",
      "license": "CC-BY-4.0 (http://creativecommons.org/licenses/by/4.0/)",
      "source": "https://sketchfab.com/3d-models/wooden-chair-0540311f60c84223bc5f428a7e5efaa5",
      "title": "Wooden Chair"
    },
    "generator": "Sketchfab-13.33.0",
    "version": "2.0"
  },
  "bufferViews": [
    {
      "buffer": 0,
      "byteLength": 239904,
      "name": "floatBufferViews",
      "target": 34963
    },
    {
      "buffer": 0,
      "byteLength": 319848,
      "byteOffset": 239904,
      "byteStride": 8,
      "name": "floatBufferViews",
      "target": 34962
    },
    {
      "buffer": 0,
      "byteLength": 319848,
      "byteOffset": 559752,
      "byteStride": 12,
      "name": "floatBufferViews",
      "target": 34962
    }
  ],
  "buffers": [
    {
      "byteLength": 879600,
      "uri": "scene.bin"
    }
  ],
  "images": [
    {
      "uri": "textures/WoodenChair_01_baseColor.jpeg"
    }
  ],
  "materials": [
    {
      "doubleSided": true,
      "name": "WoodenChair_01",
      "pbrMetallicRoughness": {
        "baseColorTexture": {
          "index": 0
        },
        "metallicFactor": 0.0,
        "roughnessFactor": 0.8211145618000169
      }
    }
  ],
  "meshes": [
    {
      "name": "WoodenChair_01_WoodenChair_01_0",
      "primitives": [
        {
          "attributes": {
            "NORMAL": 1,
            "POSITION": 0,
            "TEXCOORD_0": 2,
            "TEXCOORD_1": 3,
            "TEXCOORD_2": 4
          },
          "indices": 5,
          "material": 0,
          "mode": 4
        }
      ]
    }
  ],
  "nodes": [
    {
      "children": [
        1
      ],
      "matrix": [
        0.9282891750335693,
        -8.256930109394123e-17,
        0.371859073638916,
        0.0,
        0.371859073638916,
        2.0612160312651214e-16,
        -0.9282891750335693,
        0.0,
        0.0,
        1.0,
        2.220446049250313e-16,
        0.0,
        0.0,
        0.0,
        0.0,
        1.0
      ],
      "name": "Sketchfab_model"
    },
    {
      "children": [
        2
      ],
      "matrix": [
        0.009999999776482582,
        0.0,
        0.0,
        0.0,
        0.0,
        0.0,
        0.009999999776482582,
        0.0,
        0.0,
        -0.009999999776482582,
        0.0,
        0.0,
        0.0,
        0.0,
        0.0,
        1.0
      ],
      "name": "c616ac49b4c14d779cfab374fe1c8635.fbx"
    },
    {
      "children": [
        3
      ],
      "name": "RootNode"
    },
    {
      "children": [
        4
      ],
      "matrix": [
        100.0,
        0.0,
        0.0,
        0.0,
        0.0,
        -1.629206793918314e-05,
        -99.99999999999868,
        0.0,
        0.0,
        99.99999999999868,
        -1.629206793918314e-05,
        0.0,
        0.0,
        0.0,
        0.0,
        1.0
      ],
      "name": "WoodenChair_01"
    },
    {
      "mesh": 0,
      "name": "WoodenChair_01_WoodenChair_01_0"
    }
  ],
  "samplers": [
    {
      "magFilter": 9729,
      "minFilter": 9987,
      "wrapS": 10497,
      "wrapT": 10497
    }
  ],
  "scene": 0,
  "scenes": [
    {
      "name": "Sketchfab_Scene",
      "nodes": [
        0
      ]
    }
  ],
  "textures": [
    {
      "sampler": 0,
      "source": 0
    }
  ]
}
