{
  "accessors": [
    {
      "bufferView": 2,
      "componentType": 5126,
      "count": 96,
      "max": [
        1.0745662450790405,
        1.2338799238204956,
        3.8723702430725098
      ],
      "min": [
        -1.0745662450790405,
        1.1196750402450562,
        -3.8723702430725098
      ],
      "type": "VEC3"
    },
    {
      "bufferView": 2,
      "byteOffset": 1152,
      "componentType": 5126,
      "count": 96,
      "max": [
        1.0,
        1.0,
        1.0
      ],
      "min": [
        -1.0,
        -1.0,
        -1.0
      ],
      "type": "VEC3"
    },
    {
      "bufferView": 3,
      "componentType": 5126,
      "count": 96,
      "max": [
        1.0,
        0.0,
        -0.0,
        1.0
      ],
      "min": [
        -1.0,
        -1.0,
        -0.0,
        1.0
      ],
      "type": "VEC4"
    },
    {
      "bufferView": 1,
      "componentType": 5126,
      "count": 96,
      "max": [
        0.9708096981048584,
        0.9725614786148071
      ],
      "min": [
        0.0057936906814575195,
        0.00579380989074707
      ],
      "type": "VEC2"
    },
    {
      "bufferView": 1,
      "byteOffset": 768,
      "componentType": 5126,
      "count": 96,
      "max": [
        0.9708096981048584,
        0.9725614786148071
      ],
      "min": [
        0.0057936906814575195,
        0.00579380989074707
      ],
      "type": "VEC2"
    },
    {
      "bufferView": 1,
      "byteOffset": 1536,
      "componentType": 5126,
      "count": 96,
      "max": [
        0.9708096981048584,
        0.9725614786148071
      ],
      "min": [
        0.0057936906814575195,
        0.00579380989074707
      ],
      "type": "VEC2"
    },
    {
      "bufferView": 1,
      "byteOffset": 2304,
      "componentType": 5126,
      "count": 96,
      "max": [
        0.9708096981048584,
        0.9725614786148071
      ],
      "min": [
        0.0057936906814575195,
        0.00579380989074707
      ],
      "type": "VEC2"
    },
    {
      "bufferView": 0,
      "componentType": 5125,
      "count": 144,
      "type": "SCALAR"
    },
    {
      "bufferView": 2,
      "byteOffset": 2304,
      "componentType": 5126,
      "count": 96,
      "max": [
        0.9898675680160522,
        1.17935049533844,
        3.336702585220337
      ],
      "min": [
        -0.9898675680160522,
        -0.3910311162471771,
        -3.336702585220337
      ],
      "type": "VEC3"
    },
    {
      "bufferView": 2,
      "byteOffset": 3456,
      "componentType": 5126,
      "count": 96,
      "max": [
        0.9497344493865967,
        1.0,
        1.0
      ],
      "min": [
        -0.9497344493865967,
        -1.0,
        -1.0
      ],
      "type": "VEC3"
    },
    {
      "bufferView": 3,
      "byteOffset": 1536,
      "componentType": 5126,
      "count": 96,
      "max": [
        0.9497344493865967,
        3.1773679438629188e-06,
        1.0,
        1.0
      ],
      "min": [
        -0.9497345685958862,
        -0.3130576014518738,
        -1.0,
        1.0
      ],
      "type": "VEC4"
    },
    {
      "bufferView": 1,
      "byteOffset": 3072,
      "componentType": 5126,
      "count": 96,
      "max": [
        0.9942061901092529,
        0.9721872806549072
      ],
      "min": [
        0.005793705582618713,
        0.0057936906814575195
      ],
      "type": "VEC2"
    },
    {
      "bufferView": 1,
      "byteOffset": 3840,
      "componentType": 5126,
      "count": 96,
      "max": [
        0.9942061901092529,
        0.9721872806549072
      ],
      "min": [
        0.005793705582618713,
        0.0057936906814575195
      ],
      "type": "VEC2"
    },
    {
      "bufferView": 1,
      "byteOffset": 4608,
      "componentType": 5126,
      "count": 96,
      "max": [
        0.9942061901092529,
        0.9721872806549072
      ],
      "min": [
        0.005793705582618713,
        0.0057936906814575195
      ],
      "type": "VEC2"
    },
    {
      "bufferView": 1,
      "byteOffset": 5376,
      "componentType": 5126,
      "count": 96,
      "max": [
        0.9942061901092529,
        0.9721872806549072
      ],
      "min": [
        0.005793705582618713,
        0.0057936906814575195
      ],
      "type": "VEC2"
    },
    {
      "bufferView": 0,
      "byteOffset": 576,
      "componentType": 5125,
      "count": 144,
      "type": "SCALAR"
    },
    {
      "bufferView": 2,
      "byteOffset": 4608,
      "componentType": 5126,
      "count": 48,
      "max": [
        1.0820889472961426,
        -0.30809566378593445,
        3.4516427516937256
      ],
      "min": [
        -1.0820889472961426,
        -0.4344598650932312,
        -3.4516427516937256
      ],
      "type": "VEC3"
    },
    {
      "bufferView": 2,
      "byteOffset": 5184,
      "componentType": 5126,
      "count": 48,
      "max": [
        1.0,
        1.0,
        1.0
      ],
      "min": [
        -1.0,
        -1.0,
        -1.0
      ],
      "type": "VEC3"
    },
    {
      "bufferView": 3,
      "byteOffset": 3072,
      "componentType": 5126,
      "count": 48,
      "max": [
        0.0,
        0.0,
        -0.0,
        1.0
      ],
      "min": [
        0.0,
        -1.0,
        -1.0,
        1.0
      ],
      "type": "VEC4"
    },
    {
      "bufferView": 1,
      "byteOffset": 6144,
      "componentType": 5126,
      "count": 48,
      "max": [
        0.9720238447189331,
        0.9713891744613647
      ],
      "min": [
        0.524491548538208,
        0.0057936906814575195
      ],
      "type": "VEC2"
    },
    {
      "bufferView": 1,
      "byteOffset": 6528,
      "componentType": 5126,
      "count": 48,
      "max": [
        0.9720238447189331,
        0.9713891744613647
      ],
      "min": [
        0.524491548538208,
        0.0057936906814575195
      ],
      "type": "VEC2"
    },
    {
      "bufferView": 1,
      "byteOffset": 6912,
      "componentType": 5126,
      "count": 48,
      "max": [
        0.9720238447189331,
        0.9713891744613647
      ],
      "min": [
        0.524491548538208,
        0.0057936906814575195
      ],
      "type": "VEC2"
    },
    {
      "bufferView": 1,
      "byteOffset": 7296,
      "componentType": 5126,
      "count": 48,
      "max": [
        0.9720238447189331,
        0.9713891744613647
      ],
      "min": [
        0.524491548538208,
        0.0057936906814575195
      ],
      "type": "VEC2"
    },
    {
      "bufferView": 0,
      "byteOffset": 1152,
      "componentType": 5125,
      "count": 72,
      "type": "SCALAR"
    },
    {
      "bufferView": 2,
      "byteOffset": 5760,
      "componentType": 5126,
      "count": 238,
      "max": [
        0.669884204864502,
        0.6196708083152771,
        3.6949949264526367
      ],
      "min": [
        -0.669884204864502,
        0.2767676115036011,
        -3.6949949264526367
      ],
      "type": "VEC3"
    },
    {
      "bufferView": 2,
      "byteOffset": 8616,
      "componentType": 5126,
      "count": 238,
      "max": [
        0.9659258723258972,
        0.965925931930542,
        1.0
      ],
      "min": [
        -0.9659258723258972,
        -0.9659258127212524,
        -1.0
      ],
      "type": "VEC3"
    },
    {
      "bufferView": 3,
      "byteOffset": 3840,
      "componentType": 5126,
      "count": 238,
      "max": [
        0.965925931930542,
        0.965925931930542,
        3.644664445801027e-07,
        1.0
      ],
      "min": [
        -0.965925931930542,
        -0.25881922245025635,
        -3.644664445801027e-07,
        1.0
      ],
      "type": "VEC4"
    },
    {
      "bufferView": 1,
      "byteOffset": 7680,
      "componentType": 5126,
      "count": 238,
      "max": [
        0.9666895866394043,
        0.9896568655967712
      ],
      "min": [
        0.0057936906814575195,
        0.00579380989074707
      ],
      "type": "VEC2"
    },
    {
      "bufferView": 1,
      "byteOffset": 9584,
      "componentType": 5126,
      "count": 238,
      "max": [
        0.9666895866394043,
        0.9896568655967712
      ],
      "min": [
        0.0057936906814575195,
        0.00579380989074707
      ],
      "type": "VEC2"
    },
    {
      "bufferView": 1,
      "byteOffset": 11488,
      "componentType": 5126,
      "count": 238,
      "max": [
        0.9666895866394043,
        0.9896568655967712
      ],
      "min": [
        0.0057936906814575195,
        0.00579380989074707
      ],
      "type": "VEC2"
    },
    {
      "bufferView": 1,
      "byteOffset": 13392,
      "componentType": 5126,
      "count": 238,
      "max": [
        0.9666895866394043,
        0.9896568655967712
      ],
      "min": [
        0.0057936906814575195,
        0.00579380989074707
      ],
      "type": "VEC2"
    },
    {
      "bufferView": 0,
      "byteOffset": 1440,
      "componentType": 5125,
      "count": 360,
      "type": "SCALAR"
    },
    {
      "bufferView": 2,
      "byteOffset": 11472,
      "componentType": 5126,
      "count": 24,
      "max": [
        0.5859190821647644,
        0.4847107231616974,
        0.02153489924967289
      ],
      "min": [
        -0.5859190821647644,
        0.31862565875053406,
        -0.02153489924967289
      ],
      "type": "VEC3"
    },
    {
      "bufferView": 2,
      "byteOffset": 11760,
      "componentType": 5126,
      "count": 24,
      "max": [
        1.0,
        1.0,
        1.0
      ],
      "min": [
        -1.0,
        -1.0,
        -1.0
      ],
      "type": "VEC3"
    },
    {
      "bufferView": 3,
      "byteOffset": 7648,
      "componentType": 5126,
      "count": 24,
      "max": [
        0.0,
        0.0,
        1.0,
        1.0
      ],
      "min": [
        0.0,
        -1.0,
        -1.0,
        1.0
      ],
      "type": "VEC4"
    },
    {
      "bufferView": 1,
      "byteOffset": 15296,
      "componentType": 5126,
      "count": 24,
      "max": [
        0.9879119396209717,
        0.9077243804931641
      ],
      "min": [
        0.7281652092933655,
        0.16110950708389282
      ],
      "type": "VEC2"
    },
    {
      "bufferView": 1,
      "byteOffset": 15488,
      "componentType": 5126,
      "count": 24,
      "max": [
        0.9879119396209717,
        0.9077243804931641
      ],
      "min": [
        0.7281652092933655,
        0.16110950708389282
      ],
      "type": "VEC2"
    },
    {
      "bufferView": 1,
      "byteOffset": 15680,
      "componentType": 5126,
      "count": 24,
      "max": [
        0.9879119396209717,
        0.9077243804931641
      ],
      "min": [
        0.7281652092933655,
        0.16110950708389282
      ],
      "type": "VEC2"
    },
    {
      "bufferView": 1,
      "byteOffset": 15872,
      "componentType": 5126,
      "count": 24,
      "max": [
        0.9879119396209717,
        0.9077243804931641
      ],
      "min": [
        0.7281652092933655,
        0.16110950708389282
      ],
      "type": "VEC2"
    },
    {
      "bufferView": 0,
      "byteOffset": 2880,
      "componentType": 5125,
      "count": 36,
      "type": "SCALAR"
    },
    {
      "bufferView": 2,
      "byteOffset": 12048,
      "componentType": 5126,
      "count": 48,
      "max": [
        0.5859190821647644,
        0.4847107231616974,
        3.2973904609680176
      ],
      "min": [
        -0.5859190821647644,
        0.31862565875053406,
        -3.2973904609680176
      ],
      "type": "VEC3"
    },
    {
      "bufferView": 2,
      "byteOffset": 12624,
      "componentType": 5126,
      "count": 48,
      "max": [
        1.0,
        1.0,
        1.0
      ],
      "min": [
        -1.0,
        -1.0,
        -1.0
      ],
      "type": "VEC3"
    },
    {
      "bufferView": 3,
      "byteOffset": 8032,
      "componentType": 5126,
      "count": 48,
      "max": [
        0.0,
        0.0,
        1.0,
        1.0
      ],
      "min": [
        0.0,
        -1.0,
        -1.0,
        1.0
      ],
      "type": "VEC4"
    },
    {
      "bufferView": 1,
      "byteOffset": 16064,
      "componentType": 5126,
      "count": 48,
      "max": [
        0.9879121780395508,
        0.929557204246521
      ],
      "min": [
        0.42308056354522705,
        0.048423752188682556
      ],
      "type": "VEC2"
    },
    {
      "bufferView": 1,
      "byteOffset": 16448,
      "componentType": 5126,
      "count": 48,
      "max": [
        0.9879121780395508,
        0.929557204246521
      ],
      "min": [
        0.42308056354522705,
        0.048423752188682556
      ],
      "type": "VEC2"
    },
    {
      "bufferView": 1,
      "byteOffset": 16832,
      "componentType": 5126,
      "count": 48,
      "max": [
        0.9879121780395508,
        0.929557204246521
      ],
      "min": [
        0.42308056354522705,
        0.048423752188682556
      ],
      "type": "VEC2"
    },
    {
      "bufferView": 1,
      "byteOffset": 17216,
      "componentType": 5126,
      "count": 48,
      "max": [
        0.9879121780395508,
        0.929557204246521
      ],
      "min": [
        0.42308056354522705,
        0.048423752188682556
      ],
      "type": "VEC2"
    },
    {
      "bufferView": 0,
      "byteOffset": 3024,
      "componentType": 5125,
      "count": 72,
      "type": "SCALAR"
    }
  ],
  "asset": {
    "extras": {
      "author": "Anch0r (https://sketchfab.com/Anch0r)",
      "license": "CC-BY-4.0 (http://creativecommons.org/licenses/by/4.0/)",
      "source": "https://sketchfab.com/3d-models/table-7f6b4edc475b4fd6ba95c25f8d6e0007",
      "title": "Table"
    },
    "generator": "Sketchfab-12.66.0",
    "version": "2.0"
  },
  "bufferViews": [
    {
      "buffer": 0,
      "byteLength": 3312,
      "name": "floatBufferViews",
      "target": 34963
    },
    {
      "buffer": 0,
      "byteLength": 17600,
      "byteOffset": 3312,
      "byteStride": 8,
      "name": "floatBufferViews",
      "target": 34962
    },
    {
      "buffer": 0,
      "byteLength": 13200,
      "byteOffset": 20912,
      "byteStride": 12,
      "name": "floatBufferViews",
      "target": 34962
    },
    {
      "buffer": 0,
      "byteLength": 8800,
      "byteOffset": 34112,
      "byteStride": 16,
      "name": "floatBufferViews",
      "target": 34962
    }
  ],
  "buffers": [
    {
      "byteLength": 42912,
      "uri": "scene.bin"
    }
  ],
  "images": [
    {
      "uri": "textures/Material_baseColor.png"
    },
    {
      "uri": "textures/Material_metallicRoughness.png"
    },
    {
      "uri": "textures/Material_normal.png"
    },
    {
      "uri": "textures/None_baseColor.png"
    },
    {
      "uri": "textures/None_metallicRoughness.png"
    },
    {
      "uri": "textures/None_normal.png"
    }
  ],
  "materials": [
    {
      "doubleSided": true,
      "name": "Material",
      "normalTexture": {
        "index": 2
      },
      "pbrMetallicRoughness": {
        "baseColorTexture": {
          "index": 0
        },
        "metallicRoughnessTexture": {
          "index": 1
        }
      }
    },
    {
      "doubleSided": true,
      "name": "None",
      "normalTexture": {
        "index": 5
      },
      "pbrMetallicRoughness": {
        "baseColorTexture": {
          "index": 3
        },
        "metallicFactor": 0.0,
        "metallicRoughnessTexture": {
          "index": 4
        }
      }
    }
  ],
  "meshes": [
    {
      "name": "Object_0",
      "primitives": [
        {
          "attributes": {
            "NORMAL": 1,
            "POSITION": 0,
            "TANGENT": 2,
            "TEXCOORD_0": 3,
            "TEXCOORD_1": 4,
            "TEXCOORD_2": 5,
            "TEXCOORD_3": 6
          },
          "indices": 7,
          "material": 0,
          "mode": 4
        }
      ]
    },
    {
      "name": "Object_1",
      "primitives": [
        {
          "attributes": {
            "NORMAL": 9,
            "POSITION": 8,
            "TANGENT": 10,
            "TEXCOORD_0": 11,
            "TEXCOORD_1": 12,
            "TEXCOORD_2": 13,
            "TEXCOORD_3": 14
          },
          "indices": 15,
          "material": 1,
          "mode": 4
        }
      ]
    },
    {
      "name": "Object_2",
      "primitives": [
        {
          "attributes": {
            "NORMAL": 17,
            "POSITION": 16,
            "TANGENT": 18,
            "TEXCOORD_0": 19,
            "TEXCOORD_1": 20,
            "TEXCOORD_2": 21,
            "TEXCOORD_3": 22
          },
          "indices": 23,
          "material": 1,
          "mode": 4
        }
      ]
    },
    {
      "name": "Object_3",
      "primitives": [
        {
          "attributes": {
            "NORMAL": 25,
            "POSITION": 24,
            "TANGENT": 26,
            "TEXCOORD_0": 27,
            "TEXCOORD_1": 28,
            "TEXCOORD_2": 29,
            "TEXCOORD_3": 30
          },
          "indices": 31,
          "material": 1,
          "mode": 4
        }
      ]
    },
    {
      "name": "Object_4",
      "primitives": [
        {
          "attributes": {
            "NORMAL": 33,
            "POSITION": 32,
            "TANGENT": 34,
            "TEXCOORD_0": 35,
            "TEXCOORD_1": 36,
            "TEXCOORD_2": 37,
            "TEXCOORD_3": 38
          },
          "indices": 39,
          "material": 1,
          "mode": 4
        }
      ]
    },
    {
      "name": "Object_5",
      "primitives": [
        {
          "attributes": {
            "NORMAL": 41,
            "POSITION": 40,
            "TANGENT": 42,
            "TEXCOORD_0": 43,
            "TEXCOORD_1": 44,
            "TEXCOORD_2": 45,
            "TEXCOORD_3": 46
          },
          "indices": 47,
          "material": 1,
          "mode": 4
        }
      ]
    }
  ],
  "nodes": [
    {
      "children": [
        1
      ],
      "matrix": [
        1.0,
        0.0,
        0.0,
        0.0,
        0.0,
        2.220446049250313e-16,
        -1.0,
        0.0,
        0.0,
        1.0,
        2.220446049250313e-16,
        0.0,
        0.0,
        0.0,
        0.0,
        1.0
      ],
      "name": "Sketchfab_model"
    },
    {
      "children": [
        2
      ],
      "name": "root"
    },
    {
      "children": [
        3,
        5,
        7,
        9,
        11,
        13
      ],
      "matrix": [
        1.0,
        0.0,
        0.0,
        0.0,
        0.0,
        2.220446049250313e-16,
        1.0,
        0.0,
        0.0,
        -1.0,
        2.220446049250313e-16,
        0.0,
        0.0,
        0.0,
        0.0,
        1.0
      ],
      "name": "GLTF_SceneRootNode"
    },
    {
      "children": [
        4
      ],
      "name": "Cube_0"
    },
    {
      "mesh": 0,
      "name": "Object_4"
    },
    {
      "children": [
        6
      ],
      "name": "Cube.002_1"
    },
    {
      "mesh": 1,
      "name": "Object_6"
    },
    {
      "children": [
        8
      ],
      "name": "Cube.001_2"
    },
    {
      "mesh": 2,
      "name": "Object_8"
    },
    {
      "children": [
        10
      ],
      "name": "Cube.003_3"
    },
    {
      "mesh": 3,
      "name": "Object_10"
    },
    {
      "children": [
        12
      ],
      "name": "Cube.004_4"
    },
    {
      "mesh": 4,
      "name": "Object_12"
    },
    {
      "children": [
        14
      ],
      "name": "Cube.005_5"
    },
    {
      "mesh": 5,
      "name": "Object_14"
    }
  ],
  "samplers": [
    {
      "magFilter": 9729,
      "minFilter": 9987,
      "wrapS": 10497,
      "wrapT": 10497
    }
  ],
  "scene": 0,
  "scenes": [
    {
      "name": "Sketchfab_Scene",
      "nodes": [
        0
      ]
    }
  ],
  "textures": [
    {
      "sampler": 0,
      "source": 0
    },
    {
      "sampler": 0,
      "source": 1
    },
    {
      "sampler": 0,
      "source": 2
    },
    {
      "sampler": 0,
      "source": 3
    },
    {
      "sampler": 0,
      "source": 4
    },
    {
      "sampler": 0,
      "source": 5
    }
  ]
}
