{
  "accessors": [
    {
      "bufferView": 2,
      "componentType": 5126,
      "count": 11474,
      "max": [
        0.09573999792337418,
        0.06102000176906586,
        0.12255000323057175
      ],
      "min": [
        -0.07558999955654144,
        -0.06961999833583832,
        0.08048000186681747
      ],
      "type": "VEC3"
    },
    {
      "bufferView": 2,
      "byteOffset": 137688,
      "componentType": 5126,
      "count": 11474,
      "max": [
        0.999930739402771,
        0.9999532103538513,
        1.0
      ],
      "min": [
        -0.9999775290489197,
        -0.99996018409729,
        -0.8594951033592224
      ],
      "type": "VEC3"
    },
    {
      "bufferView": 1,
      "componentType": 5126,
      "count": 11474,
      "max": [
        0.9626830220222473,
        0.9979239702224731
      ],
      "min": [
        0.1110910028219223,
        0.5911610126495361
      ],
      "type": "VEC2"
    },
    {
      "bufferView": 0,
      "componentType": 5125,
      "count": 62355,
      "type": "SCALAR"
    }
  ],
  "asset": {
    "extras": {
      "author": "STONE CURATORS (https://sketchfab.com/stonecurators)",
      "license": "CC-BY-NC-SA-4.0 (http://creativecommons.org/licenses/by-nc-sa/4.0/)",
      "source": "https://sketchfab.com/3d-models/p969-sawn-07f2612a22ad4b639295720729e8a84a",
      "title": "P969 Sawn"
    },
    "generator": "Sketchfab-16.59.0",
    "version": "2.0"
  },
  "bufferViews": [
    {
      "buffer": 0,
      "byteLength": 249420,
      "name": "floatBufferViews",
      "target": 34963
    },
    {
      "buffer": 0,
      "byteLength": 91792,
      "byteOffset": 249420,
      "byteStride": 8,
      "name": "floatBufferViews",
      "target": 34962
    },
    {
      "buffer": 0,
      "byteLength": 275376,
      "byteOffset": 341212,
      "byteStride": 12,
      "name": "floatBufferViews",
      "target": 34962
    }
  ],
  "buffers": [
    {
      "byteLength": 616588,
      "uri": "scene.bin"
    }
  ],
  "extensionsUsed": [
    "KHR_materials_unlit"
  ],
  "images": [
    {
      "uri": "textures/main_baseColor.jpeg"
    }
  ],
  "materials": [
    {
      "doubleSided": true,
      "extensions": {
        "KHR_materials_unlit": {}
      },
      "name": "main",
      "pbrMetallicRoughness": {
        "baseColorTexture": {
          "index": 0
        },
        "metallicFactor": 0.0
      }
    }
  ],
  "meshes": [
    {
      "name": "Object_0",
      "primitives": [
        {
          "attributes": {
            "NORMAL": 1,
            "POSITION": 0,
            "TEXCOORD_0": 2
          },
          "indices": 3,
          "material": 0,
          "mode": 4
        }
      ]
    }
  ],
  "nodes": [
    {
      "children": [
        1
      ],
      "matrix": [
        1.0,
        0.0,
        0.0,
        0.0,
        0.0,
        2.220446049250313e-16,
        -1.0,
        0.0,
        0.0,
        1.0,
        2.220446049250313e-16,
        0.0,
        0.0,
        0.0,
        0.0,
        1.0
      ],
      "name": "Sketchfab_model"
    },
    {
      "children": [
        2
      ],
      "name": "Scaniverse.obj.cleaner.materialmerger.gles"
    },
    {
      "mesh": 0,
      "name": "Object_2"
    }
  ],
  "samplers": [
    {
      "magFilter": 9729,
      "minFilter": 9987,
      "wrapS": 10497,
      "wrapT": 10497
    }
  ],
  "scene": 0,
  "scenes": [
    {
      "name": "Sketchfab_Scene",
      "nodes": [
        0
      ]
    }
  ],
  "textures": [
    {
      "sampler": 0,
      "source": 0
    }
  ]
}
