{
  "accessors": [
    {
      "bufferView": 2,
      "componentType": 5126,
      "count": 4847,
      "max": [
        0.027342427521944046,
        0.027687162160873413,
        0.03184033930301666
      ],
      "min": [
        -0.0273439958691597,
        -0.02699926495552063,
        -0.022845879197120667
      ],
      "type": "VEC3"
    },
    {
      "bufferView": 2,
      "byteOffset": 58164,
      "componentType": 5126,
      "count": 4847,
      "max": [
        0.999997615814209,
        1.0,
        0.9999977350234985
      ],
      "min": [
        -0.999997615814209,
        -1.0,
        -0.9999975562095642
      ],
      "type": "VEC3"
    },
    {
      "bufferView": 1,
      "componentType": 5126,
      "count": 4847,
      "max": [
        0.9721485376358032,
        0.9985078573226929
      ],
      "min": [
        0.0014904700219631195,
        0.0014911293983459473
      ],
      "type": "VEC2"
    },
    {
      "bufferView": 0,
      "componentType": 5125,
      "count": 23760,
      "type": "SCALAR"
    },
    {
      "bufferView": 2,
      "byteOffset": 116328,
      "componentType": 5126,
      "count": 4847,
      "max": [
        0.027342386543750763,
        0.0276876799762249,
        0.03184047341346741
      ],
      "min": [
        -0.027344033122062683,
        -0.026998747140169144,
        -0.022845743224024773
      ],
      "type": "VEC3"
    },
    {
      "bufferView": 2,
      "byteOffset": 174492,
      "componentType": 5126,
      "count": 4847,
      "max": [
        0.999997615814209,
        1.0,
        0.9999977350234985
      ],
      "min": [
        -0.999997615814209,
        -1.0,
        -0.9999975562095642
      ],
      "type": "VEC3"
    },
    {
      "bufferView": 1,
      "byteOffset": 38776,
      "componentType": 5126,
      "count": 4847,
      "max": [
        0.9721485376358032,
        0.9985078573226929
      ],
      "min": [
        0.0014904700219631195,
        0.0014911293983459473
      ],
      "type": "VEC2"
    },
    {
      "bufferView": 0,
      "byteOffset": 95040,
      "componentType": 5125,
      "count": 23760,
      "type": "SCALAR"
    },
    {
      "bufferView": 2,
      "byteOffset": 232656,
      "componentType": 5126,
      "count": 68,
      "max": [
        1.8409069776535034,
        2.5,
        1.3969838619232178e-09
      ],
      "min": [
        -1.9094055891036987,
        -2.5,
        -1.3969838619232178e-09
      ],
      "type": "VEC3"
    },
    {
      "bufferView": 2,
      "byteOffset": 233472,
      "componentType": 5126,
      "count": 68,
      "max": [
        6.031657118210632e-11,
        6.690349663163175e-11,
        1.0
      ],
      "min": [
        -3.7119705087462762e-09,
        -3.783262148004951e-09,
        1.0
      ],
      "type": "VEC3"
    },
    {
      "bufferView": 1,
      "byteOffset": 77552,
      "componentType": 5126,
      "count": 68,
      "max": [
        1.0,
        1.0
      ],
      "min": [
        0.0,
        0.0
      ],
      "type": "VEC2"
    },
    {
      "bufferView": 0,
      "byteOffset": 190080,
      "componentType": 5125,
      "count": 210,
      "type": "SCALAR"
    },
    {
      "bufferView": 2,
      "byteOffset": 234288,
      "componentType": 5126,
      "count": 5,
      "max": [
        0.4672200679779053,
        9.313225746154785e-09,
        0.31672680377960205
      ],
      "min": [
        -0.6148228049278259,
        -1.3969838619232178e-08,
        -0.20963644981384277
      ],
      "type": "VEC3"
    },
    {
      "bufferView": 2,
      "byteOffset": 234348,
      "componentType": 5126,
      "count": 5,
      "max": [
        7.364497900397282e-11,
        -1.0,
        -4.41931824468611e-08
      ],
      "min": [
        7.364497900397282e-11,
        -1.0,
        -4.41931824468611e-08
      ],
      "type": "VEC3"
    },
    {
      "bufferView": 1,
      "byteOffset": 78096,
      "componentType": 5126,
      "count": 5,
      "max": [
        0.5882701873779297,
        0.7805595397949219
      ],
      "min": [
        0.299749493598938,
        0.6752868890762329
      ],
      "type": "VEC2"
    },
    {
      "bufferView": 0,
      "byteOffset": 190920,
      "componentType": 5125,
      "count": 9,
      "type": "SCALAR"
    },
    {
      "bufferView": 2,
      "byteOffset": 234408,
      "componentType": 5126,
      "count": 42,
      "max": [
        0.4127258062362671,
        0.018188605085015297,
        0.2831593155860901
      ],
      "min": [
        -0.4127248227596283,
        -0.018187986686825752,
        -0.28315871953964233
      ],
      "type": "VEC3"
    },
    {
      "bufferView": 2,
      "byteOffset": 234912,
      "componentType": 5126,
      "count": 42,
      "max": [
        1.0,
        1.659947884036228e-06,
        1.0
      ],
      "min": [
        -1.0,
        -1.0,
        -1.0
      ],
      "type": "VEC3"
    },
    {
      "bufferView": 3,
      "componentType": 5126,
      "count": 42,
      "max": [
        1.0,
        1.1379557918189676e-06,
        1.0,
        1.0
      ],
      "min": [
        -1.0,
        -1.1005880651282496e-06,
        -1.0,
        1.0
      ],
      "type": "VEC4"
    },
    {
      "bufferView": 1,
      "byteOffset": 78136,
      "componentType": 5126,
      "count": 42,
      "max": [
        0.9963541030883789,
        0.15347138047218323
      ],
      "min": [
        0.009148508310317993,
        0.006999939680099487
      ],
      "type": "VEC2"
    },
    {
      "bufferView": 1,
      "byteOffset": 78472,
      "componentType": 5126,
      "count": 42,
      "max": [
        0.9963541030883789,
        0.15347138047218323
      ],
      "min": [
        0.009148508310317993,
        0.006999939680099487
      ],
      "type": "VEC2"
    },
    {
      "bufferView": 1,
      "byteOffset": 78808,
      "componentType": 5126,
      "count": 42,
      "max": [
        0.9963541030883789,
        0.15347138047218323
      ],
      "min": [
        0.009148508310317993,
        0.006999939680099487
      ],
      "type": "VEC2"
    },
    {
      "bufferView": 0,
      "byteOffset": 190956,
      "componentType": 5125,
      "count": 72,
      "type": "SCALAR"
    },
    {
      "bufferView": 4,
      "componentType": 5126,
      "count": 500,
      "max": [
        16.66666603088379
      ],
      "min": [
        0.03333333507180214
      ],
      "type": "SCALAR"
    },
    {
      "bufferView": 6,
      "componentType": 5126,
      "count": 500,
      "max": [
        1.0,
        0.00812018197029829,
        0.09532433748245239,
        2.6631610694494157e-07
      ],
      "min": [
        0.9918211102485657,
        -0.0057206000201404095,
        -0.06947208940982819,
        -0.08472441136837006
      ],
      "type": "VEC4"
    },
    {
      "bufferView": 4,
      "byteOffset": 2000,
      "componentType": 5126,
      "count": 500,
      "max": [
        16.66666603088379
      ],
      "min": [
        0.03333333507180214
      ],
      "type": "SCALAR"
    },
    {
      "bufferView": 6,
      "byteOffset": 8000,
      "componentType": 5126,
      "count": 500,
      "max": [
        1.0,
        0.00810855533927679,
        0.09532532840967178,
        2.6631610694494157e-07
      ],
      "min": [
        0.9918314218521118,
        -0.005605002399533987,
        -0.06953093409538269,
        -0.08472441136837006
      ],
      "type": "VEC4"
    },
    {
      "bufferView": 4,
      "byteOffset": 4000,
      "componentType": 5126,
      "count": 401,
      "max": [
        16.66666603088379
      ],
      "min": [
        0.03333333507180214
      ],
      "type": "SCALAR"
    },
    {
      "bufferView": 5,
      "componentType": 5126,
      "count": 401,
      "max": [
        80.5750961303711,
        109.60712432861328,
        -0.9704550504684448
      ],
      "min": [
        -16.42490005493164,
        109.60712432861328,
        -0.9704550504684448
      ],
      "type": "VEC3"
    }
  ],
  "animations": [
    {
      "channels": [
        {
          "sampler": 0,
          "target": {
            "node": 4,
            "path": "rotation"
          }
        },
        {
          "sampler": 1,
          "target": {
            "node": 6,
            "path": "rotation"
          }
        },
        {
          "sampler": 2,
          "target": {
            "node": 10,
            "path": "translation"
          }
        }
      ],
      "name": "Scene",
      "samplers": [
        {
          "input": 23,
          "interpolation": "LINEAR",
          "output": 24
        },
        {
          "input": 25,
          "interpolation": "LINEAR",
          "output": 26
        },
        {
          "input": 27,
          "interpolation": "LINEAR",
          "output": 28
        }
      ]
    }
  ],
  "asset": {
    "extras": {
      "author": "Jungle Jim (https://sketchfab.com/jungle_jim)",
      "license": "CC-BY-4.0 (http://creativecommons.org/licenses/by/4.0/)",
      "source": "https://sketchfab.com/3d-models/peeking-16th-century-painting-animated-78cf31a5effe4260ade7d4ad9b57882f",
      "title": "Peeking 16th Century Painting (animated)"
    },
    "generator": "Sketchfab-16.61.0",
    "version": "2.0"
  },
  "bufferViews": [
    {
      "buffer": 0,
      "byteLength": 191244,
      "name": "floatBufferViews",
      "target": 34963
    },
    {
      "buffer": 0,
      "byteLength": 79144,
      "byteOffset": 191244,
      "byteStride": 8,
      "name": "floatBufferViews",
      "target": 34962
    },
    {
      "buffer": 0,
      "byteLength": 235416,
      "byteOffset": 270388,
      "byteStride": 12,
      "name": "floatBufferViews",
      "target": 34962
    },
    {
      "buffer": 0,
      "byteLength": 672,
      "byteOffset": 505804,
      "byteStride": 16,
      "name": "floatBufferViews",
      "target": 34962
    },
    {
      "buffer": 0,
      "byteLength": 5604,
      "byteOffset": 506476,
      "name": "floatBufferViews"
    },
    {
      "buffer": 0,
      "byteLength": 4812,
      "byteOffset": 512080,
      "byteStride": 12,
      "name": "floatBufferViews"
    },
    {
      "buffer": 0,
      "byteLength": 16000,
      "byteOffset": 516892,
      "byteStride": 16,
      "name": "floatBufferViews"
    }
  ],
  "buffers": [
    {
      "byteLength": 532892,
      "uri": "scene.bin"
    }
  ],
  "images": [
    {
      "uri": "textures/Cartoon_Blue_Gray_baseColor.png"
    },
    {
      "uri": "textures/Empty_baseColor.jpeg"
    },
    {
      "uri": "textures/Oak_Veneer_01WoodPlanks_baseColor.png"
    },
    {
      "uri": "textures/Oak_Veneer_01WoodPlanks_normal.png"
    }
  ],
  "materials": [
    {
      "doubleSided": true,
      "name": "Cartoon_Blue_Gray",
      "pbrMetallicRoughness": {
        "baseColorTexture": {
          "index": 0
        },
        "metallicFactor": 0.0
      }
    },
    {
      "doubleSided": true,
      "name": "Empty",
      "pbrMetallicRoughness": {
        "baseColorTexture": {
          "index": 1
        },
        "metallicFactor": 0.0,
        "roughnessFactor": 0.9367544467966324
      }
    },
    {
      "doubleSided": true,
      "name": "Oak_Veneer_01WoodPlanks",
      "normalTexture": {
        "index": 3
      },
      "pbrMetallicRoughness": {
        "baseColorTexture": {
          "index": 2
        },
        "metallicFactor": 0.0,
        "roughnessFactor": 0.717157287525381
      }
    }
  ],
  "meshes": [
    {
      "name": "2.001_Cartoon_Blue_Gray_0",
      "primitives": [
        {
          "attributes": {
            "NORMAL": 1,
            "POSITION": 0,
            "TEXCOORD_0": 2
          },
          "indices": 3,
          "material": 0,
          "mode": 4
        }
      ]
    },
    {
      "name": "2.002_Cartoon_Blue_Gray_0",
      "primitives": [
        {
          "attributes": {
            "NORMAL": 5,
            "POSITION": 4,
            "TEXCOORD_0": 6
          },
          "indices": 7,
          "material": 0,
          "mode": 4
        }
      ]
    },
    {
      "name": "Empty.001_Empty_0",
      "primitives": [
        {
          "attributes": {
            "NORMAL": 9,
            "POSITION": 8,
            "TEXCOORD_0": 10
          },
          "indices": 11,
          "material": 1,
          "mode": 4
        }
      ]
    },
    {
      "name": "Empty.002_Empty_0",
      "primitives": [
        {
          "attributes": {
            "NORMAL": 13,
            "POSITION": 12,
            "TEXCOORD_0": 14
          },
          "indices": 15,
          "material": 1,
          "mode": 4
        }
      ]
    },
    {
      "name": "Frame_B_Oak_Veneer_01WoodPlanks_0",
      "primitives": [
        {
          "attributes": {
            "NORMAL": 17,
            "POSITION": 16,
            "TANGENT": 18,
            "TEXCOORD_0": 19,
            "TEXCOORD_1": 20,
            "TEXCOORD_2": 21
          },
          "indices": 22,
          "material": 2,
          "mode": 4
        }
      ]
    }
  ],
  "nodes": [
    {
      "children": [
        1
      ],
      "matrix": [
        1.0,
        0.0,
        0.0,
        0.0,
        0.0,
        2.220446049250313e-16,
        -1.0,
        0.0,
        0.0,
        1.0,
        2.220446049250313e-16,
        0.0,
        0.0,
        0.0,
        0.0,
        1.0
      ],
      "name": "Sketchfab_model"
    },
    {
      "children": [
        2
      ],
      "matrix": [
        0.009999999776482582,
        0.0,
        0.0,
        0.0,
        0.0,
        0.0,
        0.009999999776482582,
        0.0,
        0.0,
        -0.009999999776482582,
        0.0,
        0.0,
        0.0,
        0.0,
        0.0,
        1.0
      ],
      "name": "e003bae3c73e4fe38d077a0c5965db0f.fbx"
    },
    {
      "children": [
        3
      ],
      "name": "Object_2"
    },
    {
      "children": [
        4,
        6,
        8,
        10,
        12
      ],
      "name": "RootNode"
    },
    {
      "children": [
        5
      ],
      "name": "2.001",
      "rotation": [
        0.9948186278343201,
        -0.004579601809382439,
        -0.052345212548971176,
        -0.087035171687603
      ],
      "scale": [
        574.9357299804688,
        574.9356079101563,
        574.9356079101563
      ],
      "translation": [
        -8.60256290435791,
        111.14753723144531,
        -16.128938674926758
      ]
    },
    {
      "mesh": 0,
      "name": "2.001_Cartoon_Blue_Gray_0"
    },
    {
      "children": [
        7
      ],
      "name": "2.002",
      "rotation": [
        0.9948186278343201,
        -0.004579601809382439,
        -0.052345212548971176,
        -0.087035171687603
      ],
      "scale": [
        574.9357299804688,
        574.9356079101563,
        574.9356079101563
      ],
      "translation": [
        -53.15192794799805,
        110.94258117675781,
        -16.76355743408203
      ]
    },
    {
      "mesh": 1,
      "name": "2.002_Cartoon_Blue_Gray_0"
    },
    {
      "children": [
        9
      ],
      "name": "Empty.001",
      "rotation": [
        2.1855694143368964e-08,
        -6.365416070320217e-16,
        -2.9124745282160802e-08,
        1.0
      ],
      "scale": [
        100.0,
        100.0,
        100.0
      ]
    },
    {
      "mesh": 2,
      "name": "Empty.001_Empty_0"
    },
    {
      "children": [
        11
      ],
      "name": "Empty.002",
      "rotation": [
        -0.7071068286895752,
        0.0,
        0.0,
        0.7071067094802856
      ],
      "scale": [
        100.0,
        100.0,
        100.0
      ],
      "translation": [
        80.5750961303711,
        109.60712432861328,
        -0.9704550504684448
      ]
    },
    {
      "mesh": 3,
      "name": "Empty.002_Empty_0"
    },
    {
      "children": [
        13
      ],
      "name": "Frame_B",
      "rotation": [
        -0.5,
        0.5,
        -0.5,
        0.4999999701976776
      ],
      "scale": [
        657.6870727539063,
        657.6870727539063,
        668.0531616210938
      ],
      "translation": [
        -1.20618736743927,
        0.0,
        0.0
      ]
    },
    {
      "mesh": 4,
      "name": "Frame_B_Oak_Veneer_01WoodPlanks_0"
    }
  ],
  "samplers": [
    {
      "magFilter": 9729,
      "minFilter": 9987,
      "wrapS": 10497,
      "wrapT": 10497
    },
    {
      "magFilter": 9729,
      "minFilter": 9987,
      "wrapS": 33071,
      "wrapT": 33071
    }
  ],
  "scene": 0,
  "scenes": [
    {
      "name": "Sketchfab_Scene",
      "nodes": [
        0
      ]
    }
  ],
  "textures": [
    {
      "sampler": 0,
      "source": 0
    },
    {
      "sampler": 1,
      "source": 1
    },
    {
      "sampler": 0,
      "source": 2
    },
    {
      "sampler": 0,
      "source": 3
    }
  ]
}
