{
  "accessors": [
    {
      "bufferView": 2,
      "componentType": 5126,
      "count": 7843,
      "max": [
        0.8978644013404846,
        0.14557157456874847,
        1.2914350032806396
      ],
      "min": [
        -0.8893404006958008,
        -0.1755084991455078,
        -1.015427589416504
      ],
      "type": "VEC3"
    },
    {
      "bufferView": 2,
      "byteOffset": 94116,
      "componentType": 5126,
      "count": 7843,
      "max": [
        0.9999945759773254,
        0.9855252504348755,
        0.9790921211242676
      ],
      "min": [
        -0.9999939799308777,
        -0.9999997615814209,
        -0.9997274279594421
      ],
      "type": "VEC3"
    },
    {
      "bufferView": 1,
      "componentType": 5126,
      "count": 7843,
      "max": [
        0.999631404876709,
        0.9968260526657104
      ],
      "min": [
        0.000244140625,
        0.0002483321586623788
      ],
      "type": "VEC2"
    },
    {
      "bufferView": 1,
      "byteOffset": 62744,
      "componentType": 5126,
      "count": 7843,
      "max": [
        0.999631404876709,
        0.9968260526657104
      ],
      "min": [
        0.000244140625,
        0.0002483321586623788
      ],
      "type": "VEC2"
    },
    {
      "bufferView": 0,
      "componentType": 5125,
      "count": 29694,
      "type": "SCALAR"
    },
    {
      "bufferView": 2,
      "byteOffset": 188232,
      "componentType": 5126,
      "count": 140,
      "max": [
        0.8978644013404846,
        0.18515010178089142,
        1.291435718536377
      ],
      "min": [
        -0.8894109129905701,
        -0.17522220313549042,
        -1.015427589416504
      ],
      "type": "VEC3"
    },
    {
      "bufferView": 2,
      "byteOffset": 189912,
      "componentType": 5126,
      "count": 140,
      "max": [
        1.0,
        0.7070783972740173,
        0.9741353988647461
      ],
      "min": [
        -1.0,
        -0.9782060980796814,
        -0.8423832058906555
      ],
      "type": "VEC3"
    },
    {
      "bufferView": 1,
      "byteOffset": 125488,
      "componentType": 5126,
      "count": 140,
      "max": [
        0.9997243285179138,
        0.9675291776657104
      ],
      "min": [
        0.000244140625,
        0.010084171779453754
      ],
      "type": "VEC2"
    },
    {
      "bufferView": 0,
      "byteOffset": 118776,
      "componentType": 5125,
      "count": 270,
      "type": "SCALAR"
    }
  ],
  "asset": {
    "extras": {
      "author": "Christians - The Survey Company (https://sketchfab.com/ChristiansTheSurveyCompany)",
      "license": "CC-BY-4.0 (http://creativecommons.org/licenses/by/4.0/)",
      "source": "https://sketchfab.com/3d-models/large-wooden-tower-door-71de89c6da4f4b92b9a83ad06981bede",
      "title": "Large Wooden Tower Door"
    },
    "generator": "Sketchfab-16.61.0",
    "version": "2.0"
  },
  "bufferViews": [
    {
      "buffer": 0,
      "byteLength": 119856,
      "name": "floatBufferViews",
      "target": 34963
    },
    {
      "buffer": 0,
      "byteLength": 126608,
      "byteOffset": 119856,
      "byteStride": 8,
      "name": "floatBufferViews",
      "target": 34962
    },
    {
      "buffer": 0,
      "byteLength": 191592,
      "byteOffset": 246464,
      "byteStride": 12,
      "name": "floatBufferViews",
      "target": 34962
    }
  ],
  "buffers": [
    {
      "byteLength": 438056,
      "uri": "scene.bin"
    }
  ],
  "extensionsUsed": [
    "KHR_materials_specular"
  ],
  "images": [
    {
      "uri": "textures/Material.001_baseColor.jpeg"
    }
  ],
  "materials": [
    {
      "doubleSided": true,
      "extensions": {
        "KHR_materials_specular": {
          "specularColorFactor": [
            1.0,
            1.0,
            1.0
          ],
          "specularFactor": 0.0
        }
      },
      "name": "Material.001",
      "pbrMetallicRoughness": {
        "baseColorTexture": {
          "index": 0
        },
        "metallicFactor": 0.0,
        "roughnessFactor": 0.8211145618000169
      }
    },
    {
      "doubleSided": true,
      "extensions": {
        "KHR_materials_specular": {
          "specularColorFactor": [
            1.0,
            1.0,
            1.0
          ],
          "specularFactor": 0.0
        }
      },
      "name": "Material.002",
      "pbrMetallicRoughness": {
        "baseColorFactor": [
          0.0466651,
          0.0466651,
          0.0466651,
          1.0
        ],
        "metallicFactor": 0.0,
        "roughnessFactor": 0.9852431996760477
      }
    }
  ],
  "meshes": [
    {
      "name": "Doorway_1_Material.001_0",
      "primitives": [
        {
          "attributes": {
            "NORMAL": 1,
            "POSITION": 0,
            "TEXCOORD_0": 2,
            "TEXCOORD_1": 3
          },
          "indices": 4,
          "material": 0,
          "mode": 4
        }
      ]
    },
    {
      "name": "Doorway_1_Material.002_0",
      "primitives": [
        {
          "attributes": {
            "NORMAL": 6,
            "POSITION": 5,
            "TEXCOORD_0": 7
          },
          "indices": 8,
          "material": 1,
          "mode": 4
        }
      ]
    }
  ],
  "nodes": [
    {
      "children": [
        1
      ],
      "matrix": [
        0.9999606609344482,
        0.00886851642280817,
        1.969206225373592e-18,
        0.0,
        0.0,
        2.220446049250313e-16,
        -1.0,
        0.0,
        -0.00886851642280817,
        0.9999606609344482,
        2.2203586989776275e-16,
        0.0,
        0.0,
        0.0,
        0.0,
        1.0
      ],
      "name": "Sketchfab_model"
    },
    {
      "children": [
        2
      ],
      "matrix": [
        0.009999999776482582,
        0.0,
        0.0,
        0.0,
        0.0,
        0.0,
        0.009999999776482582,
        0.0,
        0.0,
        -0.009999999776482582,
        0.0,
        0.0,
        0.0,
        0.0,
        0.0,
        1.0
      ],
      "name": "Doorway_1.fbx"
    },
    {
      "children": [
        3
      ],
      "name": "RootNode"
    },
    {
      "children": [
        4,
        5
      ],
      "matrix": [
        100.0,
        0.0,
        0.0,
        0.0,
        0.0,
        -1.629206793918314e-05,
        -99.99999999999868,
        0.0,
        0.0,
        99.99999999999868,
        -1.629206793918314e-05,
        0.0,
        0.0,
        0.0,
        0.0,
        1.0
      ],
      "name": "Doorway_1"
    },
    {
      "mesh": 0,
      "name": "Doorway_1_Material.001_0"
    },
    {
      "mesh": 1,
      "name": "Doorway_1_Material.002_0"
    }
  ],
  "samplers": [
    {
      "magFilter": 9729,
      "minFilter": 9987,
      "wrapS": 10497,
      "wrapT": 10497
    }
  ],
  "scene": 0,
  "scenes": [
    {
      "name": "Sketchfab_Scene",
      "nodes": [
        0
      ]
    }
  ],
  "textures": [
    {
      "sampler": 0,
      "source": 0
    }
  ]
}
