{
  "accessors": [
    {
      "bufferView": 2,
      "componentType": 5126,
      "count": 489,
      "max": [
        0.5926929712295532,
        0.21127499639987946,
        0.8227360248565674
      ],
      "min": [
        0.1916549950838089,
        -0.35985100269317627,
        0.7718340158462524
      ],
      "type": "VEC3"
    },
    {
      "bufferView": 2,
      "byteOffset": 5868,
      "componentType": 5126,
      "count": 489,
      "max": [
        1.0,
        1.0,
        1.0
      ],
      "min": [
        -1.0,
        -1.0,
        -1.0
      ],
      "type": "VEC3"
    },
    {
      "bufferView": 3,
      "componentType": 5126,
      "count": 489,
      "max": [
        1.0,
        0.9520879983901978,
        1.0,
        1.0
      ],
      "min": [
        -1.0,
        -0.9563390016555786,
        -1.0,
        1.0
      ],
      "type": "VEC4"
    },
    {
      "bufferView": 1,
      "componentType": 5126,
      "count": 489,
      "max": [
        0.3952069878578186,
        0.9948400259017944
      ],
      "min": [
        0.008257269859313965,
        0.5035039782524109
      ],
      "type": "VEC2"
    },
    {
      "bufferView": 0,
      "componentType": 5125,
      "count": 1848,
      "type": "SCALAR"
    },
    {
      "bufferView": 2,
      "byteOffset": 11736,
      "componentType": 5126,
      "count": 489,
      "max": [
        0.5926929712295532,
        0.21127499639987946,
        -0.7947480082511902
      ],
      "min": [
        0.1916549950838089,
        -0.35985100269317627,
        -0.8456509709358215
      ],
      "type": "VEC3"
    },
    {
      "bufferView": 2,
      "byteOffset": 17604,
      "componentType": 5126,
      "count": 489,
      "max": [
        1.0,
        1.0,
        1.0
      ],
      "min": [
        -1.0,
        -1.0,
        -1.0
      ],
      "type": "VEC3"
    },
    {
      "bufferView": 3,
      "byteOffset": 7824,
      "componentType": 5126,
      "count": 489,
      "max": [
        1.0,
        0.9520879983901978,
        1.0,
        1.0
      ],
      "min": [
        -1.0,
        -0.9563390016555786,
        -1.0,
        1.0
      ],
      "type": "VEC4"
    },
    {
      "bufferView": 1,
      "byteOffset": 3912,
      "componentType": 5126,
      "count": 489,
      "max": [
        0.3952069878578186,
        0.9948400259017944
      ],
      "min": [
        0.008257269859313965,
        0.5035039782524109
      ],
      "type": "VEC2"
    },
    {
      "bufferView": 0,
      "byteOffset": 7392,
      "componentType": 5125,
      "count": 1848,
      "type": "SCALAR"
    },
    {
      "bufferView": 2,
      "byteOffset": 23472,
      "componentType": 5126,
      "count": 10274,
      "max": [
        -0.12266699969768524,
        -0.04000110179185867,
        0.8021000027656555
      ],
      "min": [
        -0.6053580045700073,
        -0.30651700496673584,
        -0.8029099702835083
      ],
      "type": "VEC3"
    },
    {
      "bufferView": 2,
      "byteOffset": 146760,
      "componentType": 5126,
      "count": 10274,
      "max": [
        1.0,
        1.0,
        1.0
      ],
      "min": [
        -1.0,
        -1.0,
        -1.0
      ],
      "type": "VEC3"
    },
    {
      "bufferView": 3,
      "byteOffset": 15648,
      "componentType": 5126,
      "count": 10274,
      "max": [
        0.9999970197677612,
        1.0,
        1.0,
        1.0
      ],
      "min": [
        -0.9999939799308777,
        -0.9979959726333618,
        -1.0,
        1.0
      ],
      "type": "VEC4"
    },
    {
      "bufferView": 1,
      "byteOffset": 7824,
      "componentType": 5126,
      "count": 10274,
      "max": [
        0.6879910230636597,
        0.6998199820518494
      ],
      "min": [
        0.29002898931503296,
        0.3432430028915405
      ],
      "type": "VEC2"
    },
    {
      "bufferView": 0,
      "byteOffset": 14784,
      "componentType": 5125,
      "count": 42024,
      "type": "SCALAR"
    },
    {
      "bufferView": 2,
      "byteOffset": 270048,
      "componentType": 5126,
      "count": 1708,
      "max": [
        0.2248850017786026,
        0.2282319962978363,
        -0.22979800403118134
      ],
      "min": [
        0.16389699280261993,
        -0.29104799032211304,
        -0.7023329734802246
      ],
      "type": "VEC3"
    },
    {
      "bufferView": 2,
      "byteOffset": 290544,
      "componentType": 5126,
      "count": 1708,
      "max": [
        1.0,
        1.0,
        1.0
      ],
      "min": [
        -1.0,
        -1.0,
        -1.0
      ],
      "type": "VEC3"
    },
    {
      "bufferView": 3,
      "byteOffset": 180032,
      "componentType": 5126,
      "count": 1708,
      "max": [
        1.0,
        1.0,
        1.0,
        1.0
      ],
      "min": [
        -1.0,
        -1.0,
        -1.0,
        1.0
      ],
      "type": "VEC4"
    },
    {
      "bufferView": 1,
      "byteOffset": 90016,
      "componentType": 5126,
      "count": 1708,
      "max": [
        0.7481129765510559,
        0.7481170296669006
      ],
      "min": [
        0.25188198685646057,
        0.25188300013542175
      ],
      "type": "VEC2"
    },
    {
      "bufferView": 0,
      "byteOffset": 182880,
      "componentType": 5125,
      "count": 5598,
      "type": "SCALAR"
    },
    {
      "bufferView": 2,
      "byteOffset": 311040,
      "componentType": 5126,
      "count": 986,
      "max": [
        0.665440022945404,
        0.38168999552726746,
        1.0
      ],
      "min": [
        -0.665440022945404,
        -0.32315200567245483,
        -1.0
      ],
      "type": "VEC3"
    },
    {
      "bufferView": 2,
      "byteOffset": 322872,
      "componentType": 5126,
      "count": 986,
      "max": [
        1.0,
        1.0,
        1.0
      ],
      "min": [
        -1.0,
        -1.0,
        -1.0
      ],
      "type": "VEC3"
    },
    {
      "bufferView": 3,
      "byteOffset": 207360,
      "componentType": 5126,
      "count": 986,
      "max": [
        1.0,
        0.9998189806938171,
        1.0,
        1.0
      ],
      "min": [
        -1.0,
        -0.9998210072517395,
        -1.0,
        -1.0
      ],
      "type": "VEC4"
    },
    {
      "bufferView": 1,
      "byteOffset": 103680,
      "componentType": 5126,
      "count": 986,
      "max": [
        1.0,
        0.7428730130195618
      ],
      "min": [
        0.0,
        0.0
      ],
      "type": "VEC2"
    },
    {
      "bufferView": 0,
      "byteOffset": 205272,
      "componentType": 5125,
      "count": 4422,
      "type": "SCALAR"
    },
    {
      "bufferView": 2,
      "byteOffset": 334704,
      "componentType": 5126,
      "count": 144,
      "max": [
        -0.6042550206184387,
        0.3432709872722626,
        0.009114050306379795
      ],
      "min": [
        -0.6253439784049988,
        0.0977173000574112,
        -0.3305610120296478
      ],
      "type": "VEC3"
    },
    {
      "bufferView": 2,
      "byteOffset": 336432,
      "componentType": 5126,
      "count": 144,
      "max": [
        1.0,
        1.0,
        1.0
      ],
      "min": [
        -1.0,
        -1.0,
        -1.0
      ],
      "type": "VEC3"
    },
    {
      "bufferView": 3,
      "byteOffset": 223136,
      "componentType": 5126,
      "count": 144,
      "max": [
        1.0,
        1.0,
        1.0,
        1.0
      ],
      "min": [
        -1.0,
        -1.0,
        -1.0,
        1.0
      ],
      "type": "VEC4"
    },
    {
      "bufferView": 1,
      "byteOffset": 111568,
      "componentType": 5126,
      "count": 144,
      "max": [
        0.632860004901886,
        0.6825180053710938
      ],
      "min": [
        0.4179370105266571,
        0.461901992559433
      ],
      "type": "VEC2"
    },
    {
      "bufferView": 0,
      "byteOffset": 222960,
      "componentType": 5125,
      "count": 384,
      "type": "SCALAR"
    },
    {
      "bufferView": 2,
      "byteOffset": 338160,
      "componentType": 5126,
      "count": 414,
      "max": [
        0.19011400640010834,
        0.4067299962043762,
        0.9705060124397278
      ],
      "min": [
        0.1690240055322647,
        -0.4067299962043762,
        -0.7917400002479553
      ],
      "type": "VEC3"
    },
    {
      "bufferView": 2,
      "byteOffset": 343128,
      "componentType": 5126,
      "count": 414,
      "max": [
        1.0,
        1.0,
        1.0
      ],
      "min": [
        -1.0,
        -1.0,
        -1.0
      ],
      "type": "VEC3"
    },
    {
      "bufferView": 3,
      "byteOffset": 225440,
      "componentType": 5126,
      "count": 414,
      "max": [
        1.0,
        1.0,
        1.0,
        1.0
      ],
      "min": [
        -1.0,
        -1.0,
        -1.0,
        1.0
      ],
      "type": "VEC4"
    },
    {
      "bufferView": 1,
      "byteOffset": 112720,
      "componentType": 5126,
      "count": 414,
      "max": [
        0.7646359801292419,
        0.9204419851303101
      ],
      "min": [
        0.1580599993467331,
        0.27798399329185486
      ],
      "type": "VEC2"
    },
    {
      "bufferView": 0,
      "byteOffset": 224496,
      "componentType": 5125,
      "count": 1104,
      "type": "SCALAR"
    },
    {
      "bufferView": 2,
      "byteOffset": 348096,
      "componentType": 5126,
      "count": 18,
      "max": [
        0.6654379963874817,
        -0.30371400713920593,
        0.9725059866905212
      ],
      "min": [
        -0.6072220206260681,
        -0.30371400713920593,
        -0.9732249975204468
      ],
      "type": "VEC3"
    },
    {
      "bufferView": 2,
      "byteOffset": 348312,
      "componentType": 5126,
      "count": 18,
      "max": [
        0.0,
        1.0,
        1.3861499628936553e-16
      ],
      "min": [
        0.0,
        1.0,
        -1.3861499628936553e-16
      ],
      "type": "VEC3"
    },
    {
      "bufferView": 3,
      "byteOffset": 232064,
      "componentType": 5126,
      "count": 18,
      "max": [
        0.0,
        1.3861499628936553e-16,
        1.0,
        1.0
      ],
      "min": [
        -5.45542000462973e-10,
        -1.3861499628936553e-16,
        1.0,
        1.0
      ],
      "type": "VEC4"
    },
    {
      "bufferView": 1,
      "byteOffset": 116032,
      "componentType": 5126,
      "count": 18,
      "max": [
        0.9763579964637756,
        0.7848560214042664
      ],
      "min": [
        0.06705830246210098,
        0.21948599815368652
      ],
      "type": "VEC2"
    },
    {
      "bufferView": 0,
      "byteOffset": 228912,
      "componentType": 5125,
      "count": 60,
      "type": "SCALAR"
    }
  ],
  "asset": {
    "extras": {
      "author": "lumoize (https://sketchfab.com/lumoize)",
      "license": "CC-BY-4.0 (http://creativecommons.org/licenses/by/4.0/)",
      "source": "https://sketchfab.com/3d-models/castle-dungeon-8ebe42e0151a4403aabc429025f5f998",
      "title": "Castle Dungeon"
    },
    "generator": "Sketchfab-12.67.0",
    "version": "2.0"
  },
  "bufferViews": [
    {
      "buffer": 0,
      "byteLength": 229152,
      "name": "floatBufferViews",
      "target": 34963
    },
    {
      "buffer": 0,
      "byteLength": 116176,
      "byteOffset": 229152,
      "byteStride": 8,
      "name": "floatBufferViews",
      "target": 34962
    },
    {
      "buffer": 0,
      "byteLength": 348528,
      "byteOffset": 345328,
      "byteStride": 12,
      "name": "floatBufferViews",
      "target": 34962
    },
    {
      "buffer": 0,
      "byteLength": 232352,
      "byteOffset": 693856,
      "byteStride": 16,
      "name": "floatBufferViews",
      "target": 34962
    }
  ],
  "buffers": [
    {
      "byteLength": 926208,
      "uri": "scene.bin"
    }
  ],
  "images": [
    {
      "uri": "textures/Floor_baseColor.jpeg"
    },
    {
      "uri": "textures/Floor_metallicRoughness.png"
    },
    {
      "uri": "textures/Floor_normal.jpeg"
    },
    {
      "uri": "textures/Front_Bars_baseColor.jpeg"
    },
    {
      "uri": "textures/Front_Bars_metallicRoughness.png"
    },
    {
      "uri": "textures/Front_Bars_normal.jpeg"
    },
    {
      "uri": "textures/Window_Bars_baseColor.jpeg"
    },
    {
      "uri": "textures/Window_Bars_metallicRoughness.png"
    },
    {
      "uri": "textures/Window_Bars_normal.jpeg"
    },
    {
      "uri": "textures/wALLS_baseColor.jpeg"
    },
    {
      "uri": "textures/wALLS_metallicRoughness.png"
    },
    {
      "uri": "textures/wALLS_normal.jpeg"
    },
    {
      "uri": "textures/Entrance_baseColor.jpeg"
    },
    {
      "uri": "textures/Entrance_metallicRoughness.png"
    },
    {
      "uri": "textures/Entrance_normal.jpeg"
    },
    {
      "uri": "textures/Chains_baseColor.jpeg"
    },
    {
      "uri": "textures/Chains_metallicRoughness.png"
    },
    {
      "uri": "textures/Chains_normal.jpeg"
    },
    {
      "uri": "textures/Door_baseColor.jpeg"
    },
    {
      "uri": "textures/Door_metallicRoughness.png"
    },
    {
      "uri": "textures/Door_normal.jpeg"
    }
  ],
  "materials": [
    {
      "doubleSided": true,
      "name": "Floor",
      "normalTexture": {
        "index": 2
      },
      "occlusionTexture": {
        "index": 1
      },
      "pbrMetallicRoughness": {
        "baseColorTexture": {
          "index": 0
        },
        "metallicRoughnessTexture": {
          "index": 1
        }
      }
    },
    {
      "doubleSided": true,
      "name": "Front_Bars",
      "normalTexture": {
        "index": 5
      },
      "occlusionTexture": {
        "index": 4
      },
      "pbrMetallicRoughness": {
        "baseColorTexture": {
          "index": 3
        },
        "metallicRoughnessTexture": {
          "index": 4
        }
      }
    },
    {
      "doubleSided": true,
      "name": "Window_Bars",
      "normalTexture": {
        "index": 8
      },
      "occlusionTexture": {
        "index": 7
      },
      "pbrMetallicRoughness": {
        "baseColorTexture": {
          "index": 6
        },
        "metallicRoughnessTexture": {
          "index": 7
        }
      }
    },
    {
      "doubleSided": true,
      "name": "wALLS",
      "normalTexture": {
        "index": 11
      },
      "occlusionTexture": {
        "index": 10
      },
      "pbrMetallicRoughness": {
        "baseColorTexture": {
          "index": 9
        },
        "metallicRoughnessTexture": {
          "index": 10
        }
      }
    },
    {
      "doubleSided": true,
      "name": "Entrance",
      "normalTexture": {
        "index": 14
      },
      "occlusionTexture": {
        "index": 13
      },
      "pbrMetallicRoughness": {
        "baseColorTexture": {
          "index": 12
        },
        "metallicRoughnessTexture": {
          "index": 13
        }
      }
    },
    {
      "doubleSided": true,
      "name": "Chains",
      "normalTexture": {
        "index": 17
      },
      "occlusionTexture": {
        "index": 16
      },
      "pbrMetallicRoughness": {
        "baseColorTexture": {
          "index": 15
        },
        "metallicRoughnessTexture": {
          "index": 16
        }
      }
    },
    {
      "doubleSided": true,
      "name": "Door",
      "normalTexture": {
        "index": 20,
        "scale": 0.6419588414634148
      },
      "occlusionTexture": {
        "index": 19
      },
      "pbrMetallicRoughness": {
        "baseColorTexture": {
          "index": 18
        },
        "metallicRoughnessTexture": {
          "index": 19
        }
      }
    }
  ],
  "meshes": [
    {
      "name": "defaultMaterial",
      "primitives": [
        {
          "attributes": {
            "NORMAL": 1,
            "POSITION": 0,
            "TANGENT": 2,
            "TEXCOORD_0": 3
          },
          "indices": 4,
          "material": 6,
          "mode": 4
        }
      ]
    },
    {
      "name": "defaultMaterial",
      "primitives": [
        {
          "attributes": {
            "NORMAL": 6,
            "POSITION": 5,
            "TANGENT": 7,
            "TEXCOORD_0": 8
          },
          "indices": 9,
          "material": 6,
          "mode": 4
        }
      ]
    },
    {
      "name": "defaultMaterial",
      "primitives": [
        {
          "attributes": {
            "NORMAL": 11,
            "POSITION": 10,
            "TANGENT": 12,
            "TEXCOORD_0": 13
          },
          "indices": 14,
          "material": 5,
          "mode": 4
        }
      ]
    },
    {
      "name": "defaultMaterial",
      "primitives": [
        {
          "attributes": {
            "NORMAL": 16,
            "POSITION": 15,
            "TANGENT": 17,
            "TEXCOORD_0": 18
          },
          "indices": 19,
          "material": 4,
          "mode": 4
        }
      ]
    },
    {
      "name": "defaultMaterial",
      "primitives": [
        {
          "attributes": {
            "NORMAL": 21,
            "POSITION": 20,
            "TANGENT": 22,
            "TEXCOORD_0": 23
          },
          "indices": 24,
          "material": 3,
          "mode": 4
        }
      ]
    },
    {
      "name": "defaultMaterial",
      "primitives": [
        {
          "attributes": {
            "NORMAL": 26,
            "POSITION": 25,
            "TANGENT": 27,
            "TEXCOORD_0": 28
          },
          "indices": 29,
          "material": 2,
          "mode": 4
        }
      ]
    },
    {
      "name": "defaultMaterial",
      "primitives": [
        {
          "attributes": {
            "NORMAL": 31,
            "POSITION": 30,
            "TANGENT": 32,
            "TEXCOORD_0": 33
          },
          "indices": 34,
          "material": 1,
          "mode": 4
        }
      ]
    },
    {
      "name": "defaultMaterial",
      "primitives": [
        {
          "attributes": {
            "NORMAL": 36,
            "POSITION": 35,
            "TANGENT": 37,
            "TEXCOORD_0": 38
          },
          "indices": 39,
          "material": 0,
          "mode": 4
        }
      ]
    }
  ],
  "nodes": [
    {
      "children": [
        1
      ],
      "matrix": [
        3.6174886226654053,
        0.0,
        0.0,
        0.0,
        0.0,
        8.032438320405356e-16,
        -3.6174886226654053,
        0.0,
        0.0,
        3.6174886226654053,
        8.032438320405356e-16,
        0.0,
        0.0,
        0.0,
        0.0,
        1.0
      ],
      "name": "Sketchfab_model"
    },
    {
      "children": [
        2,
        4,
        6,
        8,
        10,
        12,
        14,
        16
      ],
      "matrix": [
        1.0,
        0.0,
        0.0,
        0.0,
        0.0,
        -4.371139006309477e-08,
        0.999999999999999,
        0.0,
        0.0,
        -0.999999999999999,
        -4.371139006309477e-08,
        0.0,
        0.0,
        0.0,
        0.0,
        1.0
      ],
      "name": "Collada visual scene group"
    },
    {
      "children": [
        3
      ],
      "name": "pCylinder45"
    },
    {
      "mesh": 0,
      "name": "defaultMaterial"
    },
    {
      "children": [
        5
      ],
      "name": "pCylinder44"
    },
    {
      "mesh": 1,
      "name": "defaultMaterial"
    },
    {
      "children": [
        7
      ],
      "name": "Chainsmeshthing"
    },
    {
      "mesh": 2,
      "name": "defaultMaterial"
    },
    {
      "children": [
        9
      ],
      "name": "Gate1"
    },
    {
      "mesh": 3,
      "name": "defaultMaterial"
    },
    {
      "children": [
        11
      ],
      "name": "Dungeon_Wallz"
    },
    {
      "mesh": 4,
      "name": "defaultMaterial"
    },
    {
      "children": [
        13
      ],
      "name": "polySurface55"
    },
    {
      "mesh": 5,
      "name": "defaultMaterial"
    },
    {
      "children": [
        15
      ],
      "name": "Bars"
    },
    {
      "mesh": 6,
      "name": "defaultMaterial"
    },
    {
      "children": [
        17
      ],
      "name": "Dungeon_Floor"
    },
    {
      "mesh": 7,
      "name": "defaultMaterial"
    }
  ],
  "samplers": [
    {
      "magFilter": 9729,
      "minFilter": 9987,
      "wrapS": 10497,
      "wrapT": 10497
    }
  ],
  "scene": 0,
  "scenes": [
    {
      "name": "Sketchfab_Scene",
      "nodes": [
        0
      ]
    }
  ],
  "textures": [
    {
      "sampler": 0,
      "source": 0
    },
    {
      "sampler": 0,
      "source": 1
    },
    {
      "sampler": 0,
      "source": 2
    },
    {
      "sampler": 0,
      "source": 3
    },
    {
      "sampler": 0,
      "source": 4
    },
    {
      "sampler": 0,
      "source": 5
    },
    {
      "sampler": 0,
      "source": 6
    },
    {
      "sampler": 0,
      "source": 7
    },
    {
      "sampler": 0,
      "source": 8
    },
    {
      "sampler": 0,
      "source": 9
    },
    {
      "sampler": 0,
      "source": 10
    },
    {
      "sampler": 0,
      "source": 11
    },
    {
      "sampler": 0,
      "source": 12
    },
    {
      "sampler": 0,
      "source": 13
    },
    {
      "sampler": 0,
      "source": 14
    },
    {
      "sampler": 0,
      "source": 15
    },
    {
      "sampler": 0,
      "source": 16
    },
    {
      "sampler": 0,
      "source": 17
    },
    {
      "sampler": 0,
      "source": 18
    },
    {
      "sampler": 0,
      "source": 19
    },
    {
      "sampler": 0,
      "source": 20
    }
  ]
}
