{
  "accessors": [
    {
      "bufferView": 2,
      "componentType": 5126,
      "count": 65532,
      "max": [
        4.846700668334961,
        8.651216506958008,
        5.475189208984375
      ],
      "min": [
        -2.471346616744995,
        7.6649322509765625,
        -1.8694946765899658
      ],
      "type": "VEC3"
    },
    {
      "bufferView": 2,
      "byteOffset": 786384,
      "componentType": 5126,
      "count": 65532,
      "max": [
        0.999311089515686,
        0.999995231628418,
        0.9979012608528137
      ],
      "min": [
        -0.9996963739395142,
        -0.9999984502792358,
        -0.9987516403198242
      ],
      "type": "VEC3"
    },
    {
      "bufferView": 3,
      "componentType": 5126,
      "count": 65532,
      "max": [
        0.9996565580368042,
        0.9999768733978271,
        0.9998157620429993,
        1.0
      ],
      "min": [
        -0.9999359846115112,
        -0.9999979138374329,
        -0.998984158039093,
        -1.0
      ],
      "type": "VEC4"
    },
    {
      "bufferView": 1,
      "componentType": 5126,
      "count": 65532,
      "max": [
        0.9897469878196716,
        0.9999470114707947
      ],
      "min": [
        1.2000000424450263e-05,
        0.0015109999803826213
      ],
      "type": "VEC2"
    },
    {
      "bufferView": 0,
      "componentType": 5125,
      "count": 354126,
      "type": "SCALAR"
    },
    {
      "bufferView": 2,
      "byteOffset": 1572768,
      "componentType": 5126,
      "count": 51768,
      "max": [
        4.864332675933838,
        8.66808032989502,
        5.700525283813477
      ],
      "min": [
        -2.4801361560821533,
        7.5837721824646,
        -1.8734289407730103
      ],
      "type": "VEC3"
    },
    {
      "bufferView": 2,
      "byteOffset": 2193984,
      "componentType": 5126,
      "count": 51768,
      "max": [
        0.9995488524436951,
        0.9999960064888,
        0.9995546340942383
      ],
      "min": [
        -0.9995913505554199,
        -0.9999932646751404,
        -0.9997987747192383
      ],
      "type": "VEC3"
    },
    {
      "bufferView": 3,
      "byteOffset": 1048512,
      "componentType": 5126,
      "count": 51768,
      "max": [
        0.9998475313186646,
        0.9996795654296875,
        0.999900758266449,
        1.0
      ],
      "min": [
        -0.9999359846115112,
        -0.9999797940254211,
        -0.9999483823776245,
        -1.0
      ],
      "type": "VEC4"
    },
    {
      "bufferView": 1,
      "byteOffset": 524256,
      "componentType": 5126,
      "count": 51768,
      "max": [
        0.9945930242538452,
        0.9999970197677612
      ],
      "min": [
        0.0006689999718219042,
        3.400000059627928e-05
      ],
      "type": "VEC2"
    },
    {
      "bufferView": 0,
      "byteOffset": 1416504,
      "componentType": 5125,
      "count": 245874,
      "type": "SCALAR"
    }
  ],
  "asset": {
    "extras": {
      "author": "Giravolt (https://sketchfab.com/giravolt)",
      "license": "CC-BY-4.0 (http://creativecommons.org/licenses/by/4.0/)",
      "source": "https://sketchfab.com/3d-models/esperanca-museu-de-lemporda-e7abb9d8d2ab430ab67c47a86b69cbc4",
      "title": "Esperança, Museu de l'Empordà"
    },
    "generator": "Sketchfab-12.67.0",
    "version": "2.0"
  },
  "bufferViews": [
    {
      "buffer": 0,
      "byteLength": 2400000,
      "name": "floatBufferViews",
      "target": 34963
    },
    {
      "buffer": 0,
      "byteLength": 938400,
      "byteOffset": 2400000,
      "byteStride": 8,
      "name": "floatBufferViews",
      "target": 34962
    },
    {
      "buffer": 0,
      "byteLength": 2815200,
      "byteOffset": 3338400,
      "byteStride": 12,
      "name": "floatBufferViews",
      "target": 34962
    },
    {
      "buffer": 0,
      "byteLength": 1876800,
      "byteOffset": 6153600,
      "byteStride": 16,
      "name": "floatBufferViews",
      "target": 34962
    }
  ],
  "buffers": [
    {
      "byteLength": 8030400,
      "uri": "scene.bin"
    }
  ],
  "images": [
    {
      "uri": "textures/ME647_LP_200K_baseColor.jpeg"
    },
    {
      "uri": "textures/ME647_LP_200K_normal.png"
    }
  ],
  "materials": [
    {
      "doubleSided": true,
      "name": "ME647_LP_200K",
      "normalTexture": {
        "index": 1
      },
      "pbrMetallicRoughness": {
        "baseColorTexture": {
          "index": 0
        },
        "metallicFactor": 0.0,
        "roughnessFactor": 0.8529342915686239
      }
    }
  ],
  "meshes": [
    {
      "name": "Object_0",
      "primitives": [
        {
          "attributes": {
            "NORMAL": 1,
            "POSITION": 0,
            "TANGENT": 2,
            "TEXCOORD_0": 3
          },
          "indices": 4,
          "material": 0,
          "mode": 4
        }
      ]
    },
    {
      "name": "Object_1",
      "primitives": [
        {
          "attributes": {
            "NORMAL": 6,
            "POSITION": 5,
            "TANGENT": 7,
            "TEXCOORD_0": 8
          },
          "indices": 9,
          "material": 0,
          "mode": 4
        }
      ]
    }
  ],
  "nodes": [
    {
      "children": [
        1
      ],
      "matrix": [
        -0.8149335384368896,
        -0.57548588514328,
        0.06855149567127215,
        0.0,
        0.021588921546936035,
        0.08805711567401864,
        0.9958814382553101,
        0.0,
        -0.5791521668434143,
        0.8130571842193604,
        -0.059336576610803424,
        0.0,
        3.09637188911438,
        0.3282102644443548,
        -16.18655776977539,
        1.0
      ],
      "name": "Sketchfab_model"
    },
    {
      "children": [
        2,
        3
      ],
      "name": "ME647_LP_200K.obj.cleaner.materialmerger.gles"
    },
    {
      "mesh": 0,
      "name": "Object_2"
    },
    {
      "mesh": 1,
      "name": "Object_3"
    }
  ],
  "samplers": [
    {
      "magFilter": 9729,
      "minFilter": 9987,
      "wrapS": 10497,
      "wrapT": 10497
    }
  ],
  "scene": 0,
  "scenes": [
    {
      "name": "Sketchfab_Scene",
      "nodes": [
        0
      ]
    }
  ],
  "textures": [
    {
      "sampler": 0,
      "source": 0
    },
    {
      "sampler": 0,
      "source": 1
    }
  ]
}
