{
  "accessors": [
    {
      "bufferView": 2,
      "componentType": 5126,
      "count": 224,
      "max": [
        0.2922300100326538,
        0.4000000059604645,
        0.2922300100326538
      ],
      "min": [
        -0.2922300100326538,
        -0.4000000059604645,
        -0.2922300100326538
      ],
      "type": "VEC3"
    },
    {
      "bufferView": 2,
      "byteOffset": 2688,
      "componentType": 5126,
      "count": 224,
      "max": [
        0.9807855486869812,
        1.0,
        0.9807855486869812
      ],
      "min": [
        -0.9807855486869812,
        -1.0,
        -0.9807855486869812
      ],
      "type": "VEC3"
    },
    {
      "bufferView": 3,
      "componentType": 5126,
      "count": 224,
      "max": [
        0.9808886647224426,
        0.0,
        0.9808844923973083,
        1.0
      ],
      "min": [
        -0.9808844923973083,
        -0.003137364983558655,
        -0.9808844923973083,
        1.0
      ],
      "type": "VEC4"
    },
    {
      "bufferView": 1,
      "componentType": 5126,
      "count": 224,
      "max": [
        0.9266899824142456,
        0.8364899754524231
      ],
      "min": [
        0.0,
        0.0
      ],
      "type": "VEC2"
    },
    {
      "bufferView": 0,
      "componentType": 5125,
      "count": 372,
      "type": "SCALAR"
    },
    {
      "bufferView": 2,
      "byteOffset": 5376,
      "componentType": 5126,
      "count": 456,
      "max": [
        0.29934000968933105,
        0.4143100082874298,
        0.29739001393318176
      ],
      "min": [
        -0.29934000968933105,
        -0.4072200059890747,
        -0.29739001393318176
      ],
      "type": "VEC3"
    },
    {
      "bufferView": 2,
      "byteOffset": 10848,
      "componentType": 5126,
      "count": 456,
      "max": [
        0.8466032147407532,
        0.9999950528144836,
        0.8570391535758972
      ],
      "min": [
        -0.8466032147407532,
        -0.9999948143959045,
        -0.8570391535758972
      ],
      "type": "VEC3"
    },
    {
      "bufferView": 1,
      "byteOffset": 1792,
      "componentType": 5126,
      "count": 456,
      "max": [
        1.0,
        0.9848300218582153
      ],
      "min": [
        0.0,
        0.0
      ],
      "type": "VEC2"
    },
    {
      "bufferView": 0,
      "byteOffset": 1488,
      "componentType": 5125,
      "count": 1248,
      "type": "SCALAR"
    },
    {
      "bufferView": 2,
      "byteOffset": 16320,
      "componentType": 5126,
      "count": 540,
      "max": [
        -2.7837300300598145,
        1.5098600387573242,
        0.30476000905036926
      ],
      "min": [
        -6.345990180969238,
        -1.0,
        -2.492500066757202
      ],
      "type": "VEC3"
    },
    {
      "bufferView": 2,
      "byteOffset": 22800,
      "componentType": 5126,
      "count": 540,
      "max": [
        1.0,
        1.0,
        1.0
      ],
      "min": [
        -1.0,
        -1.0,
        -1.0
      ],
      "type": "VEC3"
    },
    {
      "bufferView": 3,
      "byteOffset": 3584,
      "componentType": 5126,
      "count": 540,
      "max": [
        0.9984384775161743,
        1.0,
        1.0,
        1.0
      ],
      "min": [
        -1.0,
        -0.9731277823448181,
        -1.0,
        -1.0
      ],
      "type": "VEC4"
    },
    {
      "bufferView": 1,
      "byteOffset": 5440,
      "componentType": 5126,
      "count": 540,
      "max": [
        1.0,
        1.0
      ],
      "min": [
        0.0,
        0.0
      ],
      "type": "VEC2"
    },
    {
      "bufferView": 1,
      "byteOffset": 9760,
      "componentType": 5126,
      "count": 540,
      "max": [
        1.0,
        1.0
      ],
      "min": [
        0.0,
        0.0
      ],
      "type": "VEC2"
    },
    {
      "bufferView": 1,
      "byteOffset": 14080,
      "componentType": 5126,
      "count": 540,
      "max": [
        1.0,
        1.0
      ],
      "min": [
        0.0,
        0.0
      ],
      "type": "VEC2"
    },
    {
      "bufferView": 0,
      "byteOffset": 6480,
      "componentType": 5125,
      "count": 1254,
      "type": "SCALAR"
    },
    {
      "bufferView": 2,
      "byteOffset": 29280,
      "componentType": 5126,
      "count": 476,
      "max": [
        -2.6421899795532227,
        1.6655800342559814,
        1.1106300354003906
      ],
      "min": [
        -6.634689807891846,
        -1.1769299507141113,
        0.30476000905036926
      ],
      "type": "VEC3"
    },
    {
      "bufferView": 2,
      "byteOffset": 34992,
      "componentType": 5126,
      "count": 476,
      "max": [
        0.9993722438812256,
        1.0,
        1.0
      ],
      "min": [
        -0.9993532299995422,
        -1.0,
        -1.0
      ],
      "type": "VEC3"
    },
    {
      "bufferView": 3,
      "byteOffset": 12224,
      "componentType": 5126,
      "count": 476,
      "max": [
        1.0,
        1.0,
        0.9898255467414856,
        1.0
      ],
      "min": [
        -1.0,
        -1.0,
        -0.9975653886795044,
        1.0
      ],
      "type": "VEC4"
    },
    {
      "bufferView": 1,
      "byteOffset": 18400,
      "componentType": 5126,
      "count": 476,
      "max": [
        1.0,
        1.0
      ],
      "min": [
        -0.0,
        0.0
      ],
      "type": "VEC2"
    },
    {
      "bufferView": 1,
      "byteOffset": 22208,
      "componentType": 5126,
      "count": 476,
      "max": [
        1.0,
        1.0
      ],
      "min": [
        -0.0,
        0.0
      ],
      "type": "VEC2"
    },
    {
      "bufferView": 1,
      "byteOffset": 26016,
      "componentType": 5126,
      "count": 476,
      "max": [
        1.0,
        1.0
      ],
      "min": [
        -0.0,
        0.0
      ],
      "type": "VEC2"
    },
    {
      "bufferView": 0,
      "byteOffset": 11496,
      "componentType": 5125,
      "count": 894,
      "type": "SCALAR"
    },
    {
      "bufferView": 2,
      "byteOffset": 40704,
      "componentType": 5126,
      "count": 400,
      "max": [
        -3.6511600017547607,
        1.1164699792861938,
        1.2011100053787231
      ],
      "min": [
        -5.145359992980957,
        -0.5892800092697144,
        0.5902600288391113
      ],
      "type": "VEC3"
    },
    {
      "bufferView": 2,
      "byteOffset": 45504,
      "componentType": 5126,
      "count": 400,
      "max": [
        1.0,
        1.0,
        0.8744411468505859
      ],
      "min": [
        -1.0,
        -1.0,
        -0.9947606921195984
      ],
      "type": "VEC3"
    },
    {
      "bufferView": 3,
      "byteOffset": 19840,
      "componentType": 5126,
      "count": 400,
      "max": [
        0.9999970197677612,
        0.8414751887321472,
        0.9999992847442627,
        1.0
      ],
      "min": [
        -0.9999955892562866,
        -0.8290278911590576,
        -0.9999982118606567,
        -1.0
      ],
      "type": "VEC4"
    },
    {
      "bufferView": 1,
      "byteOffset": 29824,
      "componentType": 5126,
      "count": 400,
      "max": [
        0.9465100169181824,
        0.9409599900245667
      ],
      "min": [
        0.0,
        0.0
      ],
      "type": "VEC2"
    },
    {
      "bufferView": 1,
      "byteOffset": 33024,
      "componentType": 5126,
      "count": 400,
      "max": [
        0.9465100169181824,
        0.9409599900245667
      ],
      "min": [
        0.0,
        0.0
      ],
      "type": "VEC2"
    },
    {
      "bufferView": 1,
      "byteOffset": 36224,
      "componentType": 5126,
      "count": 400,
      "max": [
        0.9465100169181824,
        0.9409599900245667
      ],
      "min": [
        0.0,
        0.0
      ],
      "type": "VEC2"
    },
    {
      "bufferView": 0,
      "byteOffset": 15072,
      "componentType": 5125,
      "count": 1296,
      "type": "SCALAR"
    },
    {
      "bufferView": 2,
      "byteOffset": 50304,
      "componentType": 5126,
      "count": 4294,
      "max": [
        -4.937190055847168,
        0.7012699842453003,
        3.3953399658203125
      ],
      "min": [
        -7.0203399658203125,
        -0.14764000475406647,
        0.4662800133228302
      ],
      "type": "VEC3"
    },
    {
      "bufferView": 2,
      "byteOffset": 101832,
      "componentType": 5126,
      "count": 4294,
      "max": [
        1.0,
        1.0,
        1.0
      ],
      "min": [
        -1.0,
        -1.0,
        -0.9999995827674866
      ],
      "type": "VEC3"
    },
    {
      "bufferView": 3,
      "byteOffset": 26240,
      "componentType": 5126,
      "count": 4294,
      "max": [
        1.0,
        1.0,
        1.0,
        1.0
      ],
      "min": [
        -1.0,
        -1.0,
        -1.0,
        -1.0
      ],
      "type": "VEC4"
    },
    {
      "bufferView": 1,
      "byteOffset": 39424,
      "componentType": 5126,
      "count": 4294,
      "max": [
        1.0,
        1.0
      ],
      "min": [
        0.0,
        0.0
      ],
      "type": "VEC2"
    },
    {
      "bufferView": 1,
      "byteOffset": 73776,
      "componentType": 5126,
      "count": 4294,
      "max": [
        1.0,
        1.0
      ],
      "min": [
        0.0,
        0.0
      ],
      "type": "VEC2"
    },
    {
      "bufferView": 1,
      "byteOffset": 108128,
      "componentType": 5126,
      "count": 4294,
      "max": [
        1.0,
        1.0
      ],
      "min": [
        0.0,
        0.0
      ],
      "type": "VEC2"
    },
    {
      "bufferView": 0,
      "byteOffset": 20256,
      "componentType": 5125,
      "count": 14718,
      "type": "SCALAR"
    },
    {
      "bufferView": 2,
      "byteOffset": 153360,
      "componentType": 5126,
      "count": 128,
      "max": [
        -4.409480094909668,
        -0.6169000267982483,
        -0.6400499939918518
      ],
      "min": [
        -4.694379806518555,
        -0.7477999925613403,
        -0.9293199777603149
      ],
      "type": "VEC3"
    },
    {
      "bufferView": 2,
      "byteOffset": 154896,
      "componentType": 5126,
      "count": 128,
      "max": [
        0.9811453819274902,
        0.20011068880558014,
        0.9812710881233215
      ],
      "min": [
        -0.9810479283332825,
        -1.0,
        -0.9797734022140503
      ],
      "type": "VEC3"
    },
    {
      "bufferView": 3,
      "byteOffset": 94944,
      "componentType": 5126,
      "count": 128,
      "max": [
        0.9999359250068665,
        0.9805122017860413,
        0.30545151233673096,
        1.0
      ],
      "min": [
        -0.21485446393489838,
        -0.9805833101272583,
        -0.5693895220756531,
        1.0
      ],
      "type": "VEC4"
    },
    {
      "bufferView": 1,
      "byteOffset": 142480,
      "componentType": 5126,
      "count": 128,
      "max": [
        0.885860025882721,
        0.9999099969863892
      ],
      "min": [
        9.000000136438757e-05,
        9.000000136438757e-05
      ],
      "type": "VEC2"
    },
    {
      "bufferView": 1,
      "byteOffset": 143504,
      "componentType": 5126,
      "count": 128,
      "max": [
        0.885860025882721,
        0.9999099969863892
      ],
      "min": [
        9.000000136438757e-05,
        9.000000136438757e-05
      ],
      "type": "VEC2"
    },
    {
      "bufferView": 1,
      "byteOffset": 144528,
      "componentType": 5126,
      "count": 128,
      "max": [
        0.885860025882721,
        0.9999099969863892
      ],
      "min": [
        9.000000136438757e-05,
        9.000000136438757e-05
      ],
      "type": "VEC2"
    },
    {
      "bufferView": 0,
      "byteOffset": 79128,
      "componentType": 5125,
      "count": 288,
      "type": "SCALAR"
    }
  ],
  "asset": {
    "extras": {
      "author": "Fred Beckhusen (https://sketchfab.com/FredBeckhusen)",
      "license": "CC-BY-NC-4.0 (http://creativecommons.org/licenses/by-nc/4.0/)",
      "source": "https://sketchfab.com/3d-models/medieval-sink-7a2db617474d4f6f8680fdf8ef6a036d",
      "title": "Medieval Sink"
    },
    "generator": "Sketchfab-12.67.0",
    "version": "2.0"
  },
  "bufferViews": [
    {
      "buffer": 0,
      "byteLength": 80280,
      "name": "floatBufferViews",
      "target": 34963
    },
    {
      "buffer": 0,
      "byteLength": 145552,
      "byteOffset": 80280,
      "byteStride": 8,
      "name": "floatBufferViews",
      "target": 34962
    },
    {
      "buffer": 0,
      "byteLength": 156432,
      "byteOffset": 225832,
      "byteStride": 12,
      "name": "floatBufferViews",
      "target": 34962
    },
    {
      "buffer": 0,
      "byteLength": 96992,
      "byteOffset": 382264,
      "byteStride": 16,
      "name": "floatBufferViews",
      "target": 34962
    }
  ],
  "buffers": [
    {
      "byteLength": 479256,
      "uri": "scene.bin"
    }
  ],
  "images": [
    {
      "uri": "textures/Green_baseColor.png"
    },
    {
      "uri": "textures/Green_normal.png"
    },
    {
      "uri": "textures/Wood_baseColor.png"
    },
    {
      "uri": "textures/Wood_normal.png"
    },
    {
      "uri": "textures/material_baseColor.png"
    },
    {
      "uri": "textures/material_normal.png"
    },
    {
      "uri": "textures/Pump_baseColor.png"
    },
    {
      "uri": "textures/Pump_normal.png"
    },
    {
      "uri": "textures/Cork_baseColor.png"
    },
    {
      "uri": "textures/Cork_normal.png"
    },
    {
      "uri": "textures/Wood2_baseColor.jpeg"
    },
    {
      "uri": "textures/Metal_baseColor.png"
    }
  ],
  "materials": [
    {
      "doubleSided": true,
      "name": "Green",
      "normalTexture": {
        "index": 1
      },
      "pbrMetallicRoughness": {
        "baseColorTexture": {
          "index": 0
        },
        "metallicFactor": 0.0,
        "roughnessFactor": 0.6
      }
    },
    {
      "doubleSided": true,
      "name": "Wood",
      "normalTexture": {
        "index": 3,
        "scale": 0.0
      },
      "pbrMetallicRoughness": {
        "baseColorTexture": {
          "index": 2
        },
        "metallicFactor": 0.0,
        "roughnessFactor": 0.6
      }
    },
    {
      "doubleSided": true,
      "name": "material",
      "normalTexture": {
        "index": 5
      },
      "pbrMetallicRoughness": {
        "baseColorTexture": {
          "index": 4
        },
        "metallicFactor": 0.0,
        "roughnessFactor": 0.6
      }
    },
    {
      "doubleSided": true,
      "name": "Pump",
      "normalTexture": {
        "index": 7,
        "scale": 0.06779670715332031
      },
      "pbrMetallicRoughness": {
        "baseColorFactor": [
          0.936170220375061,
          0.936170220375061,
          0.936170220375061,
          1.0
        ],
        "baseColorTexture": {
          "index": 6
        },
        "metallicFactor": 0.0,
        "roughnessFactor": 0.6
      }
    },
    {
      "doubleSided": true,
      "name": "Cork",
      "normalTexture": {
        "index": 9
      },
      "pbrMetallicRoughness": {
        "baseColorTexture": {
          "index": 8
        },
        "metallicFactor": 0.0,
        "roughnessFactor": 0.6
      }
    },
    {
      "doubleSided": true,
      "name": "Wood2",
      "normalTexture": {
        "index": 10,
        "scale": 0.20000000298023224
      },
      "pbrMetallicRoughness": {
        "baseColorTexture": {
          "index": 10
        },
        "metallicFactor": 0.0,
        "roughnessFactor": 0.6
      }
    },
    {
      "doubleSided": true,
      "name": "Metal",
      "pbrMetallicRoughness": {
        "baseColorTexture": {
          "index": 11
        },
        "metallicFactor": 0.0,
        "roughnessFactor": 0.6
      }
    }
  ],
  "meshes": [
    {
      "name": "Barrel_0",
      "primitives": [
        {
          "attributes": {
            "NORMAL": 1,
            "POSITION": 0,
            "TANGENT": 2,
            "TEXCOORD_0": 3
          },
          "indices": 4,
          "material": 5,
          "mode": 4
        }
      ]
    },
    {
      "name": "Barrel_1",
      "primitives": [
        {
          "attributes": {
            "NORMAL": 6,
            "POSITION": 5,
            "TEXCOORD_0": 7
          },
          "indices": 8,
          "material": 6,
          "mode": 4
        }
      ]
    },
    {
      "name": "Rod_0",
      "primitives": [
        {
          "attributes": {
            "NORMAL": 10,
            "POSITION": 9,
            "TANGENT": 11,
            "TEXCOORD_0": 12,
            "TEXCOORD_1": 13,
            "TEXCOORD_2": 14
          },
          "indices": 15,
          "material": 0,
          "mode": 4
        }
      ]
    },
    {
      "name": "Rod_1",
      "primitives": [
        {
          "attributes": {
            "NORMAL": 17,
            "POSITION": 16,
            "TANGENT": 18,
            "TEXCOORD_0": 19,
            "TEXCOORD_1": 20,
            "TEXCOORD_2": 21
          },
          "indices": 22,
          "material": 1,
          "mode": 4
        }
      ]
    },
    {
      "name": "Rod_2",
      "primitives": [
        {
          "attributes": {
            "NORMAL": 24,
            "POSITION": 23,
            "TANGENT": 25,
            "TEXCOORD_0": 26,
            "TEXCOORD_1": 27,
            "TEXCOORD_2": 28
          },
          "indices": 29,
          "material": 2,
          "mode": 4
        }
      ]
    },
    {
      "name": "Rod_3",
      "primitives": [
        {
          "attributes": {
            "NORMAL": 31,
            "POSITION": 30,
            "TANGENT": 32,
            "TEXCOORD_0": 33,
            "TEXCOORD_1": 34,
            "TEXCOORD_2": 35
          },
          "indices": 36,
          "material": 3,
          "mode": 4
        }
      ]
    },
    {
      "name": "Rod_4",
      "primitives": [
        {
          "attributes": {
            "NORMAL": 38,
            "POSITION": 37,
            "TANGENT": 39,
            "TEXCOORD_0": 40,
            "TEXCOORD_1": 41,
            "TEXCOORD_2": 42
          },
          "indices": 43,
          "material": 4,
          "mode": 4
        }
      ]
    }
  ],
  "nodes": [
    {
      "children": [
        1
      ],
      "matrix": [
        1.0,
        0.0,
        0.0,
        0.0,
        0.0,
        2.220446049250313e-16,
        -1.0,
        0.0,
        0.0,
        1.0,
        2.220446049250313e-16,
        0.0,
        0.0,
        0.0,
        0.0,
        1.0
      ],
      "name": "Sketchfab_model"
    },
    {
      "children": [
        2,
        5,
        11
      ],
      "name": "Root"
    },
    {
      "children": [
        3,
        4
      ],
      "matrix": [
        1.67512,
        0.0,
        0.0,
        0.0,
        0.0,
        0.0,
        1.18795,
        0.0,
        0.0,
        -1.67512,
        0.0,
        0.0,
        -1.5857999999999999,
        0.15213000000000002,
        -0.9197900000000001,
        1.0
      ],
      "name": "Barrel"
    },
    {
      "mesh": 0,
      "name": "Barrel_0"
    },
    {
      "mesh": 1,
      "name": "Barrel_1"
    },
    {
      "children": [
        6,
        7,
        8,
        9,
        10
      ],
      "matrix": [
        0.47300000000000003,
        0.0,
        0.0,
        0.0,
        0.0,
        0.47300000000000003,
        0.0,
        0.0,
        0.0,
        0.0,
        0.47300000000000003,
        0.0,
        0.57176,
        0.0,
        -0.54653,
        1.0
      ],
      "name": "Rod"
    },
    {
      "mesh": 2,
      "name": "Rod_0"
    },
    {
      "mesh": 3,
      "name": "Rod_1"
    },
    {
      "mesh": 4,
      "name": "Rod_2"
    },
    {
      "mesh": 5,
      "name": "Rod_3"
    },
    {
      "mesh": 6,
      "name": "Rod_4"
    },
    {
      "children": [
        12
      ],
      "matrix": [
        1.0,
        0.0,
        0.0,
        0.0,
        0.0,
        1.0,
        0.0,
        0.0,
        0.0,
        0.0,
        1.0,
        0.0,
        -1.4882,
        0.84056,
        2.75598,
        1.0
      ],
      "name": "Hemi"
    },
    {
      "name": "Hemi"
    }
  ],
  "samplers": [
    {
      "magFilter": 9729,
      "minFilter": 9987,
      "wrapS": 10497,
      "wrapT": 10497
    }
  ],
  "scene": 0,
  "scenes": [
    {
      "name": "Sketchfab_Scene",
      "nodes": [
        0
      ]
    }
  ],
  "textures": [
    {
      "sampler": 0,
      "source": 0
    },
    {
      "sampler": 0,
      "source": 1
    },
    {
      "sampler": 0,
      "source": 2
    },
    {
      "sampler": 0,
      "source": 3
    },
    {
      "sampler": 0,
      "source": 4
    },
    {
      "sampler": 0,
      "source": 5
    },
    {
      "sampler": 0,
      "source": 6
    },
    {
      "sampler": 0,
      "source": 7
    },
    {
      "sampler": 0,
      "source": 8
    },
    {
      "sampler": 0,
      "source": 9
    },
    {
      "sampler": 0,
      "source": 10
    },
    {
      "sampler": 0,
      "source": 11
    }
  ]
}
